<svg width="95" height="60" viewBox="0 0 95 60" fill="none" xmlns="http://www.w3.org/2000/svg">
<g filter="url(#filter0_d_151_386)">
<circle cx="23" cy="20" r="17" fill="#FFF284"/>
</g>
<g filter="url(#filter1_d_151_386)">
<path d="M54.1859 35.5223L54.4684 32.8168C54.4851 32.6308 54.6883 32.5286 55.0782 32.5099C55.4693 32.478 55.791 32.4734 56.0433 32.496L56.8149 32.6254C57.3124 32.7502 57.5522 32.9123 57.5343 33.1115L56.8961 39.3394C56.6139 39.5015 56.0594 39.6393 55.2326 39.7526C54.4203 39.8539 53.4963 39.8581 52.4604 39.7653C50.5348 39.5928 49.0369 38.8295 47.9668 37.4752C46.8967 36.121 46.4699 34.2354 46.6865 31.8184C46.8709 29.76 47.5984 28.1385 48.8692 26.9538C50.14 25.7691 51.7979 25.2684 53.8431 25.4516C54.7727 25.5349 55.601 25.7028 56.328 25.9553C57.0695 26.1958 57.5661 26.4812 57.8176 26.8116C57.8213 26.9191 57.8101 27.1189 57.784 27.411C57.7578 27.7032 57.6207 28.1126 57.3727 28.6392C57.126 29.1526 56.8645 29.5308 56.5884 29.7738C56.3123 30.0168 56.1144 30.1329 55.9949 30.1222C55.8887 30.1127 55.7733 30.0555 55.6489 29.9507C55.5388 29.8337 55.3027 29.7055 54.9404 29.5659C54.5792 29.4131 54.226 29.3212 53.8807 29.2903C53.0574 29.2165 52.3629 29.422 51.7974 29.9068C51.2452 30.3928 50.9191 31.1936 50.8192 32.3091C50.7192 33.4247 50.902 34.2978 51.3676 34.9285C51.8477 35.5471 52.4263 35.8868 53.1036 35.9475C53.7942 36.0093 54.155 35.8676 54.1859 35.5223ZM59.5993 39.0193C58.8581 38.0292 58.56 36.7241 58.7051 35.1039C58.8503 33.4837 59.3756 32.2523 60.281 31.4098C61.1997 30.5684 62.363 30.2108 63.7707 30.3369C65.1784 30.463 66.2528 31.0211 66.9941 32.0111C67.7354 33.0012 68.0335 34.3064 67.8883 35.9266C67.7432 37.5467 67.2179 38.7781 66.3125 39.6207C65.407 40.4632 64.2504 40.8215 62.8427 40.6954C61.435 40.5693 60.3539 40.0106 59.5993 39.0193ZM63.4727 33.6635C62.729 33.5969 62.3024 34.1745 62.1929 35.3963C62.0835 36.618 62.4006 37.2622 63.1443 37.3289C63.9013 37.3967 64.3345 36.8197 64.4439 35.5979C64.5534 34.3761 64.2296 33.7313 63.4727 33.6635ZM69.7347 39.9272C68.9934 38.9372 68.6953 37.632 68.8404 36.0118C68.9856 34.3917 69.5109 33.1603 70.4163 32.3177C71.3351 31.4763 72.4983 31.1187 73.906 31.2448C75.3137 31.3709 76.3882 31.929 77.1294 32.9191C77.8707 33.9092 78.1688 35.2143 78.0237 36.8345C77.8785 38.4547 77.3532 39.686 76.4478 40.5286C75.5423 41.3712 74.3857 41.7294 72.978 41.6033C71.5703 41.4772 70.4892 40.9185 69.7347 39.9272ZM73.608 34.5715C72.8643 34.5049 72.4377 35.0824 72.3283 36.3042C72.2188 37.526 72.5359 38.1702 73.2796 38.2368C74.0366 38.3046 74.4698 37.7276 74.5793 36.5059C74.6887 35.2841 74.3649 34.6393 73.608 34.5715ZM85.1864 28.5606C85.2042 28.3614 85.7377 28.3088 86.7868 28.4028C87.1454 28.4349 87.5547 28.4983 88.0148 28.5931C88.4893 28.6757 88.723 28.7569 88.7158 28.8366L87.7754 39.3346L88.4726 39.397C88.8046 39.4268 88.997 39.7452 89.0497 40.3523C89.0608 40.5273 89.0526 40.7676 89.0253 41.073C88.9991 41.3652 88.874 41.7154 88.65 42.1237C88.3321 42.6843 87.8809 42.9383 87.2966 42.886C86.8584 42.8467 86.4743 42.7253 86.1445 42.5218C85.828 42.3194 85.6183 42.1199 85.5154 41.9232L85.3593 41.6482C84.5659 42.2866 83.618 42.5565 82.5158 42.4577C81.4135 42.359 80.5117 41.8164 79.8102 40.8298C79.1088 39.8433 78.8312 38.5333 78.9775 36.8999C79.1251 35.2531 79.6504 34.0217 80.5534 33.2057C81.4577 32.3764 82.5274 32.0171 83.7624 32.1278C84.121 32.1599 84.4826 32.2324 84.8473 32.3454L85.1864 28.5606ZM83.9151 35.3543C83.1715 35.2876 82.7395 35.925 82.6194 37.2663C82.5587 37.9436 82.6209 38.4444 82.806 38.7689C82.9924 39.0801 83.2117 39.247 83.464 39.2696C83.7296 39.2934 83.992 39.2031 84.2513 38.9988L84.5547 35.6123C84.3408 35.4593 84.1276 35.3733 83.9151 35.3543Z" fill="#FFF284"/>
</g>
<g filter="url(#filter2_d_151_386)">
<path d="M55.4867 7.26858C55.6763 8.64223 55.2259 9.7677 54.1356 10.645C54.8156 10.7934 55.4137 11.1281 55.9297 11.6491C56.4458 12.1702 56.7777 12.9656 56.9253 14.0354C57.0711 15.0921 56.7906 15.9855 56.0838 16.7156C55.3902 17.444 54.3104 17.9093 52.8443 18.1116L48.1686 18.7569C47.944 18.7879 47.7491 18.7408 47.5838 18.6155C47.4166 18.4771 47.3157 18.2824 47.2811 18.0314L45.5312 5.3516C45.5111 5.20631 45.5182 5.11112 45.5523 5.06602C45.5979 5.0059 45.6933 4.96581 45.8386 4.94576L50.3558 4.32237C53.4465 3.89584 55.1568 4.87791 55.4867 7.26858ZM49.7288 7.6796L50.087 10.275L50.1861 10.2613C51.4541 10.0863 52.0297 9.57618 51.9131 8.73086C51.8493 8.26858 51.6773 7.94909 51.3972 7.77239C51.1303 7.59387 50.7129 7.5438 50.1449 7.62218L49.7288 7.6796ZM50.4097 12.6128L50.7651 15.1884L51.1217 15.1392C51.6897 15.0608 52.0912 14.8978 52.3261 14.65C52.5611 14.4022 52.6467 14.0471 52.583 13.5849C52.5192 13.1226 52.349 12.8163 52.0725 12.666C51.8093 12.5139 51.3937 12.477 50.8257 12.5554L50.4097 12.6128ZM66.1803 15.7261C65.4157 16.3296 64.3795 16.7216 63.0719 16.9021C61.7643 17.0825 60.6004 16.7922 59.5801 16.0313C58.558 15.257 57.9385 14.0841 57.7216 12.5123C57.5028 10.9273 57.7562 9.59349 58.4817 8.51081C59.2203 7.42631 60.2501 6.79292 61.5709 6.61064C62.8917 6.42836 63.9552 6.62482 64.7614 7.2C65.5808 7.77336 66.0571 8.54214 66.1901 9.50634C66.4854 11.6461 65.4047 12.8854 62.948 13.2245L61.581 13.4131C61.6356 13.8094 61.7796 14.0722 62.0128 14.2015C62.2574 14.3158 62.591 14.3438 63.0137 14.2855C63.9382 14.1579 64.7874 13.8253 65.5612 13.2878C65.5726 13.2728 65.6448 13.357 65.7778 13.5406C66.1732 14.0648 66.3982 14.525 66.4529 14.9213C66.5057 15.3043 66.4149 15.5726 66.1803 15.7261ZM62.9136 10.3421C62.8371 9.78737 62.528 9.54737 61.9865 9.6221C61.7355 9.65673 61.5285 9.76606 61.3655 9.95008C61.2138 10.1191 61.1581 10.3488 61.1982 10.6394L61.2829 11.2536L62.3528 11.106C62.7887 11.0458 62.9756 10.7912 62.9136 10.3421Z" fill="#FFF284"/>
</g>
<defs>
<filter id="filter0_d_151_386" x="0" y="1" width="46" height="46" filterUnits="userSpaceOnUse" color-interpolation-filters="sRGB">
<feFlood flood-opacity="0" result="BackgroundImageFix"/>
<feColorMatrix in="SourceAlpha" type="matrix" values="0 0 0 0 0 0 0 0 0 0 0 0 0 0 0 0 0 0 127 0" result="hardAlpha"/>
<feOffset dy="4"/>
<feGaussianBlur stdDeviation="3"/>
<feComposite in2="hardAlpha" operator="out"/>
<feColorMatrix type="matrix" values="0 0 0 0 0 0 0 0 0 0 0 0 0 0 0 0 0 0 0.25 0"/>
<feBlend mode="normal" in2="BackgroundImageFix" result="effect1_dropShadow_151_386"/>
<feBlend mode="normal" in="SourceGraphic" in2="effect1_dropShadow_151_386" result="shape"/>
</filter>
<filter id="filter1_d_151_386" x="42.0261" y="24.8663" width="52.1074" height="26.1589" filterUnits="userSpaceOnUse" color-interpolation-filters="sRGB">
<feFlood flood-opacity="0" result="BackgroundImageFix"/>
<feColorMatrix in="SourceAlpha" type="matrix" values="0 0 0 0 0 0 0 0 0 0 0 0 0 0 0 0 0 0 127 0" result="hardAlpha"/>
<feOffset dy="4"/>
<feGaussianBlur stdDeviation="2"/>
<feComposite in2="hardAlpha" operator="out"/>
<feColorMatrix type="matrix" values="0 0 0 0 0 0 0 0 0 0 0 0 0 0 0 0 0 0 0.25 0"/>
<feBlend mode="normal" in2="BackgroundImageFix" result="effect1_dropShadow_151_386"/>
<feBlend mode="normal" in="SourceGraphic" in2="effect1_dropShadow_151_386" result="shape"/>
</filter>
<filter id="filter2_d_151_386" x="41.4819" y="2.2749" width="29.6516" height="24.7867" filterUnits="userSpaceOnUse" color-interpolation-filters="sRGB">
<feFlood flood-opacity="0" result="BackgroundImageFix"/>
<feColorMatrix in="SourceAlpha" type="matrix" values="0 0 0 0 0 0 0 0 0 0 0 0 0 0 0 0 0 0 127 0" result="hardAlpha"/>
<feOffset dy="4"/>
<feGaussianBlur stdDeviation="2"/>
<feComposite in2="hardAlpha" operator="out"/>
<feColorMatrix type="matrix" values="0 0 0 0 0 0 0 0 0 0 0 0 0 0 0 0 0 0 0.25 0"/>
<feBlend mode="normal" in2="BackgroundImageFix" result="effect1_dropShadow_151_386"/>
<feBlend mode="normal" in="SourceGraphic" in2="effect1_dropShadow_151_386" result="shape"/>
</filter>
</defs>
</svg>
