<svg width="376" height="13" viewBox="0 0 376 13" fill="none" xmlns="http://www.w3.org/2000/svg">
<rect y="7" width="375" height="6" fill="#C48D60"/>
<path d="M1.87034 7.21431C1.81036 7.2034 1.73365 7.12573 1.68096 7.0906C1.65573 7.07378 1.63598 7.05286 1.60918 7.03868C1.57696 7.02162 1.5542 6.9597 1.5542 6.92566" stroke="#C48D60" stroke-width="3" stroke-linecap="round"/>
<path d="M2.00781 6.76068C2.1846 6.73348 2.34577 6.65111 2.52708 6.63392C2.62361 6.62476 2.70483 6.60217 2.79434 6.5713C2.84195 6.55488 2.90616 6.51326 2.95623 6.51326C3.00373 6.51326 3.07368 6.63886 3.09979 6.66752C3.20207 6.77974 3.34015 6.84455 3.44801 6.95006C3.49652 6.99752 3.54683 7.08514 3.60989 7.11194C3.66594 7.13576 3.77588 7.09021 3.82982 7.07682C3.92525 7.05313 4.01874 7.02664 4.11541 7.00809C4.19491 6.99283 4.25993 6.96189 4.33381 6.93631C4.52153 6.87133 4.8046 6.89615 4.94929 7.03558C5.02927 7.11266 5.10202 7.20668 5.1967 7.2662C5.23373 7.28947 5.27874 7.31034 5.32041 7.32423C5.38804 7.34677 5.53592 7.17325 5.57699 7.13943C5.80683 6.95021 6.02023 6.74095 6.25203 6.5545C6.27767 6.53388 6.35472 6.45595 6.39254 6.49188C6.49196 6.58634 6.57601 6.69696 6.65981 6.80497C6.78138 6.96166 6.93646 7.17831 7.15616 7.18067C7.31118 7.18234 7.40455 7.05576 7.4891 6.94242C7.5523 6.85771 7.6274 6.78592 7.69528 6.7057C7.75327 6.63716 7.79991 6.61586 7.89077 6.62322C7.99135 6.63138 8.08276 6.79911 8.16262 6.85078C8.23079 6.89489 8.36582 6.73311 8.4024 6.69653C8.52339 6.57554 8.62943 6.44051 8.73992 6.31014C8.82147 6.21391 8.85842 6.13286 8.94152 6.25516C9.05761 6.42602 9.21396 6.7022 9.45773 6.63697C9.59755 6.59955 9.68118 6.47525 9.81816 6.43079C9.93593 6.39257 10.1303 6.31352 10.2519 6.38192C10.3004 6.40918 10.4394 6.62649 10.4978 6.58352C10.6115 6.49984 10.694 6.35485 10.8124 6.28265C11.0118 6.16109 11.3484 6.22193 11.5554 6.24141C11.6938 6.25444 12.0616 6.26194 12.2037 6.35901C12.2192 6.36959 12.2179 6.4914 12.2236 6.48883C12.253 6.47545 12.3276 6.56434 12.3442 6.57893C12.4076 6.63448 12.478 6.68243 12.5473 6.73013C12.5965 6.76393 12.6464 6.79586 12.6741 6.73013C12.7005 6.66773 12.7355 6.60398 12.7566 6.54075" stroke="#C48D60" stroke-width="3" stroke-linecap="round"/>
<path d="M12.9714 6.70439C13.4185 7.13601 14.1771 7.46329 14.8081 7.36821C15.0769 7.3277 15.1995 6.95553 15.2427 6.73118C15.2508 6.68905 15.2611 6.55285 15.3201 6.63146C15.4377 6.78834 15.5531 6.95531 15.6922 7.09435C15.8453 7.24742 15.8404 6.55669 15.9452 6.49602C16.0587 6.43032 16.3478 6.64667 16.4408 6.68951C16.6471 6.78446 16.8944 6.90351 17.1299 6.87407C17.3169 6.85069 17.3776 6.69972 17.4872 6.57044C17.5792 6.46189 17.7317 6.21002 17.8801 6.17453C18.1242 6.11616 18.2589 6.33172 18.4159 6.45732C18.4472 6.48236 18.5255 6.3587 18.5439 6.34421C18.6487 6.26189 18.7882 6.24283 18.9175 6.25044C19.0508 6.25828 19.0988 6.33465 19.1273 6.45732C19.1295 6.46662 19.1634 6.6069 19.1869 6.55407C19.2695 6.36811 19.2908 6.24313 19.5099 6.35909C19.6215 6.41822 19.8642 6.68127 19.9995 6.63444C20.3305 6.51986 20.6516 6.38681 20.9759 6.2549C21.0859 6.21015 21.2927 6.0929 21.4224 6.11649C21.5222 6.13464 21.5753 6.49024 21.5921 6.56449C21.6217 6.69561 21.6147 7.09263 21.6516 6.96337C21.7432 6.64269 21.5858 6.09223 21.9448 5.89025C22.078 5.81536 22.216 6.18347 22.3333 6.24746C22.4269 6.29852 22.5357 6.14625 22.5357 6.30253" stroke="#C48D60" stroke-width="3" stroke-linecap="round"/>
<path d="M23.5537 6.46328C23.8266 6.34048 24.2471 6.25055 24.539 6.3204C25.0093 6.43295 24.8607 7.28356 24.8263 7.61231C24.8088 7.77923 24.7861 7.94578 24.7861 8.11389C24.7861 8.13604 24.7983 8.0713 24.8039 8.04989C24.8691 7.80441 24.9502 7.56251 25.0272 7.32059C25.1656 6.88566 25.3147 6.4561 25.4975 6.03761C25.5824 5.84338 25.7013 5.6686 25.7878 5.47649C25.8229 5.39849 25.8007 5.4634 25.8086 5.52561C25.8561 5.89754 26.1002 6.24978 26.3027 6.55259C26.5203 6.87791 26.7726 7.2601 27.1347 7.44114C27.3943 7.57095 27.4677 7.28577 27.5336 7.08542C27.5609 7.00272 27.7059 6.30849 27.8521 6.30849C27.9284 6.30849 27.9207 6.68319 27.9742 6.21919C28.0071 5.93368 28.0532 5.64842 28.0754 5.36189C28.077 5.3413 28.0902 5.05154 28.1141 5.20114C28.1724 5.56673 28.2946 5.89627 28.7109 5.92449C29.0137 5.94502 29.1728 5.95304 29.3852 5.73696C29.6062 5.51206 29.8043 5.26033 29.9924 5.00766C30.0062 4.98917 30.1736 4.70975 30.1993 4.81268C30.3146 5.27374 30.5036 5.79062 30.7708 6.18645C30.7978 6.22642 30.8731 6.35125 30.9078 6.25491C30.97 6.08196 30.9898 5.89115 31.0343 5.71314C31.0497 5.65145 31.1623 5.16138 31.1623 5.43333C31.1623 5.53553 31.1623 5.63773 31.1623 5.73993" stroke="#C48D60" stroke-width="3" stroke-linecap="round"/>
<path d="M37.7233 5.86492C37.7432 5.97624 37.7487 6.10644 37.6531 6.11353C37.4593 6.12788 37.3015 6.08952 37.1262 6.0243C36.715 6.17001 36.3266 6.38908 36.0218 6.69102C35.8434 6.86774 35.7128 7.06703 35.5619 7.26404C35.5254 7.31179 35.4917 7.31306 35.4815 7.24916C35.4421 7.0009 35.4756 6.72633 35.4756 6.4752C35.4756 6.45604 35.5631 6.52047 35.6214 6.51092C36.1607 6.42269 36.506 5.78346 37.083 6.00785C37.0976 6.0135 37.1119 6.01899 37.1262 6.0243C37.3222 5.95485 37.5234 5.90207 37.7233 5.86492Z" fill="#C48D60"/>
<path d="M31.5374 5.68636C31.5759 5.69022 31.6039 5.70894 31.6356 5.73102C31.8094 5.85215 31.9833 5.97279 32.158 6.09269C32.5667 6.37314 32.9611 6.68339 33.4603 6.77883C33.8667 6.85651 33.9565 6.491 34.0423 6.16711C34.1222 5.86509 34.1797 5.5004 34.3712 5.24283C34.4551 5.12996 34.5883 5.24518 34.6853 5.28302C34.7723 5.31697 35.0111 5.33091 35.0469 5.43632C35.0805 5.53513 35.0578 5.65568 35.041 5.75483C35.0033 5.97769 35.0339 5.87956 35.1258 5.71911C35.2598 5.48527 35.391 5.24993 35.5232 5.01511C35.5733 4.92613 35.6965 4.60993 35.8358 4.61176C35.9654 4.61347 36.0899 4.81128 36.1573 4.89455C36.3331 5.11189 36.4864 5.34393 36.6499 5.57027C36.72 5.66734 36.8739 5.98949 36.9818 5.80246C37.0935 5.60892 37.1939 5.28328 37.3896 5.15799C37.5567 5.05105 37.6744 5.6401 37.6933 5.72804C37.7111 5.81112 37.7976 6.10282 37.6531 6.11353C37.4435 6.12905 37.2761 6.08293 37.083 6.00785C36.506 5.78346 36.1607 6.42269 35.6214 6.51092C35.5631 6.52047 35.4756 6.45604 35.4756 6.4752C35.4756 6.72633 35.4421 7.0009 35.4815 7.24916C35.4917 7.31306 35.5254 7.31179 35.5619 7.26404C35.7128 7.06703 35.8434 6.86774 36.0218 6.69102C36.4798 6.23738 37.1262 5.97081 37.7558 5.85902C37.9014 5.83316 38.0486 5.82192 38.1963 5.82032C38.2591 5.81964 38.3466 5.83597 38.4062 5.8099C38.5875 5.73059 38.7584 5.55576 38.9033 5.42888C39.2668 5.11049 39.5985 4.75776 39.9199 4.39743C40.0467 4.25518 40.1641 4.09618 40.3068 3.96878C40.4008 3.88492 40.3783 3.99591 40.3783 4.07297C40.3783 4.63049 40.3845 5.19507 40.4527 5.74888C40.4604 5.81145 40.4903 6.33917 40.5837 6.07781C40.7261 5.67915 40.9136 5.28214 41.1761 4.94813C41.2077 4.90788 41.4992 4.58368 41.5422 4.77399C41.6019 5.03862 41.518 5.32208 41.563 5.58813C41.6087 5.85812 42.213 5.35423 42.3668 5.46609C42.4845 5.55174 42.8013 5.4154 42.8698 5.55241" stroke="#C48D60" stroke-width="3" stroke-linecap="round"/>
<path d="M43.1913 5.60599C43.535 5.67475 43.8921 5.94553 44.1974 6.10013C45.1052 6.55986 46.0494 6.98599 47.0521 7.18962C47.5581 7.29239 48.1513 7.3673 48.6491 7.18516C48.9155 7.0877 49.16 6.9543 49.4335 6.87409C50.3462 6.60643 51.3001 6.31062 52.2555 6.56153C53.0158 6.7612 53.7891 7.37605 54.619 7.20748C54.7927 7.17221 54.8923 7.05723 55.0447 6.99018C55.1318 6.95186 55.225 6.97808 55.3156 6.9366C55.6374 6.78922 55.9004 6.50846 56.1744 6.29362C56.7678 5.82829 57.4202 5.34069 58.1643 5.15353C58.6088 5.04173 58.9527 5.12278 59.3386 5.34702C59.5017 5.4418 59.6827 5.57428 59.873 5.60599C60.3491 5.68535 60.8002 5.31418 61.275 5.28451" stroke="#C48D60" stroke-width="3" stroke-linecap="round"/>
<path d="M42.7358 4.69513C43.7124 4.69513 44.6812 4.90792 45.653 4.98536C46.1095 5.02174 46.5673 5.04341 47.0253 5.04341C47.3249 5.04341 47.6169 5.03176 47.9035 4.93625C47.9678 4.91479 48.0658 4.84766 48.1386 4.85736C48.4548 4.89952 48.7811 5.06822 49.0823 5.16397C49.3207 5.23977 49.4994 5.29449 49.7416 5.35448C50.2477 5.47979 50.7529 5.46514 51.2731 5.46313C52.5785 5.45808 53.8895 5.36084 55.1786 5.59411C55.3151 5.6188 55.4567 5.62929 55.5894 5.6715C55.6748 5.69866 55.689 5.57683 55.7159 5.51671C55.7844 5.36392 55.866 5.33811 56.024 5.33811C56.2867 5.33811 56.4256 5.62085 56.6417 5.74741C56.794 5.83658 56.991 5.90143 57.1701 5.88285C57.4093 5.85804 57.5153 5.65076 57.6315 5.47206" stroke="#C48D60" stroke-width="3" stroke-linecap="round"/>
<path d="M65.8563 5.97513C65.845 6.02716 65.8253 6.07734 65.799 6.12491C65.5672 5.87366 65.3727 5.60622 65.3294 5.52267C65.2012 5.27498 65.3699 5.27394 65.5467 5.38276C65.7426 5.50329 65.9083 5.73554 65.8563 5.97513Z" fill="#C48D60"/>
<path d="M57.8727 6.5169C59.056 6.5169 60.2558 6.57827 61.4358 6.48416C62.0278 6.43695 62.6693 6.39466 63.2308 6.18946C63.4914 6.09422 63.5791 6.06049 63.5791 5.80695C63.5791 5.77267 63.5525 5.5822 63.6178 5.5822C63.6376 5.5822 63.6781 5.67751 63.6818 5.68341C63.7736 5.82954 63.8882 5.95843 64.0152 6.07485C64.3429 6.37522 64.7599 6.62209 65.2208 6.53476C65.488 6.48412 65.7953 6.25667 65.8563 5.97513C65.9083 5.73554 65.7426 5.50329 65.5467 5.38276C65.3699 5.27394 65.2012 5.27498 65.3294 5.52267C65.434 5.72469 66.4228 7.00158 66.6853 6.52583C66.8348 6.25488 66.7319 5.91134 66.8208 5.62239C66.8417 5.55452 67.2974 5.57359 67.2494 5.52564" stroke="#C48D60" stroke-width="3" stroke-linecap="round"/>
<path d="M65.9902 6.73122C66.2083 6.73122 66.4552 6.49427 66.6183 6.38294C67.6253 5.69552 68.5834 4.93174 69.5236 4.15633C69.543 4.14037 69.7106 3.96417 69.7528 3.97624C69.7823 3.98465 69.7712 4.1246 69.7737 4.14443C69.8096 4.42876 70.0242 4.672 70.2887 4.76954C70.5406 4.86248 70.7924 4.84112 71.0507 4.89457C71.2095 4.92742 71.8055 5.05303 71.8306 5.27857C71.8474 5.43006 71.7136 5.39811 71.5746 5.42443C71.1982 5.49572 70.8477 5.65603 70.4896 5.78759C70.4042 5.81895 70.3446 5.83914 70.2663 5.87391C70.2426 5.88448 70.2161 5.99684 70.2976 5.93494C70.8141 5.54242 71.5994 5.48565 72.2161 5.40954C72.8593 5.33017 73.7036 5.16194 74.3177 5.45717C74.4939 5.5419 74.6611 5.61172 74.8193 5.73103C74.9008 5.79256 75.4179 6.15814 75.3104 6.29364C75.2663 6.34926 75.2041 6.37527 75.1393 6.40229C74.8542 6.52107 74.5388 6.5837 74.2358 6.63298C73.4368 6.76294 72.6179 6.78619 71.8098 6.78033C71.2554 6.77632 70.7339 6.73578 70.2232 6.51689" stroke="#C48D60" stroke-width="3" stroke-linecap="round"/>
<path d="M75.4473 6.59724C75.543 6.58476 75.6321 6.54052 75.7181 6.49901C76.0459 6.34093 76.3549 6.14399 76.6648 5.95426C77.0631 5.71037 77.4748 5.36807 77.9448 5.27407C78.0361 5.2558 77.9954 5.51417 78.0043 5.57026C78.073 6.00563 78.3975 6.37715 78.8497 6.42459C79.2169 6.4631 79.4417 6.03272 79.6207 5.77417C79.6632 5.71272 79.7039 5.61499 79.7606 5.56431C79.7892 5.53865 79.8628 5.65163 79.8752 5.66403C80.3687 6.15759 80.9087 5.9944 81.4677 5.70421C81.7434 5.56112 82.0045 5.39163 82.2551 5.20859C82.4307 5.08033 82.6025 4.89933 82.7968 4.79928C82.9613 4.71465 83.2873 5.72358 83.3446 5.85007C83.4199 6.01645 83.5283 6.37106 83.7702 6.2698C84.0859 6.13765 84.3139 5.88753 84.6603 5.80989C84.8662 5.76374 85.0891 5.73247 85.2675 5.86794C85.3951 5.96476 85.5479 5.92799 85.7022 5.90068C85.9936 5.84907 86.1792 5.73435 86.4582 5.87389" stroke="#C48D60" stroke-width="3" stroke-linecap="round"/>
<path d="M86.5118 5.6864C87.0809 5.6864 87.6452 5.75301 88.2116 5.79207C88.2733 5.79633 88.476 5.85463 88.5003 5.78165C88.6096 5.45392 88.7531 5.16249 88.9334 4.86481C89.02 4.72191 89.1162 4.53339 89.2549 4.4317C89.4533 4.28624 89.5561 4.87497 89.5779 4.95412C89.7797 5.68831 89.9148 6.44138 89.9931 7.19858C89.9975 7.24024 90.0074 7.35951 90.0229 7.32063C90.1053 7.11475 90.164 6.89493 90.2417 6.68658C90.355 6.38281 90.4723 6.08061 90.6049 5.78463C90.6992 5.57393 90.7963 5.30482 90.9755 5.14761C91.1742 4.97318 91.5223 5.05142 91.7584 5.08361C91.9599 5.11109 92.2147 5.08421 92.3373 5.27263C92.3989 5.36727 92.4375 5.47721 92.5219 5.55542C92.7267 5.74521 92.9554 5.91022 93.1634 6.09719C93.2292 6.15636 93.8085 6.72466 93.9269 6.60621C93.9811 6.552 93.9798 6.4054 93.9924 6.3383C94.0305 6.13538 94.0891 5.93758 94.1308 5.73551C94.1415 5.68375 94.1438 5.56479 94.1859 5.52268C94.1945 5.51406 94.1962 5.69787 94.1948 5.71319C94.183 5.8414 94.1072 6.0815 94.2767 6.12695C94.5115 6.18996 94.7631 6.19542 95.0045 6.19542" stroke="#C48D60" stroke-width="3" stroke-linecap="round"/>
<path d="M104.512 5.70126C104.509 5.71139 104.503 5.72043 104.496 5.72853C104.46 5.70694 104.44 5.6328 104.488 5.6328C104.522 5.6328 104.521 5.67746 104.512 5.70126Z" fill="#C48D60"/>
<path d="M93.3435 6.06145C94.0855 6.076 94.8388 6.34369 95.5835 6.19093C95.9667 6.11234 96.2305 5.78909 96.4721 5.51075C96.7948 5.13886 97.2297 6.64341 97.2713 6.77438C97.3077 6.88873 97.3314 7.05553 97.3889 7.16582C97.4049 7.19656 97.4742 7.01643 97.4752 7.014C97.5682 6.7971 97.6665 6.56184 97.7923 6.3621C97.9057 6.18195 98.0716 6.10583 98.2789 6.07931C98.5641 6.04284 98.8922 6.03526 99.1779 6.07335C99.3285 6.09343 99.6588 6.14812 99.7405 6.30256C99.7781 6.37348 101.227 5.43462 101.409 5.33363C101.565 5.24709 101.709 5.12572 101.762 5.34703C101.864 5.7726 101.96 6.20907 102.104 6.62256C102.137 6.71736 102.255 7.08637 102.414 7.0527C102.487 7.03715 102.554 6.94613 102.598 6.89494C102.733 6.73906 102.849 6.56846 102.976 6.40675C103.114 6.23147 103.271 6.03007 103.482 5.9394C103.716 5.8388 103.994 5.84689 104.243 5.80693C104.315 5.7953 104.481 5.78838 104.512 5.70126C104.521 5.67746 104.522 5.6328 104.488 5.6328C104.433 5.6328 104.467 5.72752 104.511 5.734C104.71 5.76349 104.974 5.68132 105.167 5.63875C105.429 5.58113 105.675 5.47753 105.932 5.40507C106.118 5.35274 106.089 5.44968 106.176 5.59261C106.218 5.6606 106.292 5.84165 106.391 5.84712C106.467 5.85137 106.448 5.76675 106.525 5.76675" stroke="#C48D60" stroke-width="3" stroke-linecap="round"/>
<path d="M107.034 5.79352C107.553 5.48487 108.038 5.12262 108.513 4.75017C108.666 4.63038 108.816 4.50756 108.971 4.39148C109.026 4.3505 109.126 4.24689 109.198 4.23073C109.273 4.21372 109.503 5.27979 109.585 5.40655C109.872 5.84987 110.68 4.67573 110.832 4.4778C110.986 4.2768 111.048 4.27023 111.139 4.48673C111.185 4.59845 111.259 4.98641 111.38 5.03743C111.88 5.24968 112.358 5.53615 112.829 5.80841C112.987 5.89931 113.383 5.94248 113.383 6.1418" stroke="#C48D60" stroke-width="3" stroke-linecap="round"/>
<path d="M107.703 6.19539C107.925 6.20256 108.144 6.26287 108.361 6.30256C109.032 6.42499 109.702 6.5488 110.382 6.60916C110.904 6.65545 111.421 6.758 111.945 6.758C112.74 6.758 113.536 6.70442 114.333 6.70442C114.409 6.70442 115.65 6.64265 115.66 6.73121C115.689 6.97928 116.117 6.73467 116.19 6.69102C116.607 6.44167 116.987 6.07584 117.451 5.91707C117.619 5.85961 117.641 5.86236 117.416 5.81437C116.75 5.67211 116.071 5.59114 115.392 5.54051C114.956 5.50793 114.524 5.46175 114.091 5.39167C114.022 5.38046 113.813 5.36488 113.883 5.36488C113.946 5.36488 113.963 5.32351 114.004 5.28302C114.181 5.10602 114.518 5.13322 114.743 5.12972C115.506 5.11787 116.261 5.26498 116.977 5.52265C117.323 5.64679 117.654 5.80537 118 5.92749C118.208 6.00076 118.495 6.01529 118.701 5.93344C118.96 5.83054 119.13 5.59995 119.271 5.37084C119.372 5.20765 119.462 5.0108 119.637 4.91391C119.84 4.80208 119.963 5.18959 119.994 5.33214C120.034 5.50835 120.093 5.26317 120.167 5.17735C120.33 4.98942 120.671 4.97556 120.89 5.0553C121.09 5.12782 121.506 5.30143 121.581 5.52563" stroke="#C48D60" stroke-width="3" stroke-linecap="round"/>
<path d="M127.286 5.55138C127.554 5.3182 127.964 4.90188 128.299 5.2369C128.384 5.321 128.452 5.43508 128.492 5.55091C128.498 5.56928 128.503 5.58768 128.508 5.60602C128.548 5.7655 128.452 5.793 128.305 5.81439C127.837 5.88263 127.355 5.89747 126.88 5.90018C126.809 5.90058 126.739 5.90071 126.668 5.90071C126.423 5.90071 126.174 5.90223 125.93 5.86946L125.922 5.86842C125.81 5.85335 125.631 5.82937 125.558 5.72806C125.461 5.59323 126.361 5.5698 126.387 5.56881C126.686 5.55744 126.986 5.5529 127.286 5.55138Z" fill="#C48D60"/>
<path d="M119.411 5.3649C119.986 5.39364 120.522 5.87147 121 6.15076C121.295 6.32255 121.454 6.29145 121.688 6.07337C121.907 5.86972 122.276 5.86698 122.533 5.98704C122.632 6.03283 122.732 6.10676 122.846 6.10313C123.043 6.09689 123.21 5.79207 123.307 5.65811C123.449 5.46321 123.582 5.26391 123.733 5.07616C123.737 5.0717 123.845 4.92765 123.857 4.97941C123.929 5.30395 124.012 5.63479 124.059 5.96471C124.082 6.12282 124.063 6.2222 124.239 6.2222C124.6 6.2222 124.962 6.2222 125.323 6.2222C125.631 6.2222 125.945 6.24899 126.248 6.24899C126.334 6.24899 126.413 6.25483 126.487 6.20434C126.762 6.01602 127.01 5.7861 127.264 5.5703C127.531 5.34181 127.955 4.89261 128.299 5.2369C128.397 5.33434 128.474 5.472 128.508 5.60602C128.548 5.7655 128.452 5.793 128.305 5.81439C127.768 5.89282 127.21 5.90071 126.668 5.90071C126.423 5.90071 126.174 5.90223 125.93 5.86946C125.818 5.85442 125.633 5.83173 125.558 5.72806C125.461 5.59323 126.361 5.5698 126.387 5.56881C127.068 5.54292 127.751 5.55243 128.433 5.55243C128.672 5.55243 129.068 5.45817 129.258 5.64769C129.656 6.04618 130.102 6.24899 130.663 6.24899" stroke="#C48D60" stroke-width="3" stroke-linecap="round"/>
<path d="M129.752 5.68635C130.798 5.68635 131.85 5.64975 132.894 5.70124C133.049 5.70887 133.203 5.72201 133.357 5.73993C133.43 5.74841 133.536 5.7812 133.61 5.76077C133.702 5.73546 133.768 5.48331 133.809 5.40803C134.032 5.00771 134.28 5.37162 134.429 5.65361C134.505 5.79953 134.516 5.96552 134.588 6.10905C134.623 6.17966 134.853 5.72398 134.875 5.68635C134.924 5.60372 135.337 4.75292 135.472 5.03296C135.587 5.27178 135.621 5.42827 135.915 5.44375C136.051 5.45088 136.289 5.37253 136.289 5.55835C136.289 5.76028 136.254 5.83677 136.477 5.87389" stroke="#C48D60" stroke-width="3" stroke-linecap="round"/>
<path d="M140.817 5.99299C140.798 6.08138 140.772 6.16824 140.741 6.25309C140.332 6.02684 139.932 5.78774 139.536 5.56713C139.343 5.57525 139.15 5.57123 138.974 5.52862C138.747 5.47354 138.566 5.289 138.411 5.12378C138.352 5.05983 138.296 4.99269 138.236 4.9288C138.212 4.90283 138.132 4.85222 138.167 4.84694C138.224 4.83843 138.436 4.97316 138.453 4.98239C138.756 5.14189 139.057 5.30566 139.358 5.46908C139.417 5.50128 139.477 5.534 139.536 5.56713C139.748 5.55826 139.961 5.5349 140.156 5.5316C141.829 5.50324 143.556 5.64411 145.178 6.07039C145.389 6.12599 145.301 6.10037 145.164 6.08825C144.919 6.06641 144.674 6.0589 144.427 6.06294C144.041 6.06927 143.65 6.0927 143.277 6.19839C143.048 6.26336 142.851 6.37968 142.634 6.47076C142.465 6.54157 142.273 6.4281 142.104 6.41122C141.954 6.3962 141.856 6.55968 141.698 6.56601C141.355 6.57973 140.861 6.28284 140.843 5.90667C140.839 5.80216 140.822 5.96853 140.817 5.99299Z" fill="#C48D60"/>
<path d="M136.932 5.57922C137.656 5.57922 138.374 6.10295 138.992 6.41271C139.444 6.63939 140.299 7.14226 140.629 6.50499C140.713 6.3431 140.778 6.17116 140.817 5.99299C140.822 5.96853 140.839 5.80216 140.843 5.90667C140.861 6.28284 141.355 6.57973 141.698 6.56601C141.856 6.55968 141.954 6.3962 142.104 6.41122C142.273 6.4281 142.465 6.54157 142.634 6.47076C142.851 6.37968 143.048 6.26336 143.277 6.19839C143.65 6.0927 144.041 6.06927 144.427 6.06294C144.674 6.0589 144.919 6.06641 145.164 6.08825C145.301 6.10037 145.389 6.12599 145.178 6.07039C143.556 5.64411 141.829 5.50324 140.156 5.5316C139.783 5.53792 139.343 5.6178 138.974 5.52862C138.747 5.47354 138.566 5.289 138.411 5.12378C138.352 5.05983 138.296 4.99269 138.236 4.9288C138.212 4.90283 138.132 4.85222 138.167 4.84694C138.224 4.83843 138.436 4.97316 138.453 4.98239C138.756 5.14189 139.057 5.30566 139.358 5.46908C140.66 6.17605 142.001 7.13548 143.528 7.22239C143.844 7.24033 144.145 7.19143 144.453 7.1316C144.84 7.05642 145.243 7.00937 145.615 6.8756C145.874 6.78257 146.125 6.66328 146.368 6.53476C146.387 6.52464 146.517 6.47045 146.525 6.42015C146.536 6.34383 146.578 6.27291 146.605 6.20136C146.695 5.95895 146.78 5.63832 147.102 5.70276C147.252 5.73273 147.394 5.79156 147.537 5.84415C147.581 5.86052 147.622 5.87141 147.669 5.87392C148.136 5.89873 148.602 5.92686 149.068 5.95429" stroke="#C48D60" stroke-width="3" stroke-linecap="round"/>
<path d="M151.515 7.07203C151.957 7.01067 152.377 6.86057 152.784 6.68256C152.756 6.67688 152.727 6.67126 152.698 6.6657C151.742 6.48071 150.756 6.37122 149.781 6.42608C149.516 6.44099 149.149 6.44917 148.925 6.62403C148.79 6.73026 149.147 6.70423 149.172 6.7044C149.537 6.70692 149.914 6.71859 150.256 6.85622C150.439 6.92996 150.606 7.0324 150.802 7.07203C151.035 7.11914 151.281 7.10452 151.515 7.07203Z" fill="#C48D60"/>
<path d="M148.854 6.08822C149.019 5.93904 149.192 5.80945 149.347 5.64617C149.459 5.52693 149.561 5.40162 149.652 5.26515C149.683 5.21754 149.714 5.14582 149.765 5.11333C149.827 5.07362 149.946 5.09683 150.012 5.10291C150.22 5.12221 150.412 5.1926 150.616 5.22496C150.763 5.24822 150.797 5.12958 150.961 5.22496C151.293 5.4179 151.497 5.75887 151.899 5.79947C152.019 5.81158 152.248 5.79088 152.301 5.92003C152.389 6.13586 152.566 6.34645 152.779 6.44394C153.03 6.55916 153.219 6.46622 153.435 6.31743C153.732 6.11245 153.996 5.8562 154.307 5.67147C154.504 5.55494 154.696 5.6145 154.894 5.68636C154.976 5.71617 154.894 5.75736 154.852 5.77268C154.366 5.94839 153.895 6.15999 153.429 6.38291C152.818 6.67506 152.193 6.97791 151.515 7.07203C151.281 7.10452 151.035 7.11914 150.802 7.07203C150.606 7.0324 150.439 6.92996 150.256 6.85622C149.914 6.71859 149.537 6.70692 149.172 6.7044C149.147 6.70423 148.79 6.73026 148.925 6.62403C149.149 6.44917 149.516 6.44099 149.781 6.42608C150.756 6.37122 151.742 6.48071 152.698 6.6657C153.381 6.7978 154.061 6.96923 154.757 7.01994C155.111 7.04575 155.623 7.06342 155.825 6.71929C156.018 6.39067 156.167 6.04335 156.324 5.69677C156.349 5.64115 156.508 5.12673 156.583 5.12673C156.646 5.12673 156.759 5.42068 156.79 5.46608C156.912 5.64604 157.045 5.84515 157.227 5.96915C157.41 6.09336 157.283 5.88874 157.376 5.87538C157.463 5.86303 157.612 5.86467 157.534 5.98105" stroke="#C48D60" stroke-width="3" stroke-linecap="round"/>
<path d="M161.511 5.10515C161.467 4.90392 161.395 4.57807 161.395 4.7189C161.395 4.84709 161.442 4.9787 161.511 5.10515Z" fill="#C48D60"/>
<path d="M158.016 5.73992C158.126 5.81984 158.393 5.76671 158.516 5.76671C158.916 5.76671 159.347 5.722 159.719 5.89471C159.793 5.92934 160.026 6.11754 160.112 6.03164C160.207 5.93636 160.266 5.78302 160.332 5.66848C160.445 5.4725 160.562 5.27879 160.683 5.08801C160.752 4.981 160.927 4.62393 161.103 4.77248C161.274 4.91649 161.393 5.15008 161.52 5.33211C161.644 5.50919 161.556 5.30288 161.532 5.19815C161.495 5.03617 161.395 4.55275 161.395 4.7189C161.395 5.04785 161.705 5.39933 161.902 5.62829C162.158 5.92514 162.448 6.18633 162.845 6.25788C162.986 6.28334 163.069 6.24731 163.199 6.22364C163.254 6.21352 163.237 6.26613 163.242 6.30253C163.262 6.44057 163.46 6.49711 163.575 6.48857C163.715 6.47821 163.783 6.34442 163.854 6.23853C163.901 6.16819 163.937 6.10142 163.937 6.22215" stroke="#C48D60" stroke-width="3" stroke-linecap="round"/>
<path d="M163.857 6.06142C164.059 6.06142 164.263 6.03863 164.462 6.00338C164.786 5.94604 165.248 5.84736 165.458 5.56431C165.549 5.44222 165.544 5.29269 165.598 5.15649C165.663 4.99407 165.807 5.28809 165.842 5.3351C166.057 5.62456 166.305 5.90395 166.571 6.14775C166.705 6.27 166.796 6.31997 166.889 6.14626C167.153 5.65042 167.704 4.96002 168.353 5.24728C168.645 5.37655 168.908 5.66889 169.155 5.86198C169.298 5.9739 169.559 6.17019 169.751 6.04952C169.839 5.994 169.855 5.90319 169.971 5.90068C170.151 5.89676 170.437 5.82409 170.514 6.02124C170.535 6.07319 170.542 6.16844 170.612 6.12245C170.847 5.96998 171.043 5.78883 171.3 5.66403C171.397 5.61688 171.84 5.39005 171.84 5.61194C171.84 5.72456 171.84 5.83718 171.84 5.9498C171.84 6.10529 171.868 5.99617 171.94 5.90812C172.078 5.74089 172.194 5.5272 172.37 5.39761C172.563 5.25633 172.773 5.50025 172.924 5.60598C173.164 5.77388 173.434 6.01764 173.737 6.05547C173.888 6.07438 173.908 5.97301 173.924 5.84114C173.95 5.62844 173.975 5.44958 174.091 5.26217C174.26 4.98658 174.343 5.08225 174.455 5.35147C174.605 5.70937 174.701 6.09505 174.878 6.44096C174.972 6.62523 175.005 6.50135 175.086 6.36059C175.254 6.06912 175.492 5.44528 175.913 5.52561C176.198 5.58009 176.45 5.65956 176.743 5.65956" stroke="#C48D60" stroke-width="3" stroke-linecap="round"/>
<path d="M180.602 6.3308C180.672 6.29593 180.682 6.11505 180.68 6.00381C180.675 6.01654 180.671 6.02929 180.666 6.04206C180.635 6.13541 180.514 6.37489 180.602 6.3308Z" fill="#C48D60"/>
<path d="M175.859 6.11499C176.435 6.11499 177.006 6.13748 177.579 6.19834C178.047 6.24791 178.514 6.31668 178.984 6.33527C179.235 6.34518 179.559 6.35962 179.779 6.21024C179.947 6.09636 179.967 5.85113 180.133 5.74438C180.223 5.68695 180.342 5.72369 180.428 5.68038C180.461 5.66391 180.451 5.55237 180.509 5.58364C180.612 5.64014 180.663 5.82766 180.675 5.93341C180.684 6.00729 180.691 6.28656 180.602 6.3308C180.514 6.37489 180.635 6.13541 180.666 6.04206C180.783 5.69894 180.948 5.37092 181.119 5.05229C181.206 4.88936 181.344 4.49508 181.595 4.62066C181.826 4.73631 182.016 4.974 182.208 5.14457C182.34 5.26148 182.432 5.362 182.461 5.54048C182.481 5.66428 182.431 5.86553 182.506 5.9721C182.659 6.18993 182.871 6.46866 183.092 6.62104C183.215 6.7055 183.283 6.71011 183.414 6.64485C183.56 6.57187 183.661 6.51685 183.831 6.51685C183.977 6.51685 184.124 6.51685 184.271 6.51685" stroke="#C48D60" stroke-width="3" stroke-linecap="round"/>
<path d="M187.136 5.25623C187.133 5.28629 187.122 5.30963 187.106 5.32807C187.155 5.64956 187.278 6.01856 187.438 6.26981C187.593 6.51073 187.895 6.55022 188.144 6.4246C188.429 6.28071 188.615 5.94979 188.75 5.62328C188.607 5.48271 188.292 5.16676 188.352 5.15055C188.516 5.10627 188.723 5.14552 188.909 5.18838C188.91 5.18368 188.912 5.17901 188.913 5.17437C188.944 5.08484 188.968 4.82018 189.007 4.90646C189.041 4.98099 189.03 5.10714 189.021 5.21485C189.017 5.26121 189.013 5.30415 189.013 5.33809C189.013 5.51052 189.018 5.68365 189.013 5.85604C189.01 5.9919 188.851 5.72483 188.814 5.68637C188.806 5.6781 188.782 5.65522 188.75 5.62328C188.615 5.94979 188.429 6.28071 188.144 6.4246C187.895 6.55022 187.593 6.51073 187.438 6.26981C187.278 6.01856 187.155 5.64956 187.106 5.32807C187.096 5.26518 187.089 5.2041 187.086 5.14609C187.076 4.99548 187.141 5.20698 187.136 5.25623Z" fill="#C48D60"/>
<path d="M183.307 6.27576C184.174 6.00326 185.073 5.80164 185.959 5.60302C186.275 5.53221 186.593 5.47438 186.91 5.40655C187.001 5.38714 187.125 5.3688 187.136 5.25623C187.141 5.20698 187.076 4.99548 187.086 5.14609C187.108 5.50068 187.246 5.96942 187.438 6.26981C187.593 6.51073 187.895 6.55022 188.144 6.4246C188.567 6.21113 188.773 5.58601 188.913 5.17437C188.944 5.08484 188.968 4.82018 189.007 4.90646C189.055 5.01306 189.013 5.22529 189.013 5.33809C189.013 5.51052 189.018 5.68365 189.013 5.85604C189.01 5.9919 188.851 5.72483 188.814 5.68637C188.77 5.64171 188.279 5.17045 188.352 5.15055C188.582 5.08835 188.898 5.19097 189.119 5.23688C189.558 5.32826 189.99 5.45181 190.424 5.56283C190.599 5.60748 190.813 5.68637 190.996 5.68637C191.104 5.68637 191.205 5.74374 191.299 5.79055C191.758 6.01754 192.208 6.26345 192.669 6.48711C192.903 6.60113 193.143 6.70842 193.384 6.80711C193.442 6.83058 193.535 6.88289 193.6 6.85325C193.709 6.80356 193.761 6.63662 193.812 6.54069C193.907 6.36082 194.01 6.16075 194.155 6.0153C194.454 5.71663 194.616 6.45188 194.853 6.57046" stroke="#C48D60" stroke-width="3" stroke-linecap="round"/>
<path d="M196.97 6.7848C196.784 6.77242 196.597 6.74345 196.413 6.71335C195.839 6.61903 195.257 6.54147 194.687 6.42461C194.543 6.3952 194.12 6.33026 194.264 6.30405C194.331 6.29196 194.419 6.30256 194.484 6.30256C194.82 6.30256 195.155 6.30256 195.491 6.30256C196.067 6.30256 196.669 6.25177 197.244 6.30405C197.441 6.32199 197.633 6.41446 197.824 6.46182C198.072 6.52334 198.457 6.67058 198.661 6.45438C198.92 6.17977 199.126 5.85866 199.322 5.53754C199.475 5.28571 199.596 4.96668 199.792 4.74424C199.851 4.67676 199.904 4.9975 199.91 5.01512C200.009 5.35006 200.136 5.68887 200.286 6.00489C200.317 6.0699 200.408 6.27753 200.512 6.25791C200.686 6.22533 200.869 5.96398 200.987 5.8501C201.14 5.70257 201.307 5.54892 201.524 5.51075C201.722 5.47599 201.938 5.49884 202.138 5.49884C203.087 5.49884 204.02 5.62061 204.905 5.99149C205.069 6.0605 205.092 5.97457 205.222 5.84712C205.42 5.65164 205.663 5.52887 205.876 5.35447C205.999 5.25446 205.939 5.53801 205.951 5.60601C205.985 5.80634 206.223 5.64801 206.347 5.62089C206.503 5.58677 206.578 5.63134 206.609 5.79354C206.617 5.837 206.662 6.14809 206.695 6.11503" stroke="#C48D60" stroke-width="3" stroke-linecap="round"/>
<path d="M215.319 5.30754C215.362 5.29591 215.398 5.33842 215.319 5.30754Z" fill="#C48D60"/>
<path d="M206.99 5.73997C207.335 5.77002 207.692 6.02562 207.993 6.17309C208.64 6.48997 209.388 6.91087 210.136 6.83988C210.646 6.79148 211.1 6.45893 211.44 6.09272C211.557 5.96633 211.632 5.78887 211.751 5.67002C211.894 5.52716 212.094 5.40907 212.265 5.30239C212.383 5.22866 212.498 5.20974 212.617 5.289C212.742 5.37188 212.794 5.52488 212.924 5.60155C213.018 5.6575 213.128 5.64169 213.229 5.66555C213.382 5.70153 213.411 6.2011 213.452 6.32937C213.502 6.48398 213.64 7.027 213.848 7.06165C214.018 7.08994 214.199 6.58175 214.256 6.4782C214.467 6.09169 214.721 5.7078 214.881 5.29644C214.922 5.19075 214.965 4.85593 214.973 4.969C214.985 5.11714 215.136 5.21741 215.256 5.27858C215.469 5.38686 215.314 5.22746 215.268 5.3649" stroke="#C48D60" stroke-width="3" stroke-linecap="round"/>
<path d="M214.973 5.92747C215.553 6.19327 216.102 6.55583 216.722 6.72226C216.989 6.79388 217.312 6.86917 217.587 6.79371C217.842 6.72384 218.016 6.48179 218.15 6.2698C218.384 5.89748 218.475 5.46881 218.669 5.08059C218.717 4.98558 218.738 5.28243 218.787 5.37678C218.939 5.67178 219.188 5.96455 219.468 6.14478C219.638 6.2536 220.104 6.44543 220.208 6.15668C220.25 6.04062 220.206 5.95914 220.37 5.98701C220.69 6.04134 220.68 6.20541 220.68 6.49008" stroke="#C48D60" stroke-width="3" stroke-linecap="round"/>
<path d="M222.448 5.68943C222.425 6.08109 222.493 6.48446 222.394 6.86815C222.356 7.01814 222.313 6.70413 222.313 6.69996C222.26 6.40114 222.226 6.09918 222.147 5.80545C222.126 5.7256 222.1 5.61703 222.06 5.51126C221.943 5.45752 221.825 5.40262 221.711 5.34257C221.667 5.31905 221.644 5.30639 221.644 5.25773C221.644 5.19395 221.628 5.14786 221.704 5.15057C221.888 5.15714 221.993 5.33011 222.06 5.51126C222.19 5.57028 222.32 5.6279 222.448 5.68943Z" fill="#C48D60"/>
<path d="M236.031 6.75801C235.075 6.75801 234.127 6.46087 233.2 6.26387C232.677 6.15281 232.152 6.08651 231.616 6.09717C231.258 6.10431 230.889 6.14785 230.664 6.46033C230.499 6.68871 230.438 6.97325 230.338 7.23131C230.309 7.30688 230.22 7.5831 230.104 7.57959C229.954 7.57504 229.768 7.19092 229.696 7.09736C229.437 6.75758 229.136 6.45295 228.777 6.21922C228.489 6.03229 227.892 5.72879 227.55 5.98703C227.466 6.05052 227.447 6.17199 227.342 6.13587C226.995 6.01737 226.632 5.93433 226.279 5.8367C225.511 5.62399 224.739 5.40684 223.951 5.27559C223.571 5.21221 223.121 5.12568 222.734 5.19819C222.549 5.23281 222.481 5.37577 222.46 5.54945C222.407 5.98433 222.505 6.43857 222.394 6.86815C222.356 7.01814 222.313 6.70413 222.313 6.69996C222.26 6.40114 222.226 6.09918 222.147 5.80545C222.089 5.58885 221.995 5.16098 221.704 5.15057C221.628 5.14786 221.644 5.19395 221.644 5.25773C221.644 5.30639 221.667 5.31905 221.711 5.34257C221.957 5.47173 222.216 5.57704 222.466 5.69829C223.096 6.00462 223.715 6.33076 224.338 6.65084C224.444 6.70498 224.566 6.82445 224.678 6.85922C224.858 6.91526 225.129 6.86517 225.315 6.86517" stroke="#C48D60" stroke-width="3" stroke-linecap="round"/>
<path d="M235.763 6.11503C236.072 6.22216 236.415 6.11642 236.73 6.07336C237.461 5.97353 238.201 5.90071 238.939 5.90071C239.109 5.90071 239.137 5.93149 239.139 6.1061C239.141 6.3118 239.098 6.68627 239.305 6.82052C239.575 6.99474 239.994 6.39528 240.127 6.24154C240.322 6.01645 240.504 5.82033 240.814 5.82033C241.405 5.82033 241.997 6.09184 242.52 6.32936C242.788 6.451 243.086 6.58791 243.238 6.85326C243.306 6.97279 243.493 6.40046 243.517 6.35019C243.596 6.1857 243.767 5.68527 243.992 5.65215C244.126 5.63247 244.277 5.73714 244.39 5.79354C244.548 5.87267 244.713 5.95027 244.852 6.06145C244.975 6.15932 245.052 6.28152 245.193 6.35615C245.278 6.40075 245.348 6.47625 245.408 6.54964C245.641 6.83434 245.713 6.58644 245.97 6.4901" stroke="#C48D60" stroke-width="3" stroke-linecap="round"/>
<path d="M245.917 6.03462C246.679 6.03462 247.436 6.05677 248.194 6.14178C248.606 6.18803 249.027 6.25117 249.444 6.2162C249.636 6.20005 249.666 6.08468 249.724 5.92448C249.773 5.78858 249.962 5.33542 250.138 5.5881C250.285 5.80045 250.395 5.97822 250.623 6.12243C250.951 6.33098 251.354 6.40324 251.739 6.37099C251.939 6.35426 252.094 6.28028 252.275 6.20727C252.328 6.18572 252.345 6.1986 252.346 6.2549C252.351 6.44086 252.345 6.57701 252.586 6.49899C252.677 6.46961 252.768 6.38807 252.827 6.31443C252.863 6.26935 252.91 6.15792 252.974 6.14624C253.027 6.13672 253.11 6.28914 253.123 6.32931" stroke="#C48D60" stroke-width="3" stroke-linecap="round"/>
<path d="M253.498 5.52561C253.639 5.52561 253.778 5.56459 253.912 5.60301C254.62 5.80569 255.303 6.10756 255.982 6.38887C256.152 6.45902 256.626 6.75062 256.829 6.63296C256.874 6.60679 256.89 6.52113 256.907 6.47966C256.979 6.29598 257.064 6.11655 257.145 5.9364C257.276 5.64239 257.411 5.29254 257.618 5.0404C257.719 4.91754 257.851 5.30139 257.886 5.35892C258.178 5.83486 258.643 6.51802 259.294 6.39333C259.449 6.3636 259.513 6.29198 259.666 6.32338C259.948 6.38099 260.229 6.34687 260.506 6.27575C260.868 6.18265 261.198 6.32028 261.556 6.40375C261.796 6.45959 262.014 6.49008 262.259 6.49008" stroke="#C48D60" stroke-width="3" stroke-linecap="round"/>
<path d="M262.956 6.27579C263.946 6.27579 264.936 6.27579 265.926 6.27579C266.165 6.27579 266.52 6.32663 266.715 6.14481C266.784 6.08067 266.765 6.21979 266.778 6.26835C266.828 6.45607 266.967 6.62235 267.135 6.71932C267.39 6.86647 267.566 6.58156 267.724 6.42165C267.819 6.32573 267.946 6.13781 268.099 6.14183C268.236 6.14542 268.366 6.28893 268.48 6.35021C268.602 6.41532 268.775 6.46841 268.873 6.3383C268.927 6.26737 268.933 5.96671 269.021 5.98556C269.166 6.01675 269.308 6.08988 269.442 6.15076C269.768 6.29878 270.091 6.45405 270.42 6.59579C270.938 6.81886 271.463 7.03427 272.015 7.1569C272.113 7.17868 272.259 7.22274 272.306 7.10035C272.385 6.89347 272.398 6.67667 272.499 6.46928C272.605 6.25026 272.771 6.11083 272.975 5.98704C273.149 5.88188 273.163 5.95445 273.243 6.11504" stroke="#C48D60" stroke-width="3" stroke-linecap="round"/>
<path d="M273.618 6.11501C273.868 5.90907 274.181 5.76674 274.458 5.60301C275.052 5.25156 275.626 4.8246 276.259 4.54329C276.329 4.51187 276.562 4.3782 276.646 4.44804C276.792 4.56991 276.781 4.96397 276.8 5.12971C276.834 5.40992 276.858 5.69281 276.86 5.97511C276.86 6.05973 276.812 6.35172 276.966 6.20134C277.355 5.82059 277.636 5.28339 277.928 4.82906C277.95 4.79597 278.271 4.31134 278.292 4.41827C278.341 4.67227 278.33 4.91944 278.415 5.1699C278.461 5.30473 278.543 5.62343 278.735 5.62087C278.942 5.61812 279.162 5.3791 279.298 5.25176C279.459 5.10054 279.622 4.83436 279.829 4.74125C279.906 4.70658 279.95 4.86768 279.969 4.91241C280.035 5.06524 280.133 5.18634 280.241 5.31129C280.31 5.39055 280.445 5.49883 280.557 5.49883" stroke="#C48D60" stroke-width="3" stroke-linecap="round"/>
<path d="M277.503 5.79351C277.345 5.79351 277.189 5.74917 277.037 5.71016C276.262 5.5111 275.498 5.27165 274.722 5.07313C273.666 4.80269 272.582 4.53894 271.487 4.53434C271.003 4.53231 270.513 4.50866 270.034 4.58197C269.721 4.62981 269.406 4.68365 269.096 4.74867C268.816 4.80763 268.494 4.87696 268.206 4.84988C267.971 4.82767 267.746 4.73051 267.51 4.70104C267.382 4.68502 267.258 4.70935 267.135 4.6683" stroke="#C48D60" stroke-width="3" stroke-linecap="round"/>
<path d="M280.181 5.26302C280.826 5.26302 281.451 5.43083 282.043 5.67759C282.72 5.95958 283.42 6.40339 284.178 6.38235C284.703 6.36775 284.819 5.77998 284.995 5.38739C285.246 4.82668 285.413 5.28546 285.683 5.6154C286.219 6.27038 286.805 6.96141 287.403 7.55973C287.815 7.97152 288.069 6.99893 288.241 6.71401C288.517 6.25552 288.693 6.02742 289.19 6.36992C289.919 6.87241 290.475 7.72668 291.325 8.04892C291.605 8.15519 291.753 7.80018 292.071 7.80018C293.657 7.80018 295.461 7.56983 296.996 8.04063C297.219 8.10878 297.682 8.46348 297.904 8.46348C297.991 8.46348 298.111 8.34584 298.182 8.30595C298.425 8.16858 298.681 8.12273 298.949 8.05721C299.457 7.9331 299.926 7.69903 300.329 7.36903C300.559 7.18122 300.844 6.84121 301.167 6.83009C301.454 6.8202 301.707 6.85042 301.971 6.71815C302.242 6.58269 302.405 6.59944 302.684 6.7223C303.023 6.87126 303.308 7.08456 303.671 7.18662C304.263 7.35307 305.021 7.18447 305.636 7.2488C306.675 7.35754 307.689 7.59916 308.704 7.78359C308.748 7.79173 309.147 7.85873 309.052 7.69239C309.005 7.61001 308.729 7.64444 308.654 7.63435C308.238 7.57821 307.828 7.45662 307.423 7.35244C306.624 7.14703 305.85 6.83594 305.039 6.68084C303.228 6.33457 301.345 6.36027 299.517 6.10045C298.86 6.00705 298.228 5.96709 297.568 5.93047C296.866 5.89146 296.646 5.33087 296.151 4.93137C295.754 4.61219 295.514 4.47542 295.023 4.608C293.823 4.93199 292.642 5.18883 291.424 5.42885C290.7 5.57169 290.237 5.90364 289.546 5.67344C288.888 5.45404 288.223 5.35891 287.569 5.11378" stroke="#C48D60" stroke-width="3" stroke-linecap="round"/>
<path d="M296.3 7.20316C296.3 6.46829 295.516 6.24287 294.898 6.23307C294.491 6.2266 294.434 6.2048 294.434 5.82264C294.434 5.43978 300.775 6.01252 301.221 6.05895C303.499 6.29667 305.698 6.7917 307.874 7.50164C309.01 7.8721 310.051 8.29191 311.257 8.23128C312.32 8.17786 313.4 8.10061 314.441 7.87476C314.779 7.80147 315.274 7.73572 315.552 7.50164C315.682 7.392 315.625 7.69457 315.631 7.77111C315.667 8.2632 316.093 8.60424 316.531 8.76193C317.146 8.98355 317.744 8.81578 318.28 8.47173C318.622 8.25197 318.897 7.85123 319.242 7.66333C319.495 7.52537 319.403 8.05854 319.748 7.91621C319.905 7.85113 321.136 7.19949 321.116 6.99587C321.103 6.86568 320.155 6.76011 320.104 6.75128C318.772 6.52217 317.473 6.3076 316.203 5.82679C314.857 5.31721 313.791 5.11795 312.418 5.55732C311.002 6.01042 309.355 5.46463 307.999 5.12202C307.567 5.01286 300.224 2.83192 300.18 3.09893C300.163 3.20094 300.221 3.3478 300.139 3.43059C299.974 3.59512 299.27 3.47579 299.065 3.4679C298.837 3.45912 297.705 3.15412 297.796 3.65445C297.832 3.85164 298.063 3.91978 298.24 3.91978" stroke="#C48D60" stroke-width="3" stroke-linecap="round"/>
<path d="M335.103 6.58961C334.575 7.23476 334.033 6.58799 333.589 5.9264C331.679 6.11791 329.844 6.67674 328.005 7.22243C326.582 7.64468 325.157 8.05906 323.694 8.28934C322.853 8.42186 321.973 8.53999 321.124 8.39713C320.904 8.36018 320.578 8.3401 320.515 8.0862C320.447 7.81735 320.477 7.52349 320.477 7.24878C320.477 6.8012 320.75 6.90993 321.141 6.8881C322.138 6.83231 323.136 6.80643 324.134 6.75544C325.196 6.70113 326.271 6.58048 327.293 6.942C327.534 7.02727 327.769 7.12611 328.005 7.22243C329.844 6.67674 331.679 6.11791 333.589 5.9264C333.829 5.90237 334.069 5.88412 334.311 5.87241C334.417 5.8673 335.671 5.76844 335.534 5.96776C335.393 6.17434 335.262 6.39564 335.103 6.58961Z" fill="#C48D60"/>
<path d="M314.657 6.08384C316.949 6.08384 319.165 5.06623 321.464 5.27958C322.581 5.38323 323.722 5.72875 324.83 5.37078C325.186 5.25599 325.51 5.10131 325.842 4.93549C326.042 4.83554 326.26 5.11116 326.406 5.22154C326.698 5.44259 326.978 5.68096 327.309 5.84339C327.748 6.05865 328.306 5.69245 328.719 5.55734C329.642 5.2557 330.602 4.98566 331.567 4.86501C331.959 4.81595 332.576 4.72644 332.923 4.99767C333.381 5.35643 334.26 7.61965 335.103 6.58961C335.262 6.39564 335.393 6.17434 335.534 5.96776C335.671 5.76844 334.417 5.8673 334.311 5.87241C330.647 6.04973 327.284 7.72413 323.694 8.28934C322.853 8.42186 321.973 8.53999 321.124 8.39713C320.904 8.36018 320.578 8.3401 320.515 8.0862C320.447 7.81735 320.477 7.52349 320.477 7.24878C320.477 6.8012 320.75 6.90993 321.141 6.8881C322.138 6.83231 323.136 6.80643 324.134 6.75544C325.196 6.70113 326.271 6.58048 327.293 6.942C328.078 7.21967 328.805 7.64124 329.656 7.65091C330.319 7.65844 331.023 7.71606 331.679 7.6136C332.609 7.46819 333.633 7.80015 334.581 7.80015" stroke="#C48D60" stroke-width="3" stroke-linecap="round"/>
<path d="M341.192 5.94536C344.443 6.03017 347.706 6.47092 350.945 6.72882C350.955 6.71445 350.964 6.70116 350.973 6.68913C351.485 5.99105 351.912 5.24204 352.374 4.51425C352.498 4.31966 352.624 4.12658 352.756 3.9364C352.886 3.74719 352.963 4.01606 353.071 4.11467C353.233 4.26445 353.416 4.39514 353.611 4.50919C354.395 4.51233 355.179 4.53555 355.956 4.62459C357.883 4.84532 359.668 5.58334 361.542 6.00015C361.852 6.00414 362.159 6.00548 362.448 6.08801C362.712 6.16344 362.196 6.13056 362.166 6.12532C361.957 6.08827 361.749 6.04617 361.542 6.00015C361.212 5.99589 360.88 5.98861 360.566 5.87658C360.32 5.7888 360.095 5.78007 359.832 5.74807C359.173 5.66768 358.537 5.59647 357.88 5.48689C357.567 5.43481 357.186 5.27407 356.876 5.26302C356.41 5.24638 355.967 5.2278 355.504 5.14694C354.877 5.03741 354.188 4.84575 353.611 4.50919C353.199 4.50754 352.786 4.51145 352.374 4.51425C351.912 5.24204 351.485 5.99105 350.973 6.68913C350.964 6.70116 350.955 6.71445 350.945 6.72882C350.79 6.96215 350.536 7.47889 350.231 7.45194C349.974 7.42932 349.727 7.36716 349.468 7.35659C348.597 7.32103 347.732 7.34889 346.86 7.27782C344.91 7.11874 343.016 6.64012 341.192 5.94536C341.011 5.94065 340.831 5.93704 340.65 5.93462C338.797 5.90975 337.015 5.32749 335.165 5.15938C334.7 5.11706 333.822 4.94985 333.333 5.15066C333.206 5.23557 333.027 5.31389 333.254 5.1884C333.279 5.17458 333.306 5.16203 333.333 5.15066C333.361 5.1325 333.386 5.11403 333.404 5.09719C335.565 3.07373 338.465 4.84609 340.679 5.74392C340.849 5.81292 341.02 5.88009 341.192 5.94536Z" fill="#C48D60"/>
<path d="M363.087 7.27782C359.129 7.27782 355.18 7.05178 351.234 6.75132C347.72 6.48374 344.177 5.98197 340.65 5.93462C338.797 5.90975 337.015 5.32749 335.165 5.15938C334.674 5.11466 333.722 4.93051 333.254 5.1884C332.978 5.34074 333.301 5.19272 333.404 5.09719C335.565 3.07373 338.465 4.84609 340.679 5.74392C342.661 6.54737 344.726 7.10379 346.86 7.27782C347.732 7.34889 348.597 7.32103 349.468 7.35659C349.727 7.36716 349.974 7.42932 350.231 7.45194C350.555 7.48055 350.821 6.89645 350.973 6.68913C351.622 5.8044 352.134 4.83787 352.756 3.9364C352.886 3.74719 352.963 4.01606 353.071 4.11467C353.714 4.70642 354.664 5.00029 355.504 5.14694C355.967 5.2278 356.41 5.24638 356.876 5.26302C357.186 5.27407 357.567 5.43481 357.88 5.48689C358.537 5.59647 359.173 5.66768 359.832 5.74807C360.095 5.78007 360.32 5.7888 360.566 5.87658C361.174 6.09365 361.851 5.91746 362.448 6.08801C362.712 6.16344 362.196 6.13056 362.166 6.12532C360.06 5.75259 358.096 4.86969 355.956 4.62459C354.564 4.46509 353.151 4.5168 351.752 4.5168C350.672 4.5168 349.605 4.36755 348.523 4.36755C347.37 4.36755 346.169 4.42329 345.103 3.91982C344.859 3.80466 344.394 3.48456 344.095 3.55086C343.925 3.58877 343.797 3.78189 343.61 3.82862C343.21 3.92871 343.17 3.61081 342.922 3.39747C342.213 2.78769 342.393 3.38294 341.89 3.72912C341.549 3.96327 341.03 4.06907 340.625 4.06907" stroke="#C48D60" stroke-width="3" stroke-linecap="round"/>
<path d="M371.374 7.01374C370.715 7.01374 370.051 6.96194 369.392 6.92806C369.106 6.91331 368.82 6.91424 368.533 6.91424C368.273 6.91424 368.015 6.90007 367.762 6.96399C367.574 7.01117 367.368 7.09795 367.172 7.08283C366.933 7.06446 366.751 6.80877 366.61 6.64062C366.395 6.38193 366.232 6.26144 365.899 6.30757C365.446 6.3703 364.998 6.46649 364.539 6.46649C364.451 6.46649 364.384 6.49031 364.359 6.39049C364.336 6.29529 364.377 6.02563 364.285 5.97453C364.223 5.94009 364.146 5.99387 364.086 5.99387" stroke="#C48D60" stroke-width="3" stroke-linecap="round"/>
<path d="M367.519 5.64561C367.896 5.64561 368.266 5.65234 368.632 5.54611C368.692 5.52887 368.793 5.45674 368.856 5.47701C368.977 5.51586 369.092 5.70652 369.198 5.78104C369.387 5.91506 369.556 6.08736 369.771 6.18179C370.032 6.29673 370.3 6.31722 370.584 6.31722C370.932 6.31722 371.305 6.3421 371.637 6.3421C371.772 6.3421 371.853 6.28606 371.946 6.19285C372.047 6.09234 372.023 6.22019 372.107 6.24398C372.175 6.26345 372.439 6.35365 372.513 6.28682C372.591 6.21653 372.554 6.16644 372.599 6.26747C372.638 6.35741 372.676 6.33608 372.755 6.3186C372.82 6.3041 373.13 6.3223 373.14 6.2426C373.156 6.12008 373.4 6.11823 373.488 6.11823" stroke="#C48D60" stroke-width="3" stroke-linecap="round"/>
<path d="M372.965 7.216C373.085 7.216 373.239 7.27196 373.34 7.33589C373.389 7.36761 373.412 7.43384 373.477 7.4453C373.544 7.45682 373.518 7.35821 373.507 7.34788C373.49 7.33036 373.518 7.21772 373.518 7.18902C373.518 7.13565 373.527 7.07299 373.504 7.02716" stroke="#C48D60" stroke-width="3" stroke-linecap="round"/>
<path d="M7.96177 5.98389C9.76474 5.90123 11.5686 5.81524 13.3898 5.78633C14.6005 5.76712 15.7646 5.38142 16.9799 5.40843C17.3533 5.41673 17.6947 5.53925 18.0506 5.63937C18.852 5.86474 17.0425 5.78633 16.9379 5.78633C14.3959 5.78633 11.8889 6.16424 9.35879 6.16424C8.82555 6.16424 8.42492 6.09951 7.96177 5.98389C7.83827 5.95306 7.71032 5.91861 7.57423 5.88081C7.02791 5.72905 6.47441 5.6302 5.94125 5.46218C4.64046 5.51253 3.34945 5.46774 2.11559 5.125C1.62014 4.98737 1.66001 3.31315 2.483 3.5189C3.57336 3.79149 4.15999 4.59345 5.10735 5.1145C5.37669 5.26264 5.65606 5.3723 5.94125 5.46218C6.47441 5.6302 7.02791 5.72905 7.57423 5.88081C7.71032 5.91861 7.83827 5.95306 7.96177 5.98389Z" fill="#C48D60"/>
<path d="M1.90564 6.16424C5.76038 6.16424 9.53609 5.8475 13.3898 5.78633C14.6005 5.76712 15.7646 5.38142 16.9799 5.40843C17.3533 5.41673 17.6947 5.53925 18.0506 5.63937C18.852 5.86474 17.0425 5.78633 16.9379 5.78633C14.3959 5.78633 11.8889 6.16424 9.35879 6.16424C8.68337 6.16424 8.22069 6.06038 7.57423 5.88081C6.73568 5.64788 5.88021 5.53957 5.10735 5.1145C4.15999 4.59345 3.57336 3.79149 2.483 3.5189C1.66001 3.31315 1.62014 4.98737 2.11559 5.125C4.77257 5.86305 7.6946 5.21948 10.4085 5.21948" stroke="#C48D60" stroke-width="3" stroke-linecap="round"/>
<path d="M19.7617 7.09853C18.8444 6.55494 17.7376 6.01924 17.1418 5.12088C16.9279 5.13556 16.884 5.13278 17.1276 5.09915C17.1405 5.09736 17.1543 5.09549 17.1688 5.09353C17.6465 5.02922 19.4903 4.7345 20.7305 4.8705C21.5397 4.95923 22.0919 5.2313 21.8402 5.87033C21.383 7.03078 21.0244 7.84677 19.7617 7.09853Z" fill="#C48D60"/>
<path d="M9.65271 4.84159C10.8844 4.84159 12.1161 4.84159 13.3478 4.84159C14.2026 4.84159 14.596 4.45869 15.3318 4.27473C16.146 4.07119 16.558 3.99771 16.9799 4.84159C17.5155 5.91271 18.7531 6.50085 19.7617 7.09853C21.0244 7.84677 21.383 7.03078 21.8402 5.87033C22.4778 4.25185 17.9582 4.98727 17.1688 5.09353C16.14 5.23202 19.2389 4.92705 20.2761 4.88358C21.8555 4.81737 23.4008 4.97211 24.9579 5.21949C25.3984 5.28947 26.2928 5.59196 26.753 5.38745C27.6491 4.98915 28.5797 2.85909 29.0729 2.00729C29.3987 1.44457 29.6543 3.46481 29.7237 3.70787C29.8772 4.24506 30.2521 4.27473 30.721 4.27473C31.9449 4.27473 33.2576 4.10122 34.4056 4.54766C35.2891 4.89126 35.2563 4.79345 35.8227 4.09627C36.6315 3.10088 37.8697 3.67781 38.9404 3.89682C41.375 4.39481 43.6316 5.03054 46.1207 5.03054" stroke="#C48D60" stroke-width="3" stroke-linecap="round"/>
<path d="M56.1351 4.65262C58.0376 4.65262 60.0149 4.74291 61.8982 4.45317C62.0887 4.42386 62.7462 4.0768 62.8955 4.35869C63.2307 4.99188 63.4478 4.41878 64.0817 3.89681C64.2629 3.74754 67.0276 2.00542 67.0944 3.141C67.1308 3.76 67.5251 4.1649 67.8502 4.65262" stroke="#C48D60" stroke-width="3" stroke-linecap="round"/>
<path d="M73.8967 4.65259C75.4016 4.65259 76.9511 4.84632 78.2426 3.93877C79.685 2.9252 78.931 3.76794 79.8592 4.35866C80.6116 4.8374 81.8901 3.40502 82.9245 3.74981C83.9549 4.0933 84.5446 4.35628 85.6958 4.26418C87.124 4.14993 86.7648 3.20568 87.6903 2.28018C88.3934 1.57709 87.889 5.38741 87.9842 5.38741C88.2743 5.38741 88.461 5.03049 88.824 5.03049C89.2268 5.03049 89.835 4.91754 90.1467 4.65259C90.8579 4.04802 92.3052 3.44726 93.2539 3.71832C93.8264 3.88189 94.6467 3.70782 95.3429 3.70782C95.6294 3.70782 96.0017 3.6396 96.2772 3.71832C96.5403 3.79349 96.1963 4.36665 96.6131 4.23269C97.5173 3.94205 99.4914 1.98171 100.256 3.34041C100.488 3.75307 100.821 4.2666 100.907 4.73657C100.975 5.11256 101.468 3.93334 101.631 3.70782C101.855 3.39791 103.381 1.84142 103.751 2.49012C104.114 3.12489 104.514 3.70782 105.305 3.70782C107.021 3.70782 108.732 3.90203 110.323 3.37191C112.051 2.79583 114.924 3.69476 116.485 4.16971C116.731 4.24474 117.062 4.52016 117.272 4.34816C117.747 3.95911 118.055 3.38382 118.532 2.994C118.725 2.83575 118.933 3.1193 119.098 3.18295C119.924 3.50054 120.617 3.67203 121.502 3.8023C121.665 3.8262 122.765 3.79219 122.825 4.00175C122.848 4.08247 122.8 4.80914 122.983 4.46363C123.432 3.61384 123.429 3.70782 124.442 3.70782C125.253 3.70782 126.533 3.4362 127.223 3.89678C127.916 4.35819 129.012 6.43409 129.554 5.10398C129.693 4.76252 131.17 1.5135 131.349 2.76306C131.44 3.39752 132.337 3.61025 132.808 3.74981C133.746 4.02759 134.308 3.51887 135.212 3.51887C136.314 3.51887 137.252 3.966 138.33 4.08573C139.342 4.19825 142.025 5.02919 142.109 3.51887C142.155 2.68743 143.232 3.61029 143.536 3.69732C144.015 3.83408 144.41 3.89678 144.943 3.89678" stroke="#C48D60" stroke-width="3" stroke-linecap="round"/>
<path d="M162.516 3.57391C162.503 3.71507 162.525 3.78953 162.516 3.57391Z" fill="#C48D60"/>
<path d="M147.211 4.46366C148.383 4.46366 149.593 4.54964 150.759 4.42167C151.488 4.34167 153.29 3.49478 153.971 3.98078C154.594 4.42571 154.239 5.72276 154.958 6.12225C155.378 6.3557 155.667 5.93291 155.997 5.78634C156.833 5.41468 157.905 5.59738 158.8 5.59738C159.938 5.59738 160.193 5.27502 161.004 4.46366C161.123 4.34443 162.486 2.86663 162.516 3.56089C162.537 4.05307 162.409 3.16199 162.799 3.16199C163.273 3.16199 163.864 4.16806 164.332 4.35869C165.113 4.67713 165.941 4.65262 166.767 4.65262C167.767 4.65262 168.543 4.56585 169.507 4.27471C170.799 3.88462 171.208 4.22175 172.268 3.99128C172.676 3.90253 174.798 3.653 174.798 4.08576" stroke="#C48D60" stroke-width="3" stroke-linecap="round"/>
<path d="M202.763 3.70785C205.003 3.70785 207.088 2.62848 209.376 2.76308C209.814 2.78886 210.23 5.31193 211.171 3.79183C212.063 2.35168 212.21 2.91514 212.21 4.26421C212.21 4.98343 212.413 3.96723 212.683 3.9073C213.058 3.82395 213.384 3.97297 213.722 4.08575" stroke="#C48D60" stroke-width="3" stroke-linecap="round"/>
<path d="M208.895 5.02444C209.099 5.27723 209.337 5.55303 209.366 5.48188C209.484 5.18575 209.23 5.06672 208.895 5.02444Z" fill="#C48D60"/>
<path d="M207.676 3.70782C207.724 4.14702 208.315 4.36865 208.599 4.65259C208.65 4.70374 209.317 5.60402 209.366 5.48188C209.623 4.83951 208.125 5.0305 207.864 5.0305" stroke="#C48D60" stroke-width="3" stroke-linecap="round"/>
<path d="M201.818 5.03053C198.165 5.03053 194.372 5.34886 190.743 4.92556C190.528 4.90044 188.993 4.40748 188.969 4.69461C188.943 5.0147 189.048 5.3929 188.864 5.68137C187.616 7.64224 185.331 4.97908 183.951 5.22998C181.669 5.64505 179.433 4.27472 177.065 4.27472" stroke="#C48D60" stroke-width="3" stroke-linecap="round"/>
<path d="M229.027 5.59739C230.994 5.59739 232.96 5.59739 234.927 5.59739C235.253 5.59739 237.049 5.86806 237.341 5.50291C237.51 5.29183 238.232 5.16443 238.475 5.26147C239.12 5.51963 239.581 5.38516 240.175 5.07252C240.432 4.93764 240.905 4.69169 241.204 4.86257C241.315 4.92572 241.333 6.23161 241.498 5.85982C241.607 5.61533 241.877 4.35869 242.212 4.35869C242.263 4.35869 242.581 4.66269 242.716 4.69461C243.494 4.87901 244.294 4.84157 245.088 4.84157C245.641 4.84157 247.07 5.25195 247.471 4.82058C247.86 4.40209 249.485 2.82688 250.095 2.96254C250.329 3.01438 250.547 3.28427 250.736 3.41393C252.112 4.35873 253.57 4.12659 255.187 3.89681C255.625 3.83454 256.742 3.29289 257.076 3.74985C257.389 4.17752 257.793 4.44547 258.273 4.65262C259.153 5.03284 260.476 5.35945 261.454 5.20898C262.009 5.12354 264.876 3.98055 265.117 4.46367" stroke="#C48D60" stroke-width="3" stroke-linecap="round"/>
<path d="M68.199 7.23641C69.0022 7.23641 71.0108 7.06012 69.0804 7.06012" stroke="#C48D60" stroke-width="3" stroke-linecap="round"/>
<path d="M101.694 5.4735C102.094 5.4735 103.603 4.95946 103.28 5.12092" stroke="#C48D60" stroke-width="3" stroke-linecap="round"/>
<path d="M98.168 4.94468C98.9776 4.94468 99.7872 4.94468 100.597 4.94468C102.121 4.94468 99.6572 4.94468 99.2747 4.94468C96.8818 4.94468 94.3028 4.67342 91.9293 5.04262C90.6106 5.24776 89.2654 5.75938 87.9824 6.13953C87.7574 6.2062 87.08 6.04534 87.0618 6.35499C87.028 6.92914 88.6433 7.19362 89.0891 7.22664C90.9828 7.36691 92.7542 6.95781 94.603 6.88386C94.918 6.87126 93.3079 5.65996 92.9675 5.3952C92.6051 5.11332 92.167 5.12097 91.7334 5.12097C91.125 5.12097 91.2446 5.40517 90.901 5.78695C90.1167 6.65841 88.5204 7.00987 87.9432 8.01994C87.8839 8.12377 87.2304 8.38489 87.6886 8.64674C87.8595 8.7444 88.0384 8.82977 88.2175 8.91118C88.3752 8.98288 88.5593 9.03816 88.7267 9.07767C91.2306 9.66846 93.8613 9.75422 96.4051 10.0571" stroke="#C48D60" stroke-width="3" stroke-linecap="round"/>
<path d="M270.979 7.02929C273.16 7.02929 275.34 7.02929 277.52 7.02929C278.649 7.02929 280.065 6.79781 281.157 7.14882C282.08 7.44558 283.077 7.33666 284.043 7.33666" stroke="#C48D60" stroke-width="3" stroke-linecap="round"/>
<path d="M337.066 6.56824C336.583 6.56824 335.652 7.76717 335.375 7.49037" stroke="#C48D60" stroke-width="3" stroke-linecap="round"/>
</svg>
