<svg width="834" height="18" viewBox="0 0 834 18" fill="none" xmlns="http://www.w3.org/2000/svg">
<rect y="6.70361" width="834" height="11" fill="#C48D60"/>
<path d="M831.538 10.5188C829.499 10.2922 828.336 7.56879 826.13 7.56879C824.568 7.56879 823.139 7.61648 821.705 8.33359C820.336 9.01806 819.157 9.33564 817.553 8.93451C816.772 8.73932 815.807 8.33885 815.422 7.56879C815.234 7.19277 815.313 5.89192 815.313 6.31232C815.313 11.67 821.964 10.0271 825.665 10.0271C827.109 10.0271 834.267 6.7644 831.046 6.58546C828.381 6.43742 826.196 6.86243 823.617 7.32296C821.101 7.77222 819.428 7.33925 817.498 5.60214C816.379 4.59483 816.758 7.58609 815.695 8.33359C812.278 10.7385 807.407 8.06045 803.759 8.06045C802.217 8.06045 800.647 7.66047 799.088 7.56879C798.169 7.5147 797.934 6.0938 796.63 6.0938" stroke="#C48D60" stroke-width="3" stroke-linecap="round"/>
<path d="M831.966 6.45406C832.232 6.45406 832.464 6.40481 832.718 6.34119" stroke="#C48D60" stroke-width="3" stroke-linecap="round"/>
<path d="M827.313 6.89946C825.89 6.89946 824.51 6.58757 823.111 6.36986C822.323 6.24736 821.737 6.25863 821.012 6.5847C820.381 6.86897 819.571 7.14892 818.889 6.88947C818.39 6.69961 817.958 6.10274 817.4 6.09007C815.665 6.05063 813.92 6.00014 812.174 6.00014C811.172 6.00014 810.797 5.835 810.316 4.92595C809.846 4.03815 809.73 4.67103 809.496 5.33064C809.184 6.21153 808.823 6.88437 807.797 6.76956C807.004 6.68078 806.339 6.4498 805.529 6.4498C803.934 6.4498 802.277 6.3085 800.693 6.49976C800.365 6.53929 799.705 6.83714 799.374 6.70461C798.89 6.51124 798.631 6.34976 798.085 6.35987C797.573 6.36935 797.112 7.2083 796.676 7.01937C796.24 6.83071 795.967 5.77994 795.437 5.95018C795.07 6.06794 794.971 6.61492 794.607 6.40983C793.773 5.93886 792.795 5.08745 791.809 5.02587C791.397 5.00007 791.552 5.59855 791.24 5.82527C790.492 6.36903 789.717 5.86068 789.042 5.45055C788.264 4.97824 788.065 5.68003 787.493 6.12005C786.52 6.8681 785.781 5.65226 784.87 5.36062C783.724 4.9939 782.355 4.39397 781.272 5.19574C780.74 5.58993 780.373 6.09007 779.659 6.09007C779.4 6.09007 779.31 5.72354 779.049 5.7903C778.569 5.91319 778.179 7.12373 777.64 6.60968C777.399 6.37932 777.455 6.01877 777.25 6.40983C776.872 7.13216 776.682 6.29803 776.586 5.95517C776.293 4.91326 776.068 5.35625 775.332 5.53049C774.743 5.66995 774.276 5.48157 773.733 5.30067C773.546 5.23826 773.484 5.37061 773.713 5.37061" stroke="#C48D60" stroke-width="3" stroke-linecap="round"/>
<path d="M780.907 6.17997C781.572 6.17997 782.315 6.0771 782.966 6.22494C783.192 6.27626 783.373 6.35983 783.605 6.35983" stroke="#C48D60" stroke-width="3" stroke-linecap="round"/>
<path d="M773.983 6.09006C772.679 6.09006 771.109 6.29175 769.911 5.68037C769.529 5.48559 769.128 5.21309 768.917 4.83101C768.832 4.67802 768.693 4.14442 768.677 4.62117C768.644 5.56664 767.88 6.20038 767.013 5.57545C766.656 5.31756 766.226 4.72234 765.724 4.80603C765.443 4.85287 765.373 5.18782 765.17 5.35062C764.891 5.57344 764.586 5.73033 764.225 5.73033C764.054 5.73033 763.998 5.8428 763.896 5.97015C763.515 6.44649 763.041 6.90044 762.482 7.15925C762.408 7.19339 761.323 7.3426 761.308 7.28915C761.124 6.64593 760.137 5.51671 759.329 5.87022C758.865 6.07338 758.961 6.29465 758.405 6.19998C757.967 6.12547 757.424 6.35238 757.031 6.26493C756.569 6.16239 756.54 5.3664 756.067 6.11004C755.776 6.56626 755.158 7.01204 754.738 6.40982C754.644 6.27648 754.083 4.98081 753.913 5.06583C752.961 5.54188 752.288 6.32844 751.39 6.87946C750.879 7.19279 750.274 7.21334 749.761 7.56395C749.236 7.92357 748.984 7.42784 748.852 6.93442C748.816 6.80174 748.509 5.30313 748.532 5.89021C748.54 6.0749 748.688 5.64509 748.342 5.5105C747.497 5.18175 747.021 5.99219 746.304 6.16001C745.467 6.3558 744.486 6.00013 743.636 6.00013C743.239 6.00013 743.108 6.0816 742.782 6.24494C742.59 6.34085 742.544 5.66639 742.507 5.55046C742.165 4.48557 742.346 6.3965 742.192 6.51973C742.164 6.54191 742.025 6.08663 742.012 6.05009C741.952 5.88188 741.889 5.64794 741.677 5.6404C741.276 5.62608 741.014 5.82934 740.718 6.08007C740.373 6.37209 740.052 6.47637 739.599 6.51973C738.91 6.58573 738 6.65425 737.336 6.44979C736.832 6.29493 736.455 5.56959 735.872 5.59043C735.597 5.60024 735.353 6.73965 735.042 6.92943C734.467 7.28125 734.23 6.44489 734.008 6.10005C733.735 5.67477 733.088 6.93234 732.864 7.07931C732.424 7.36779 732.012 6.4869 731.63 6.31489C731.301 6.16679 730.947 6.2503 730.636 6.09006C730.303 5.9191 730.045 5.55046 729.646 5.55046" stroke="#C48D60" stroke-width="3" stroke-linecap="round"/>
<path d="M733.063 6.98939C730.872 6.88503 728.895 6.03032 726.988 5.05085C726.75 4.92843 726.817 5.10828 726.718 5.23572C726.43 5.60595 725.909 5.88521 725.499 6.09007C725.026 6.3266 724.374 6.74621 723.83 6.54972C723.34 6.37242 722.663 5.37992 722.132 5.48053C721.933 5.51815 721.682 5.91372 721.507 6.03511C721.357 6.13905 721.078 6.09007 720.903 6.09007C720.253 6.09007 719.072 5.71652 718.564 6.20998C718.47 6.3019 718.058 7.34559 717.865 7.2392C717.486 7.03086 717.41 6.55476 716.96 6.36986C716.647 6.24092 715.882 6.14241 715.572 6.3149C714.998 6.63328 712.379 5.96277 712.379 5.34064C712.379 5.30012 712.378 5.42473 712.359 5.46055C712.3 5.57124 712.191 5.54168 712.099 5.49552C711.599 5.24533 711.075 5.02354 710.58 4.77606C710.187 4.57927 710.167 4.52793 709.841 4.92095C709.522 5.30515 709.272 5.74447 709.011 6.17001C708.857 6.42296 708.813 6.18498 709.111 6.18C709.776 6.16892 710.438 6.10026 711.1 6.09007C712.253 6.07233 713.344 5.93866 714.442 5.59544C714.463 5.58913 714.69 5.54802 714.532 5.60044C714.024 5.76972 713.425 5.71935 712.899 5.75033C711.568 5.82862 710.207 5.96079 708.892 6.18C708.086 6.31433 707.442 6.62966 706.628 6.62966C705.978 6.62966 705.892 5.12553 705.074 5.30067C704.767 5.36653 704.629 5.96022 704.515 6.21997C704.317 6.67054 703.943 6.96651 703.471 7.1193C703.048 7.25616 701.664 7.59219 701.407 7.07933" stroke="#C48D60" stroke-width="3" stroke-linecap="round"/>
<path d="M705.586 8.41075C702.978 8.31237 700.639 6.7495 698.286 5.78421C696.78 5.16611 696.245 5.48239 695.807 6.88124C695.473 7.95275 693.72 6.68715 693.181 6.40656C691.483 5.52251 689.781 5.37283 687.928 5.37283C686.267 5.37283 684.468 5.60565 682.843 5.94244C681.915 6.13501 681.026 6.72161 680.101 6.70192C677.625 6.64924 675.222 5.04429 673.181 3.79057C671.719 2.89237 669.639 2.94174 667.991 3.13657C667.067 3.24591 666.524 3.7901 665.903 4.42347C665.818 4.51017 664.969 5.45818 664.964 5.44666C664.501 4.28911 665.952 2.45218 666.926 2.07119C667.558 1.82402 667.8 2.26819 668.223 2.67245C668.85 3.27117 669.654 3.65795 670.46 3.9488C672.022 4.51294 673.943 5.41848 675.291 6.40656C676.809 7.5197 674.827 7.27153 673.835 7.27153C670.945 7.27153 668.055 7.27153 665.164 7.27153C664.718 7.27153 663.882 7.03478 664.5 6.41711C665.265 5.65224 667.825 6.13231 668.846 6.13231C669.035 6.13231 670.931 6.13231 670.038 6.13231C669.229 6.13231 668.42 6.13231 667.612 6.13231C666.36 6.13231 665.108 6.13231 663.856 6.13231C663.143 6.13231 662.288 6.36873 661.683 6.13231C660.74 5.76331 658.99 4.76803 657.949 5.28844C657.373 5.57638 658.081 5.75257 658.35 5.75257C659.303 5.75257 660.208 5.43079 661.156 5.38337C663.194 5.28146 665.114 5.45601 667.116 5.75257C668.7 5.98719 670.267 5.94244 671.873 5.94244C672.62 5.94244 674.023 5.70792 674.637 6.32218C674.916 6.60096 673.211 6.51205 673.076 6.51205C671.458 6.51205 669.841 6.51205 668.223 6.51205C667.279 6.51205 665.942 6.7534 665.069 6.30108C664.599 6.05733 664.378 5.57836 663.814 5.5627C662.369 5.52256 661.14 6.68884 659.785 7.12385C658.756 7.45406 657.695 7.51803 656.62 7.45085C655.762 7.39719 655.799 6.90568 655.608 6.21669C655.426 5.5616 654.89 5.94743 654.89 5.18296C654.89 3.39591 650.843 5.59272 650.144 5.94244" stroke="#C48D60" stroke-width="3" stroke-linecap="round"/>
<path d="M657.358 6.70195C656.193 6.70195 648.135 6.25534 648.055 6.9762C647.95 7.92089 646.478 12.2092 646.114 9.40232C646.052 8.9249 645.872 6.91291 645.196 6.91291C644.275 6.91291 643.702 8.37218 643.16 8.9382C642.774 9.34153 642.164 10.1117 641.504 9.90865C640.695 9.65965 640.785 8.23241 640.07 7.76733C639.525 7.4134 635.817 7.61157 635.914 7.17662C636.096 6.35378 637.911 6.7104 638.413 6.74414C640.772 6.90253 643.09 7.27156 645.46 7.27156C646.656 7.27156 647.823 7.30223 649.004 7.12388C649.654 7.02576 650.872 7.10925 649.574 7.66185C646.252 9.07523 642.308 9.70535 638.73 9.88755C637.568 9.94674 636.253 10.0686 635.101 9.82426C635.08 9.81973 634.296 9.5026 634.616 9.5922C637.377 10.3652 640.969 9.10561 643.224 7.50362C644.262 6.76584 645.341 7.26776 646.536 7.41923C647.404 7.52933 648.309 7.46143 649.183 7.46143C650.081 7.46143 648.656 7.27126 648.35 7.31375C647.775 7.3936 641.631 9.4213 642.063 8.12597C642.248 7.57087 639.774 8.17389 639.553 8.22091C638.848 8.37072 638.178 8.64365 637.696 8.03104C637.047 7.20417 634.833 7.54568 633.962 7.6513C632.482 7.83065 630.505 8.52031 629.015 8.18926C628.198 8.00765 627.996 6.43751 627.739 5.79479C627.604 5.45838 627.095 4.8268 626.99 5.56272C626.836 6.63651 627.442 5.44946 627.781 5.18298C629.184 4.07842 632.139 4.55759 633.772 4.65557C635.348 4.75009 636.873 4.99311 638.456 4.99311C638.687 4.99311 639.886 4.67618 640.038 4.84544C640.484 5.3415 640.134 5.58971 641.051 5.84753C642.265 6.1891 643.398 6.22678 644.637 6.3644C645.761 6.4893 649.176 6.70195 645.882 6.70195C642.025 6.70195 638.18 6.51208 634.321 6.51208C632.661 6.51208 636.162 5.94211 636.568 5.83698C639.375 5.10908 642.578 5.03688 645.375 5.93192C647.329 6.55722 648.606 7.33864 650.502 6.13234C650.614 6.06108 651.612 5.5776 651.24 5.56272C650.531 5.53436 650.161 5.67056 649.531 5.94247C645.949 7.48933 641.752 7.81957 637.886 7.84117C634.291 7.86125 630.586 6.59556 627.021 7.22936C625.999 7.41112 626.616 6.00666 625.46 5.94247C624.024 5.86267 622.563 5.94247 621.125 5.94247C620.794 5.94247 621.791 4.95467 621.863 5.27792C622.004 5.91251 625.3 5.56272 625.808 5.56272C626.373 5.56272 626.411 5.56272 625.798 5.56272C625.123 5.56272 624.452 5.4319 623.941 5.94247C623.625 6.25857 622.632 7.31213 622.232 6.51208" stroke="#C48D60" stroke-width="3" stroke-linecap="round"/>
<path d="M626.219 8.03104C624.221 7.8883 622.509 6.3131 620.945 5.22518C619.898 4.49651 619.711 4.84377 619.574 5.94247C619.538 6.23185 619.322 8.29327 618.582 7.52472C617.516 6.41714 617.623 5.31607 615.724 5.19354C614.925 5.14203 614.626 5.52731 613.962 5.83699C613.034 6.27033 611.591 5.723 610.545 5.98466C609.881 6.15047 608.606 6.99787 609.247 5.57328C609.353 5.3379 610.387 4.37109 609.848 4.92983C609.288 5.51129 607.544 7.12648 608.266 6.76524C608.821 6.48766 609.311 5.9224 609.817 5.56273C610.815 4.85274 611.801 4.52666 613.013 4.42351C614.859 4.26641 615.909 4.31169 617.654 4.70831C618.31 4.85732 619.121 5.25339 617.897 5.37286C615.026 5.6529 612.23 6.38476 609.405 6.93401C607.917 7.22333 601.916 8.73024 601.916 5.60492C601.916 5.28896 602.257 4.31802 602.675 4.31802C602.77 4.31802 601.528 7.18403 601.42 7.35595C601.224 7.66836 598.583 10.4862 598.583 9.31794C598.583 7.1148 602.224 6.7973 603.709 6.62811C605.355 6.44061 606.997 6.39487 608.635 6.14289C609.624 5.99075 608.006 6.13234 607.718 6.13234C606.306 6.13234 605.295 5.97321 604.11 5.18299C603.434 4.73222 602.693 4.80325 603.962 4.80325C605.493 4.80325 610.034 4.02776 608.519 4.24418C606.916 4.47328 605.199 4.64684 603.667 5.18299C602.289 5.66537 600.824 6.30679 599.363 6.50153C599.167 6.52764 598.347 6.62422 599.068 6.84963C599.223 6.89812 599.303 5.49395 598.308 5.38341C597.58 5.30251 597.046 5.45999 596.515 5.94247C595.166 7.16918 593.234 8.1943 591.6 8.9593C591.039 9.22196 589.381 10.2026 588.72 9.90865C588.383 9.75866 587.978 8.35492 588.288 8.07324C588.549 7.83515 589.356 7.7933 589.659 7.75679C591.609 7.52141 593.635 7.51465 595.598 7.47198C596.735 7.44724 597.851 7.43614 598.984 7.31376C599.351 7.27404 599.953 7.16246 600.313 7.31376C600.516 7.39933 598.075 6.50829 597.591 6.3644C596.246 5.96464 593.98 4.9295 592.528 5.19354C591.627 5.35738 589.266 5.89628 591.484 4.89818C592.399 4.48648 593.438 4.61338 594.416 4.61338C595.63 4.61338 596.863 4.2547 598.076 4.4657C598.6 4.55677 599.159 4.70457 599.543 5.08805C599.885 5.43033 601.41 5.75993 601.494 5.98466C601.497 5.99184 595.331 6.01519 594.785 5.98466C593.206 5.89639 591.641 5.7526 590.06 5.7526C588.953 5.7526 587.916 5.94247 586.811 5.94247C586.128 5.94247 585.397 6.21645 585.397 5.37286C585.397 5.03979 586.004 3.87698 585.967 4.61338C585.884 6.2609 583.353 7.92145 582.169 6.3644C581.889 5.99514 581.351 6.07356 581.03 5.7526C580.928 5.65004 580.615 4.86142 580.471 5.0775C580.4 5.184 580.652 4.87381 580.777 4.84544C581.526 4.6752 582.354 4.62197 583.119 4.61338C584.357 4.59947 585.522 4.67124 586.737 4.7927C587.381 4.85713 588.073 4.69804 588.709 4.8138C589.07 4.87933 588.756 5.11598 588.583 5.18299C587.83 5.47376 586.944 5.40534 586.157 5.56273C584.521 5.88988 582.92 6.54625 581.304 6.98676C580.515 7.20202 579.685 7.34391 578.942 7.6935C578.88 7.72255 577.208 5.59808 577.001 5.18299C576.761 4.70268 576.734 5.1013 576.653 5.46779C576.564 5.86815 576.043 6.02277 575.714 6.13234" stroke="#C48D60" stroke-width="3" stroke-linecap="round"/>
<path d="M581.789 7.46142C581.39 7.10204 580.864 6.91297 580.418 6.61755C579.296 5.87419 578.274 4.95338 576.969 4.53953C575.514 4.07837 575.464 4.52764 574.574 5.37285C573.674 6.2278 570.919 5.86588 569.944 5.3623C568.774 4.75881 568.662 4.27718 568.119 5.60491C567.746 6.51619 567.508 7.12744 566.494 6.59646C565.498 6.07439 564.35 5.54898 563.224 6.17452C562.218 6.73334 562.019 7.15338 561.853 5.74204C561.813 5.40213 561.56 3.36237 561.136 4.46569C560.766 5.42737 559.857 5.341 558.994 5.46778C558.329 5.56557 557.508 5.67898 556.843 5.53107C555.989 5.34132 556.157 4.1651 556.157 3.51634C556.157 2.63888 556.138 2.25155 555.208 2.82015C553.971 3.5756 553.693 5.29233 552.929 6.42768C552.104 7.65402 551.91 6.90301 551.505 5.86862C551.431 5.67997 551.062 5.33289 551.241 5.6471C551.379 5.88817 552.076 5.72315 552.317 5.79478C553.531 6.15441 551.844 6.28855 551.389 6.42768C550.077 6.82854 548.819 7.84116 547.423 7.84116C547.257 7.84116 547.043 7.87893 547.043 7.65129C547.043 7.03534 548.441 7.10442 548.794 7.09223C550.663 7.0278 552.537 7.10281 554.406 7.07113C555.032 7.06052 557.535 7.29489 558.013 6.51207C558.288 6.06266 556.913 6.13309 556.832 6.13233C555.067 6.11568 553.438 6.24244 551.727 6.69139C550.355 7.05117 549.403 7.12913 548.098 7.08168C546.336 7.0176 544.329 6.69543 542.602 6.31165C542.445 6.27675 543.514 3.56578 542.824 6.40659C542.659 7.08659 541.822 11.8759 540.398 11.3221C539.42 10.9421 538.575 9.5515 538.204 8.64284C537.132 6.02429 541.412 5.97999 543.056 5.79478C543.809 5.7099 544.587 5.75259 545.345 5.75259C545.718 5.75259 547.834 6.30673 547.106 6.3222C544.331 6.38125 541.597 5.83463 538.815 5.95301C538.285 5.97558 536.6 6.70446 536.6 6.3222C536.6 5.71138 536.761 4.80324 535.936 4.80324C535.324 4.80324 534.963 4.73214 534.512 5.18298" stroke="#C48D60" stroke-width="3" stroke-linecap="round"/>
<path d="M555.398 5.94244C553.488 5.94244 551.569 5.50386 549.701 5.14077C549.026 5.00949 546.06 3.72455 545.619 4.51841C545.367 4.9723 545.652 5.23968 545.018 5.46776C542.899 6.23066 540.603 5.39254 538.499 5.03528C536.969 4.77538 534.589 4.17136 533.077 4.88761C532.366 5.22454 531.897 5.77129 531.094 6.02683C529.859 6.41986 529.658 5.17963 529.006 4.45512C528.324 3.69766 527.432 3.83069 526.558 4.08593C525.724 4.32962 516.934 7.66784 516.875 7.53524C516.628 6.98025 517.092 6.57528 517.582 6.51205C520.902 6.08365 524.446 6.1985 527.782 6.36437C530.425 6.49579 532.984 7.15407 535.609 7.41921C536.516 7.51088 537.471 7.57525 538.32 7.94663C538.847 8.17748 539.378 8.19048 539.902 8.40021C540.755 8.7415 538.087 8.08834 537.17 8.03101" stroke="#C48D60" stroke-width="3" stroke-linecap="round"/>
<path d="M555.968 5.37284C555.079 5.32348 554.281 4.82388 553.352 4.80323C552.763 4.79015 552.233 4.9931 551.695 4.9931C551.269 4.9931 550.992 4.86972 550.693 4.57117C550.417 4.29456 549.793 4.42349 549.417 4.42349C549.207 4.42349 547.873 4.37493 547.919 4.32856C548.158 4.08998 548.809 4.04375 549.132 4.04375C550.416 4.04375 551.656 3.85388 552.93 3.85388" stroke="#C48D60" stroke-width="3" stroke-linecap="round"/>
<path d="M540.398 3.85388C537.772 3.85388 535.145 3.85388 532.519 3.85388C531.864 3.85388 531.262 4.23362 530.62 4.23362C530.166 4.23362 529.768 4.16876 529.386 4.42349" stroke="#C48D60" stroke-width="3" stroke-linecap="round"/>
<path d="M522.17 6.70195C520.349 6.70195 518.542 6.15558 516.706 6.13234C515.083 6.11179 514.333 6.47079 513.014 7.27156C511.698 8.07093 512.016 5.57907 511.348 5.22518C510.96 5.01995 510.325 5.43404 509.977 5.56273C509.102 5.88574 507.997 6.04244 507.076 6.13234C506.393 6.19892 505.695 6.51208 505.019 6.51208C503.916 6.51208 507.218 6.32221 508.32 6.32221C510.915 6.32221 513.49 6.51208 516.084 6.51208C516.492 6.51208 518.065 6.52344 518.173 6.03741C518.207 5.88109 518.407 5.56273 518.246 5.56273C517.213 5.56273 516.179 5.56273 515.145 5.56273C513.779 5.56273 511.052 5.37286 511.052 5.37286C511.052 5.37286 514.133 5.37286 515.673 5.37286C516.45 5.37286 516.841 5.38599 515.778 5.37286C514.063 5.35169 512.339 5.09819 510.631 4.95093C508.883 4.80026 507.258 4.02746 505.546 3.86445C504.668 3.78085 504.205 3.7607 503.637 4.32857C503.013 4.95242 502.215 4.99312 501.401 4.99312C500.821 4.99312 502.588 5.14582 503.078 5.45725C503.53 5.74516 504.067 5.90972 504.512 6.13234" stroke="#C48D60" stroke-width="3" stroke-linecap="round"/>
<path d="M504.703 6.13231C503.755 6.13231 502.773 5.9178 501.855 5.71038C500.951 5.50643 500.103 5.17029 499.239 4.84541C498.772 4.66993 497.495 3.96666 496.981 4.18087C496.791 4.26031 496.941 5.72919 496.633 6.03738C496.225 6.44607 496.128 6.33654 496.95 6.31163C499.888 6.22258 502.817 5.94244 505.758 5.94244C507.734 5.94244 503.222 5.94244 502.867 5.94244C501.102 5.94244 499.337 5.94244 497.572 5.94244C496.15 5.94244 496.385 4.76434 495.378 4.14922C493.993 3.30291 491.932 3.99456 490.663 4.70828C489.393 5.42281 488.616 6.70192 487.045 6.70192C486.141 6.70192 485.293 6.59723 484.397 6.5226C484.195 6.50574 482.649 6.5456 483.522 6.51205C484.933 6.45778 486.398 5.95504 487.804 5.75257C489.59 5.49548 491.296 5.37283 493.1 5.37283C495.159 5.37283 497.485 5.48825 499.481 5.93189C502.316 6.5618 493.646 5.86342 490.779 6.32218C490.378 6.38629 489.289 6.2251 489.576 6.51205C489.756 6.69134 491.078 6.51211 491.327 6.5015C493.003 6.43022 494.671 6.15095 496.348 6.13231C498.716 6.106 501.007 6.15844 503.258 5.27789C503.552 5.16254 504.323 5.00659 504.323 4.61335C504.323 4.3025 504.025 4.61335 503.848 4.61335C503.68 4.61335 502.348 4.58367 502.466 4.46567C502.652 4.28014 503.819 4.33836 504.133 4.23361" stroke="#C48D60" stroke-width="3" stroke-linecap="round"/>
<path d="M492.551 6.51208C488.957 6.51208 486.179 5.09327 482.804 4.1598C482.299 4.02003 481.144 3.56446 480.695 4.05431C480.34 4.44065 480.389 4.98229 480.009 5.36231C478.999 6.37249 476.79 5.18299 475.557 5.18299C474.619 5.18299 474.178 5.44493 473.479 6.01631C473.261 6.19486 475.124 5.46128 475.547 5.37286C479.067 4.63604 482.524 4.86241 486.053 4.99312C486.787 5.02031 485.664 5.00202 485.483 5.03531C483.799 5.34632 482.193 6.67179 480.673 7.41924C479.205 8.14157 476.652 9.28068 475.083 8.2631C474.55 7.91767 473.64 7.95506 473.036 8.07323C472.624 8.15393 471.883 8.74268 471.517 8.70613C471.082 8.66255 472.546 7.29255 472.562 7.28211C473.82 6.44328 475.488 6.15895 476.95 5.85808C477.366 5.77245 477.874 5.59435 478.121 6.02685C478.206 6.17628 478.706 6.32099 478.543 6.21672C477.312 5.43337 475.096 5.27777 473.69 5.10915C473.365 5.07015 470.746 4.66048 470.547 5.10915C470.4 5.43926 470.664 5.75433 470.241 5.94247C469.746 6.16246 469.244 6.13555 468.712 6.22727C468.097 6.33326 466.097 6.68807 465.631 6.09014C465.529 5.95864 467.201 5.26294 467.298 5.22518C468.469 4.76796 469.94 4.61337 471.201 4.61337C472.515 4.61337 470.92 5.62266 470.378 5.14079C470.145 4.93324 469.166 4.88292 468.627 4.61337" stroke="#C48D60" stroke-width="3" stroke-linecap="round"/>
<path d="M472.746 6.64246C469.63 6.64246 466.618 5.82498 463.527 5.77814C462.213 5.75823 461.598 5.42317 461.299 6.68087C461.28 6.76042 460.945 7.6925 460.742 7.37233C460.333 6.72941 460.573 5.09077 460.511 4.3376C460.497 4.17017 460.593 2.84483 460.194 3.39644C459.525 4.32264 458.853 5.23728 457.88 5.87417C456.919 6.50267 455.507 6.84269 454.355 6.78651C454.176 6.77779 452.715 6.44067 452.771 6.12386C452.913 5.31815 461.623 6.25541 462.643 6.33514C464.055 6.44544 465.625 7.10628 467.042 6.98819C468.525 6.86457 464.083 6.62799 462.595 6.57523C459.324 6.45923 456.258 6.87389 453.164 7.92934C451.833 8.38343 450.475 9.04023 449.064 9.19702C448.546 9.25453 447.406 9.44107 446.932 9.1394C446.158 8.64693 448.024 6.0029 448.286 5.63408C449.522 3.89361 451.234 4.60323 452.944 5.17311C453.462 5.346 454.118 5.54827 454.595 5.81655C455.294 6.20946 453 5.97007 452.204 6.06624C448.181 6.55256 444.432 8.37111 440.324 8.37111C438.594 8.37111 443.688 9.50813 445.414 9.38909C447.038 9.27712 449.077 8.49506 450.504 7.67965C451.153 7.30898 449.09 7.19649 448.372 6.98819C447.049 6.60409 445.723 6.1604 444.608 5.33637C444.334 5.13435 443.894 5.08668 444.435 5.08668C445.403 5.08668 446.371 4.95724 447.335 4.8754C448.104 4.81015 448.859 4.74095 449.63 4.74095C450.395 4.74095 448.1 4.72479 447.335 4.74095C445.631 4.77694 443.965 5.25941 442.351 5.77814C441.736 5.97583 440.677 6.22875 440.286 6.81532C439.806 7.53481 438.15 6.08678 437.693 5.81655C437.654 5.7937 436.895 5.49205 437.27 5.44201C438.172 5.3218 439.166 5.42219 440.075 5.43241C440.57 5.43797 441.362 5.38535 441.698 5.85496C441.785 5.97774 440.484 5.95205 440.382 5.951C438.322 5.92976 436.31 5.56018 434.236 5.60527C433.976 5.61092 432.486 6.19922 433.006 5.86457C433.796 5.35717 435.652 5.52316 436.329 6.20069C436.42 6.29116 434.995 6.27022 434.85 6.25832C433.772 6.16942 432.715 6.12386 431.633 6.12386C430.94 6.12386 430.667 6.25989 429.972 6.13347C429.793 6.10095 429.539 6.32948 429.53 6.08545C429.505 5.41829 429.602 4.73943 429.741 4.0879C429.899 3.35357 429.719 4.60614 429.693 4.75055C429.551 5.5556 429.138 6.46173 428.454 6.94977C427.275 7.79191 425.167 7.66827 423.825 7.2955C423.727 7.26807 422.999 6.86947 423.355 6.82493C424.841 6.63913 426.313 6.35452 427.801 6.16228C430.051 5.8716 432.277 5.60527 434.543 5.60527C434.75 5.60527 435.407 5.70224 434.985 5.39399C433.919 4.61639 432.572 4.31348 431.278 4.24156C430.295 4.18694 428.802 3.97988 427.878 4.43363C427.371 4.68257 426.841 5.37514 426.438 5.77814C425.477 6.73876 425.446 6.32843 424.248 5.87417C422.658 5.27094 422 5.83376 420.704 6.54642C419.657 7.12259 419.212 6.44023 418.38 5.86457C417.662 5.36766 417.726 5.19222 418.649 5.26914C419.347 5.32727 419.871 5.80295 420.541 5.91259C421.438 6.0594 422.458 5.51147 423.24 5.1539C424.576 4.54217 428.597 2.76795 427.34 3.53089C426.425 4.08685 424.916 3.87662 423.912 3.87662C422.445 3.87662 420.981 3.89701 419.542 4.22235C418.867 4.37509 418.129 4.62819 417.602 5.09628C417.231 5.42617 416.894 5.78717 416.392 5.91259C415.632 6.10276 415.225 5.45916 414.529 5.43241C413.977 5.41119 413.614 5.75581 413.108 5.39399C412.688 5.09414 412.251 4.78219 411.907 4.39522C411.849 4.32979 411.396 3.61253 411.379 3.87662C411.348 4.37865 411.529 4.91381 410.861 4.91381C410.691 4.91381 410.361 4.91851 410.361 4.66412C410.361 4.4863 411.618 4.53787 411.706 4.52967C413.949 4.32001 416.105 3.70376 418.371 3.70376C418.695 3.70376 418.814 3.68248 418.351 3.74217C416.889 3.93088 415.488 4.04209 414.068 4.49125C411.912 5.17344 410.126 6.33785 408.104 7.24749C407.806 7.38152 407.203 7.50678 407.864 7.50678C408.985 7.50678 410.087 7.47987 411.187 7.23788C411.74 7.11624 412.533 6.92169 412.935 6.46959C413.296 6.0629 411.611 6.12386 411.475 6.12386C409.804 6.12386 408.133 6.12386 406.462 6.12386C404.928 6.12386 405.073 6.71098 404.109 7.92934C403.413 8.81017 401.877 10.7912 400.604 10.7912C400.294 10.7912 400.987 10.3039 401.18 10.0613C401.54 9.60931 401.937 8.98918 402.467 8.71684C404.193 7.83067 405.696 7.00021 407.23 5.81655C407.718 5.44044 408.491 4.61425 407.576 5.43241C407.208 5.76201 406.373 5.80846 405.915 5.951C404.733 6.31851 403.538 6.34812 402.333 6.55603C401.477 6.70361 401.276 7.15121 401.171 6.30633C401.054 5.37206 399.816 5.72744 399.269 5.85496C398.996 5.91867 396.808 6.42267 396.695 6.02783C396.542 5.48962 395.269 7.19471 394.957 7.50678" stroke="#C48D60" stroke-width="3" stroke-linecap="round"/>
<path d="M408.959 5.43241C407.125 5.43241 405.291 5.43241 403.457 5.43241C402.193 5.43241 401.333 6.34084 400.143 6.71929C398.676 7.18621 398.858 5.99097 398.578 5.00985C398.504 4.75046 397.441 5.64877 397.358 5.71091C396.159 6.61054 394.959 7.38241 393.488 7.75648C391.909 8.15799 390.13 8.54737 388.485 8.3327C387.035 8.1436 385.926 7.32291 384.585 6.85374C384.236 6.73156 383.625 7.22523 383.299 7.33392C382.392 7.63609 381.438 7.79098 380.514 8.02538C379.533 8.27386 378.622 8.74551 377.671 9.06257" stroke="#C48D60" stroke-width="3" stroke-linecap="round"/>
<path d="M397.723 4.91381C396.769 4.91381 395.815 4.91381 394.861 4.91381C394.019 4.91381 391.798 4.47542 391.174 5.27875C390.675 5.92046 390.851 6.77704 390.098 7.32431C389.091 8.05656 387.818 7.48062 386.852 6.99779C386.308 6.7258 386.26 6.4593 385.93 6.16228C385.635 5.89666 384.3 6.12386 383.933 6.12386C383.444 6.12386 382.824 6.06884 382.646 6.60404C382.509 7.01474 384.143 5.89046 384.413 5.77813C385.751 5.22174 387.193 4.81521 388.648 4.75055C388.835 4.74225 391.285 4.60574 391.126 5.1635C391.066 5.37169 388.034 5.68331 387.688 5.80695C385.935 6.4329 384.473 7.70615 382.626 8.0926C381.524 8.32329 379.664 6.86662 378.747 7.71806C377.958 8.45016 377.837 9.26051 377.575 7.48758C377.533 7.20132 377.647 4.91381 377.325 4.91381C377.141 4.91381 375.202 7.37705 374.751 6.36395C374.1 4.89916 385.991 4.74095 387.495 4.74095C388.282 4.74095 386.559 4.90362 386.372 4.95223C383.529 5.6913 380.627 6.23309 377.748 6.81532C376.961 6.97435 374.355 7.95692 373.561 7.46837C372.772 6.98296 370.358 8.97065 369.681 9.36988C369.135 9.69158 366.356 11.6069 366.704 9.91729C366.916 8.88412 367.172 7.83643 367.971 7.09383C368.337 6.75385 368.336 6.86172 368.336 7.33392C368.336 8.05965 366.974 7.52871 366.588 7.41075C365.39 7.04455 364.354 6.57336 363.083 6.4792C362.283 6.41989 361.985 6.24797 362.958 5.6821C364.653 4.69702 366.904 3.96504 368.836 3.62693C369.834 3.4523 370.534 3.59814 371.448 3.95345C372.887 4.51317 377.352 5.75748 375.904 5.22113C375.081 4.91625 374.199 4.39522 373.292 4.39522C372.599 4.39522 374.652 4.66689 375.318 4.85619C376.949 5.31955 378.558 5.80092 380.226 6.12386C381.977 6.46314 384.162 6.98376 385.949 6.53682C386.514 6.39562 387.053 6.06375 387.62 5.9606C388.222 5.85129 388.922 5.951 389.531 5.951C391.082 5.951 392.672 5.52719 394.151 5.08668C396.218 4.47085 398.16 4.56808 400.316 4.56808C400.687 4.56808 401.022 4.43919 401.257 4.13592C401.584 3.71581 399.176 3.9482 399.001 3.96305C396.492 4.17561 393.941 4.04949 391.423 4.04949C390.802 4.04949 390.342 3.53089 389.599 3.53089C388.835 3.53089 387.702 3.79329 386.967 4.01107C386.199 4.23879 385.397 3.70151 384.672 3.5405C383.85 3.35793 382.12 4.71633 381.397 4.99064C379.903 5.55735 379.131 5.75958 377.498 5.77813C376.14 5.79357 374.842 6.29673 373.522 6.29673C371.98 6.29673 370.56 6.45782 369.201 5.77813" stroke="#C48D60" stroke-width="3" stroke-linecap="round"/>
<path d="M367.645 6.1239C366.96 6.1239 366.286 5.95103 365.59 5.95103C364.932 5.95103 364.141 6.06954 363.496 5.91262C362.844 5.75402 360.109 3.7056 359.693 4.2608C358.647 5.65571 355.931 5.42224 354.373 5.22116C353.939 5.16526 353.489 5.02103 353.489 4.49129C353.489 4.05578 356.867 4.85323 357.09 4.90424C358.469 5.21944 359.881 5.44879 361.21 5.95103C361.413 6.02754 362.239 6.29676 361.566 6.29676C361.183 6.29676 359.849 6.07075 359.558 6.33518C359.346 6.52812 359.485 7.68593 359.386 8.02541C358.832 9.90811 353.276 5.20695 352 4.92345C350.798 4.6563 349.372 4.51761 348.466 5.42283C348.247 5.64203 348.011 6.1049 347.765 6.25835C347.277 6.56377 348.263 6.31568 348.38 6.30637C349.113 6.24769 349.815 6.60543 350.531 6.56566C350.991 6.54012 351.378 5.75462 351.664 5.44204C352.262 4.79044 354.062 5.89294 353.604 6.64249C353.15 7.38595 351.699 6.82166 351.242 6.44082C350.348 5.69571 350.019 4.5259 349.494 3.53093C349.183 2.94124 348.986 3.31977 348.62 3.61736C347.843 4.24861 346.903 4.51614 345.969 4.82741C345.374 5.02577 344.988 5.28631 344.654 5.81658C344.483 6.08841 344.268 6.58828 344.135 5.92222C343.806 4.27681 343.108 2.01982 341.369 4.08793C340.3 5.36002 339.407 5.74271 337.874 6.16231C336.583 6.51553 335.285 6.822 333.955 6.98822C333.77 7.01141 332.555 7.36554 332.976 7.16109C335.348 6.00875 337.976 6.37932 340.505 6.60408C342.541 6.78509 344.286 6.41261 346.2 7.25712C346.828 7.53435 348.578 8.62675 347.957 8.33273C346.5 7.64245 345.198 6.72388 343.885 5.79737C342.907 5.10649 340.238 3.07104 338.911 3.87666C337.692 4.61691 335.755 5.31476 334.32 5.25957C332.746 5.19902 329.674 4.87132 328.683 6.63289C328.467 7.01741 328.977 8.0033 328.539 7.94858C328.29 7.91745 328.379 6.34342 328.424 6.1431C328.688 4.95513 333.99 5.71342 335.108 5.56689C336.102 5.43653 336.421 5.20548 337.086 4.60653C337.328 4.38861 337.993 3.52262 337.134 3.71339C336.431 3.86963 335.802 4.32922 335.108 4.5297C333.709 4.93347 332.278 5.21599 330.853 5.50927C330.339 5.61516 329.822 5.60163 329.576 6.1239C329.39 6.51885 331.267 5.97932 331.478 5.91262C333.553 5.25457 334.919 4.04952 337.134 4.04952C337.454 4.04952 338.517 4.10217 337.806 4.31842C336.98 4.56989 336.321 5.10566 335.53 5.43244C335.008 5.64836 334.476 5.84744 334.032 6.21033C333.369 6.75294 332.918 5.2647 332.918 4.66415C332.918 4.36752 335.902 4.90604 336.183 4.91384C336.325 4.91777 336.933 4.93299 336.932 4.93305C336.302 5.29355 335.694 5.68405 335.012 5.95103C334.105 6.30564 332.809 6.68917 331.852 6.63289C330.605 6.55951 329.572 5.82898 328.404 5.47085C327.281 5.12621 326.179 5.19603 325.043 5.00028C323.531 4.73963 323.11 5.03907 321.97 5.95103C321.411 6.39798 320.536 7.14188 319.78 7.14188C319.237 7.14188 319.406 6.2011 319.415 5.855C319.431 5.31577 319.935 5.43244 320.337 5.43244C322.513 5.43244 324.626 5.10284 326.733 4.56811C326.939 4.51602 329.156 3.86448 329.259 4.32802C329.354 4.75404 329.356 5.22555 329.48 5.64372C329.593 6.02475 329.761 6.29676 329.25 6.29676C328.286 6.29676 327.358 6.26685 326.426 6.55606C325.956 6.7018 325.057 7.07786 324.563 6.94981C323.903 6.77879 324.355 6.77378 324.765 6.82496C325.074 6.86368 325.303 7.29915 325.639 7.12267C326.012 6.92607 326.599 6.31558 326.81 5.95103C327.277 5.14539 327.796 4.74098 328.75 4.74098C329.283 4.74098 329.937 4.11428 329.413 4.76979C328.541 5.8597 326.708 7.61756 325.13 7.06505C324.481 6.83805 324.108 6.28667 323.699 5.77817C323.104 5.04041 322.212 4.72793 321.336 4.48168C320.671 4.29466 319.65 3.36516 319.127 3.98229C318.083 5.21675 316.4 6.46963 314.748 6.46963C314.388 6.46963 314.147 6.2977 314.239 5.88381C314.303 5.59544 316.431 5.77554 316.688 5.77817C317.826 5.78978 318.947 5.95103 320.088 5.95103C320.823 5.95103 320.798 6.17017 320.798 5.3268C320.798 2.70263 323.848 2.77927 325.696 3.44449C327.749 4.18355 324.959 4.57947 324.256 4.74098C321.611 5.34864 319.424 6.97427 316.822 7.64127C315.017 8.10428 314.47 5.85977 313.173 5.35561C311.612 4.7484 309.935 6.45185 308.439 6.72892C306.835 7.02592 307.308 5.6597 308.391 5.25957C310.198 4.59157 312.514 5.25957 314.402 5.25957C315.444 5.25957 316.548 4.36693 317.6 4.13595C317.927 4.06417 319.243 3.53052 319.243 4.18397C319.243 4.78922 318.331 4.91553 317.908 5.00028C315.137 5.55434 312.256 5.74447 309.562 6.64249" stroke="#C48D60" stroke-width="3" stroke-linecap="round"/>
<path d="M308.525 7.50681C306.054 7.50681 303.192 6.46066 300.775 7.06504C299.784 7.31273 302.533 6.02443 303.425 5.52846C303.596 5.43361 305.742 4.12605 305.894 4.26079C306.147 4.48629 305.666 4.85836 305.97 5.0867C307.033 5.88346 305.572 5.76541 304.856 5.78776C302.875 5.84969 300.791 6.07411 298.864 6.55605C298.497 6.64763 297.45 7.08025 297.788 6.91138C298.62 6.49549 299.555 6.22426 300.439 5.95102C302.305 5.37404 304.217 5.14623 306.143 4.87542C306.838 4.77769 307.515 4.5681 308.218 4.5681C311.368 4.5681 301.857 4.64522 298.806 5.43243C297.745 5.70635 296.479 5.52716 295.426 5.25956C294.853 5.11404 294.479 4.93838 294.081 5.33639C293.803 5.61442 293.424 5.83975 293.13 6.13349C292.998 6.26627 291.901 7.57431 291.795 7.46839C291.337 7.00952 292.682 5.79885 292.967 5.60529C293.87 4.99209 294.911 4.82446 295.983 4.75057C296.402 4.72165 297.321 4.58319 297.452 5.17313C297.642 6.02942 296.051 6.13766 295.522 6.25834C294.121 6.57776 292.709 6.77412 291.315 7.12266C290.937 7.21716 290.373 7.21995 290.019 7.06504C289.347 6.7712 288.783 6.22954 288.136 5.87419C287.214 5.36663 287.669 5.38906 288.549 5.29798C289.885 5.15986 291.132 5.01738 292.41 4.60652C293.066 4.39561 291.511 5.03818 291.325 5.18274C290.328 5.95823 289.16 6.34617 288.146 7.07464C287.402 7.60938 286.876 8.50807 285.918 8.67845C284.978 8.84555 284.462 7.96216 283.767 7.54522C283.059 7.12037 282.085 7.48708 281.481 7.14187C281.013 6.87437 282.038 6.17424 282.24 6.12389C282.938 5.94938 282.588 6.08371 282.979 6.4312C283.029 6.47572 285.573 4.7337 285.841 4.60652C285.912 4.57316 288.056 3.46471 287.512 4.31841C287.339 4.5911 285.783 6.90761 285.707 5.60529C285.672 5.00861 282.967 6.31906 283.469 7.57403C283.635 7.9877 284.024 6.71199 283.863 6.29675C283.669 5.79819 282.793 5.54414 282.384 5.91261C282.128 6.14264 282.299 6.29675 281.865 6.29675C280.973 6.29675 280.537 6.5125 279.743 6.89218C279.173 7.16488 278.716 7.25398 278.629 6.46962C278.499 5.30035 277.077 5.74481 276.122 5.85499C274.589 6.03193 272.411 6.26892 271.052 7.08425C270.041 7.69083 271.753 7.01202 272.041 6.90178C273.131 6.4848 274.216 6.04331 275.335 5.70133C275.737 5.57846 277.501 5.08214 277.889 5.47084C278.254 5.83574 277.562 6.31493 278.389 6.4312C280.086 6.66988 281.936 6.1392 283.604 6.55605C284.579 6.79991 283.156 6.98821 282.883 6.98821C280.302 6.98821 277.578 6.87938 275.028 7.33394C274.169 7.4869 273.282 8.11864 272.396 8.0254C271.864 7.96936 272.215 6.5337 271.849 6.85376C271.198 7.42319 270.26 8.52479 269.304 8.52479C268.791 8.52479 269 7.03057 269.323 6.81535C270.056 6.32683 271.717 6.59418 272.569 6.50803C273.523 6.41154 274.453 6.29675 275.412 6.29675C278.196 6.29675 269.86 6.81535 267.076 6.81535C266.372 6.81535 265.667 6.81535 264.963 6.81535C264.268 6.81535 263.909 7.41404 263.244 7.4972C262.667 7.56933 263.27 7.04763 263.494 6.99782C264.094 6.86432 264.87 6.98821 265.482 6.98821" stroke="#C48D60" stroke-width="3" stroke-linecap="round"/>
<path d="M268.074 7.33393C265.698 7.33393 263.298 7.43768 260.929 7.23789C259.107 7.08419 257.303 6.19375 255.974 7.67005C255.251 8.47303 254.268 8.73997 254.245 7.37234C254.237 6.8843 254.141 6.23816 254.725 6.05665C255.813 5.71923 257.231 5.95101 258.356 5.95101C259.892 5.95101 261.429 5.95101 262.965 5.95101C263.256 5.95101 263.826 5.83638 264.099 5.98942C264.625 6.28542 263.04 6.6279 262.994 6.63287C259.485 7.00882 255.897 6.81533 252.373 6.81533C252.308 6.81533 250.467 6.95672 250.653 7.12265C250.898 7.33959 252.57 6.84123 252.92 6.82494C253.259 6.80915 254.011 6.67695 254.312 6.91137C254.701 7.21381 253.793 7.32251 253.65 7.29551C253.037 7.17988 250.75 5.37439 251.556 4.56809C251.81 4.31389 253.798 3.42556 253.89 4.0687C254.13 5.74676 250.508 6.57215 249.415 6.7193C247.924 6.91991 246.376 6.63048 244.911 7.02661C244.754 7.06897 244.259 7.51062 244.229 7.29551C244.149 6.73962 244.499 6.26665 244.872 5.89339C245.099 5.666 245.918 5.75457 246.639 5.60528C247.048 5.52063 249.476 4.80751 248.714 5.95101" stroke="#C48D60" stroke-width="3" stroke-linecap="round"/>
<path d="M245.613 9.31057C242.71 9.0467 240.097 7.17427 237.127 7.17427C236.559 7.17427 237.126 7.37225 237.661 7.17427C239.069 6.65388 240.574 6.23239 242.023 5.83909C244.042 5.29106 243.658 5.505 245.346 6.37316C245.463 6.43325 246.774 7.01377 246.622 7.11493C246.261 7.3554 245.149 7.20841 244.782 7.23361C243.118 7.34792 241.463 7.54989 239.798 7.649C238.954 7.69922 231.994 8.74091 231.994 7.44131C231.994 6.21183 233.562 5.73624 234.13 6.90724C235.586 9.90458 229.141 7.92648 228.107 7.70835C227.628 7.60709 225.463 7.17427 225.704 7.17427C227.88 7.17427 230.056 7.17427 232.231 7.17427C233.196 7.17427 236.089 7.17427 235.124 7.17427C233.778 7.17427 232.521 7.56074 231.193 7.70835C228.8 7.97425 226.06 8.87554 223.731 7.8567C222.19 7.1827 222.277 4.95784 220.126 4.78578C218.338 4.64274 217.564 6.15743 215.957 6.35833C215.318 6.43823 211.376 5.19879 214.058 5.73524C217.52 6.42766 221.087 7.70835 224.651 7.70835C225.744 7.70835 224.099 9.2809 223.464 9.2809C222.757 9.2809 222.648 8.37221 222.648 7.84186C222.648 6.75194 224.365 7.17427 225.111 7.17427C226.831 7.17427 228.552 7.17427 230.273 7.17427C230.934 7.17427 232.18 6.92599 232.795 7.23361C233.896 7.78378 230.532 7.97538 230.481 7.97538C226.841 7.97538 223.206 7.70835 219.562 7.70835C217.319 7.70835 215.07 7.7571 212.827 7.70835C211.928 7.68881 212.259 6.92544 212.5 6.31382C212.721 5.75538 212.974 5.06516 213.361 5.83909C213.613 6.34265 213.866 6.37364 213.242 6.10613C212.678 5.8644 209.47 3.82307 209.296 5.30501C209.22 5.94774 210.476 5.38594 211.017 5.30501C213.518 4.93102 216.062 5.03798 218.583 5.03798C219.006 5.03798 220.889 4.73257 221.253 5.09732C221.457 5.30065 219.145 5.30501 219.058 5.30501C215.319 5.30501 210.941 4.67355 207.308 5.69073C206.003 6.05626 205.559 6.16907 204.475 5.4237C203.538 4.77957 202.819 4.77094 201.7 4.77094C200.84 4.77094 200.248 4.77042 201.448 4.37039C203.089 3.82339 205.459 3.67444 207.175 4.10335C207.729 4.24191 211.046 4.39913 210.305 4.93413C207.874 6.68956 204.49 8.49716 201.448 8.76166C200.19 8.87106 200.006 6.93461 198.748 6.65503C197.766 6.43669 199.416 5.59203 199.416 6.50668C199.416 7.56278 198.209 7.61603 197.546 7.17427" stroke="#C48D60" stroke-width="3" stroke-linecap="round"/>
<path d="M207.015 6.50986C205.982 6.50986 205.036 6.42405 204.033 6.15528C203.748 6.07885 203.336 5.89648 203.032 5.95191C202.843 5.98623 202.61 6.51052 202.458 6.65065C201.656 7.38816 200.938 6.96071 200.357 6.23349C200.321 6.18858 199.992 5.81813 200.132 5.77983C200.528 5.67186 201.081 5.75741 201.478 5.75898C202.575 5.76331 203.667 5.81298 204.763 5.85284" stroke="#C48D60" stroke-width="3" stroke-linecap="round"/>
<path d="M220.25 5.66513C222.161 5.66513 224.094 5.71728 225.996 5.71728C226.553 5.71728 226.853 5.12893 227.383 5.02897C227.984 4.91548 228.425 4.87218 228.979 5.1489C229.41 5.36488 229.847 5.5296 230.293 5.71206C231.026 6.01198 231.858 5.77742 232.623 5.99886C233.224 6.17272 233.866 6.58603 234.417 6.8801C235.164 7.27857 235.526 7.35462 236.393 7.35462" stroke="#C48D60" stroke-width="3" stroke-linecap="round"/>
<path d="M197.629 6.69758C196.067 6.69758 194.408 6.07275 192.863 6.416C192.543 6.48721 191.542 7.32599 191.174 6.9583C190.973 6.75691 191.42 6.38945 191.529 6.30128C192.045 5.88196 192.68 5.76872 193.333 5.75898C194.293 5.74464 195.268 5.72103 196.222 5.85284C196.751 5.92599 197.26 6.04056 197.796 6.04056C198.063 6.04056 198.725 5.53336 198.036 6.13442C196.122 7.80539 193.86 8.87677 191.289 8.85636C190.256 8.84817 189.438 8.31899 188.921 7.46932C188.763 7.20932 188.337 6.03879 188.337 6.78623C188.337 7.12779 188.7 6.37103 188.765 6.28042C189.077 5.84409 189.399 5.64196 189.938 5.67033C190.647 5.70763 192.505 5.9996 191.033 6.65065C189.528 7.31647 187.92 7.18808 186.366 6.83837C186.147 6.78911 183.563 6.03042 183.608 5.85284C183.731 5.36081 183.915 4.85151 183.915 4.31458C183.915 3.66741 183.473 4.26622 183.357 4.5023C183 5.23553 182.524 5.86888 181.955 6.4525C181.269 7.15515 180.523 7.49866 179.749 6.84359C179.477 6.61358 179.412 6.71111 179.89 6.69237C181.508 6.62889 183.141 6.34927 184.729 6.04056C185.997 5.79392 187.272 5.49589 188.525 5.19582C188.65 5.16585 189.832 4.82038 189.516 4.82038C188.043 4.82038 186.992 6.39446 185.657 6.84359C184.512 7.22893 183.557 6.50986 182.445 6.50986C182.036 6.50986 181.643 6.19814 181.277 6.04056C180.513 5.71182 179.181 5.46293 178.555 6.11356C178.114 6.57139 177.698 6.57948 177.241 6.15528C176.691 5.64494 176.042 5.92461 176.042 5.01331C176.042 4.43393 175.796 5.36069 175.76 5.48783C175.606 6.03862 175.541 6.60661 175.348 7.14602C175.236 7.4595 175.604 6.52969 175.765 6.23871C176.088 5.65751 176.616 5.66512 177.215 5.66512C178.076 5.66512 178.918 6.08516 179.78 5.94149C180.443 5.83099 178.426 5.92844 177.768 6.06142C176.425 6.33248 175.236 6.99716 173.951 7.43282C172.924 7.78081 172.177 7.61013 171.213 7.16167C170.89 7.01164 170.474 6.77211 170.274 6.45772C170.182 6.31184 170.261 6.15098 170.217 5.99884C170.159 5.79439 169.306 6.14389 170.066 6.22828C171.529 6.39085 172.966 6.69758 174.446 6.69758" stroke="#C48D60" stroke-width="3" stroke-linecap="round"/>
<path d="M172.005 7.44845C171.093 7.44845 170.153 6.88039 169.471 6.30127C169.119 6.00228 168.779 5.63382 168.35 5.44089C167.975 5.2719 167.901 5.67469 167.782 5.94669C167.408 6.80203 166.992 6.95703 166.15 6.52028C165.531 6.19972 164.607 6.49966 163.954 6.50985C163.562 6.51598 163.307 6.5241 163.136 6.12919C163.121 6.09478 162.886 5.52071 162.828 5.59211C162.622 5.84404 162.786 8.07547 162.286 7.30766C162.021 6.90188 161.573 6.59317 161.206 7.02087C161.023 7.23521 159.752 6.62581 159.574 6.56199C158.473 6.16618 157.376 5.7328 156.185 5.75897C155.256 5.77938 155.34 6.82734 154.641 7.16687C153.894 7.52974 153.159 6.63731 152.582 6.28041C152.317 6.11713 152.01 6.15123 151.773 6.01969C151.653 5.95304 151.732 5.39793 151.732 5.28967C151.732 5.18763 151.649 4.72651 151.826 4.72651C152.586 4.72651 153.463 5.11709 154.193 5.28967C155.608 5.62408 157.209 6.04055 158.677 6.04055C159.579 6.04055 157.626 5.32495 157.384 5.24795C156.967 5.11506 157.8 5.36385 157.853 5.38353C158.287 5.5432 159.082 5.77878 159.386 6.15527C159.559 6.36838 159.363 6.39929 159.162 6.41077C157.875 6.48436 156.575 6.34627 155.288 6.32734C153.88 6.30663 152.424 6.44033 151.023 6.28041C150.481 6.21864 149.96 6.04055 149.411 6.04055C149.16 6.04055 147.348 5.90638 147.529 5.36267C147.585 5.19336 148.199 3.93178 148.353 3.99648C148.672 4.13109 148.987 4.60011 149.25 4.82037C149.756 5.24452 150.286 5.59934 150.877 5.89454C151.174 6.04321 151.114 6.05331 150.804 6.01969C149.755 5.90639 148.691 5.9345 147.638 5.9519C146.357 5.97308 145.092 6.11094 143.816 6.20741C143.431 6.23651 142.908 6.34652 142.627 6.01969C142.211 5.53575 141.6 5.01883 141.313 4.44493C140.902 3.62329 141.398 4.45716 141.689 4.72129C142.26 5.24055 142.949 5.28299 143.608 4.91423C144.036 4.67438 144.212 4.70003 144.598 4.89337C144.744 4.96636 144.988 4.89648 145.13 4.86208C145.541 4.76298 145.938 4.71732 146.361 4.72651C146.564 4.73091 146.783 4.76595 146.752 5.0133C146.682 5.56955 145.514 5.70318 145.12 5.81633C143.66 6.23568 142.196 6.62748 140.698 6.88529C139.888 7.02469 138.969 7.27531 138.143 7.11473C137.536 6.99682 136.946 6.06983 136.829 5.49825C136.606 4.41114 138.329 5.47739 138.873 5.47739" stroke="#C48D60" stroke-width="3" stroke-linecap="round"/>
<path d="M139.999 4.35108C139.649 4.35108 136.818 4.20463 136.808 4.4658C136.805 4.5292 136.86 4.96666 136.714 4.89338C136.108 4.59071 135.621 4.15218 134.946 3.93392C134.442 3.77073 134.48 3.73974 134.315 4.16336C134.108 4.6952 133.827 5.19715 133.637 5.73812C133.61 5.81467 133.229 6.85084 133.126 6.58286C132.917 6.038 132.659 5.61637 132.021 5.57648C131.699 5.55639 131.316 5.64721 131.181 5.9832C131.152 6.05527 131.299 5.87326 131.374 5.85284C131.996 5.68318 132.696 5.67555 133.335 5.67555C134.32 5.67555 135.301 5.85284 136.281 5.85284C136.649 5.85284 136.348 5.93541 136.151 5.9467C135.085 6.00757 135.631 8.51418 134.174 8.04291C133.425 7.80041 133.023 7.04055 132.214 6.8488C131.818 6.75498 131.393 6.79144 130.988 6.79144" stroke="#C48D60" stroke-width="3" stroke-linecap="round"/>
<path d="M136.424 7.71574C133.587 7.40058 131.503 4.91635 128.819 4.32C128.345 4.21456 128.346 6.18527 127.169 6.18527C126.682 6.18527 124.586 4.56226 124.586 5.4559C124.586 6.11615 122.208 5.76836 121.741 5.77873C121.058 5.79391 120.891 5.98437 120.449 6.37657C120.257 6.5474 120.34 5.91197 120.497 5.77873C121.154 5.22064 122.933 5.5546 123.725 5.56351C124.846 5.5761 126.095 5.77173 127.169 6.11352C127.728 6.29133 128.196 6.4244 128.783 6.4244C129.3 6.4244 126.841 6.23748 126.595 6.20918C124.36 5.95242 122.082 5.56351 119.828 5.56351C118.918 5.56351 118.715 5.71598 118.213 6.32875C117.279 7.47096 116.599 7.28524 115.523 6.74724C113.943 5.95738 111.511 6.4244 109.784 6.4244C109.505 6.4244 109.134 6.38814 109.353 5.99396C109.622 5.51032 110.511 5.52523 110.98 5.39612C113.932 4.58167 117.823 5.04321 120.796 5.46786C121.874 5.62191 123.299 5.74553 124.252 6.31679C124.684 6.57597 124.964 6.63962 125.459 6.63962C126.763 6.63962 128.066 6.63962 129.369 6.63962C129.662 6.63962 132.268 6.06344 131.569 6.96246C130.584 8.22949 126.66 7.50051 125.232 7.50051" stroke="#C48D60" stroke-width="3" stroke-linecap="round"/>
<path d="M112.103 6.85484C110.473 6.69177 108.796 3.70186 106.962 4.61891C106.266 4.96659 106.077 7.3989 106.077 5.87438C106.077 3.87907 104.388 5.24989 103.925 6.29287C103.785 6.60682 103.314 6.27043 103.112 6.47222C102.571 7.01336 104.422 6.54294 104.487 6.52004C105.949 6.00119 107.419 5.49896 108.875 4.96566C109.071 4.89398 110.683 4.24543 110.035 5.0374C108.336 7.11385 105.562 6.42439 103.088 6.42439C102.349 6.42439 101.374 6.58388 100.649 6.37656C99.8364 6.1445 99.4551 5.67773 98.7594 5.25262C97.8854 4.7185 97.9138 5.20606 97.2529 5.73089C96.8022 6.08881 96.134 6.31863 95.8659 6.85484C95.0634 8.45979 94.3898 8.52521 92.8528 7.5005C92.0727 6.98047 91.4173 6.63961 90.4853 6.63961C89.3858 6.63961 92.6646 6.33179 93.7615 6.25699C96.7254 6.05491 98.8385 5.41341 101.246 3.67432C102.087 3.06738 102.352 4.94075 101.988 5.3961C101.3 6.2553 99.4356 5.87167 98.5442 5.67111C97.2467 5.37918 95.9946 5.32962 94.6702 5.34828C93.6891 5.3621 91.059 6.01305 90.3179 5.30045C89.9356 4.93283 89.3606 4.29608 88.7635 4.29608C88.5012 4.29608 88.3767 5.18788 88.1657 5.34828C87.3223 5.98925 86.4964 6.14052 85.6309 5.5635" stroke="#C48D60" stroke-width="3" stroke-linecap="round"/>
<path d="M92.0876 7.50047C89.7388 7.50047 87.7154 6.03096 85.344 5.99391C83.659 5.96758 85.043 6.84674 84.1244 7.33307C83.1509 7.84843 82.7841 5.5185 82.4504 4.9178C82.323 4.68838 80.8361 7.00639 80.4178 7.28525C79.4168 7.95259 79.6255 5.81246 80.2504 5.77869C81.9854 5.6849 83.7492 5.77869 85.4875 5.77869C85.8741 5.77869 84.7068 5.72677 84.3276 5.8026C83.472 5.97372 82.9464 6.72819 82.3069 7.23742C81.2489 8.07996 79.2458 8.57646 78.0981 7.71569" stroke="#C48D60" stroke-width="3" stroke-linecap="round"/>
<path d="M82.1877 7.28525C80.0467 7.28525 77.1777 6.2054 75.3484 5.13302C74.0843 4.39202 74.6191 6.98624 74.3918 7.66787C74.1097 8.51434 71.001 7.50047 70.3504 7.50047C69.0462 7.50047 67.7931 7.78499 66.4764 7.71569C66.1203 7.69695 65.8476 7.37269 65.5079 7.29721C65.1066 7.20801 64.6773 7.3562 64.2764 7.23742C63.1068 6.89086 61.9992 6.02363 64.109 5.99391C65.2807 5.97741 66.3883 6.00914 67.5406 5.77869C68.0494 5.67693 68.5717 5.13302 69.0591 5.13302C69.5765 5.13302 70.5074 6.40757 70.8765 6.74719C71.3447 7.17791 72.3652 7.79033 72.4907 8.48093C72.5824 8.98504 72.1838 9.52299 71.857 9.86792C71.2978 10.4582 70.9671 10.2183 70.3385 9.7364C69.2833 8.9274 68.3633 7.95729 67.3373 7.11785C66.7506 6.6378 69.5039 7.30625 69.908 7.39286C71.3728 7.70675 72.3962 8.03742 73.4712 6.96242C74.6476 5.786 70.7416 6.00447 70.0874 5.99391C68.5936 5.96982 67.2625 6.00156 66.6438 7.5483C66.3014 8.40436 61.0272 5.96837 59.8524 5.99391C59.2399 6.00723 58.9436 6.3599 58.9436 6.92654C58.9436 7.28249 58.6268 5.82321 58.3458 6.04174C58.1329 6.20734 58.2062 7.29076 58.0708 7.58417C57.7134 8.35862 55.9574 7.98731 55.3925 7.82331C54.4124 7.53877 53.5114 7.28525 52.487 7.28525C52.3078 7.28525 51.65 7.46004 51.65 7.36895C51.65 4.61899 59.0568 4.9178 60.6176 4.9178C60.8837 4.9178 62.1476 5.11667 62.172 4.70258C62.1968 4.28035 62.1937 3.79711 61.7176 3.63842C60.6643 3.2873 59.3194 3.27639 58.3458 3.84169C57.1318 4.5466 56.6224 5.9469 55.2849 6.61567C53.5243 7.49597 51.4869 7.28525 49.5815 7.28525C48.6586 7.28525 48.9607 2.76041 48.2662 5.38412C47.59 7.93868 44.0775 10.615 41.2954 9.53313C39.868 8.97802 39.0634 9.70027 37.5888 9.6527C36.3413 9.61246 35.161 8.85987 33.9898 8.48093C33.9174 8.45751 31.7419 7.73527 32.1843 7.33308C32.8289 6.7471 36.1151 7.3208 36.8953 7.40482C39.0612 7.63807 41.169 7.93092 43.352 7.93092C44.125 7.93092 44.7425 7.86179 45.4803 7.72765C46.0068 7.63192 45.8151 8.42886 45.8151 8.74398C45.8151 10.8865 45.5335 7.30916 46.1499 7.30916C46.9978 7.30916 47.7692 7.90798 48.5651 8.09831C49.5016 8.32224 50.4291 8.36136 51.3869 8.36136C52.2092 8.36136 51.5121 8.06853 51.1478 7.93092C49.8502 7.44069 48.4413 7.42648 47.0705 7.52439C44.9678 7.67458 42.9228 8.62552 40.9128 9.22225C40.062 9.47483 39.8344 9.91081 39.466 8.88746C38.8684 7.22733 38.0603 6.92881 36.3453 7.50047" stroke="#C48D60" stroke-width="3" stroke-linecap="round"/>
<path d="M56.3605 6.63958C54.9996 6.63958 53.6456 6.42435 52.2713 6.42435C50.6292 6.42435 49.7339 6.31905 48.3494 5.39607C47.8105 5.03675 45.3842 3.80922 45.3842 5.02541C45.3842 5.68895 44.1983 5.03114 43.8298 4.96562C43.6574 4.93498 41.3188 4.79567 41.3188 5.01345C41.3188 5.11428 41.5117 4.95399 41.6058 4.9178C42.046 4.74849 42.5147 4.73033 42.9808 4.71453C45.3099 4.63558 47.6564 4.69693 49.9756 4.9178C52.259 5.13526 54.6597 5.40258 56.8986 4.82214C57.4986 4.66657 58.9436 4.1109 59.3258 4.9178C60.0906 6.53249 55.9043 5.92275 55.3442 5.87434C50.7522 5.47751 46.217 5.13302 41.6058 5.13302C40.5808 5.13302 40.0053 5.35205 39.5731 4.37974C39.4355 4.06995 38.6915 3.26626 38.2818 3.45906C37.8938 3.64164 38.0876 4.49022 37.7557 4.82214C37.261 5.31681 37.1097 5.56346 36.297 5.56346C33.8763 5.56346 31.9554 3.99507 29.3381 4.43952C28.5438 4.5744 28.3108 5.29192 27.6283 5.67107C27.2712 5.86944 26.5616 5.81417 26.2772 6.04174C25.8791 6.36017 25.8158 6.42435 25.2608 6.42435C25.0651 6.42435 24.7684 6.27075 25.1054 6.11348C26.193 5.60592 28.2997 5.94983 29.4577 6.04174C31.083 6.17073 32.6829 7.07002 34.3002 7.07002C35.0632 7.07002 34.3912 5.71145 34.1926 5.39607C33.671 4.5677 34.3111 5.39301 34.5274 5.67107C34.8686 6.10979 35.9502 6.1733 36.3448 5.77869C36.9032 5.22028 36.4396 4.83238 35.8068 4.92975C35.113 5.03648 35.1157 5.47002 34.623 5.73086C33.9804 6.07109 32.5623 5.77869 31.849 5.77869C30.9802 5.77869 30.1113 5.77869 29.2425 5.77869C28.1546 5.77869 27.4317 5.8221 26.5641 6.53196C25.7204 7.22229 25.5291 6.29429 25.1532 5.56346C24.4392 4.17503 23.2162 5.77209 23.2162 6.74719C23.2162 7.11808 18.717 6.82163 17.9672 7.40481C17.1123 8.06975 17.19 7.45794 17.19 6.42435C17.19 5.85043 17.19 5.2765 17.19 4.70257C17.19 4.15769 16.9954 4.68197 16.7476 4.92975C16.5516 5.12579 14.9663 6.68767 14.6552 6.37653C14.3674 6.08879 15.4476 5.83644 15.516 5.82651C16.7153 5.65242 18.0022 5.77869 19.2107 5.77869C20.6415 5.77869 24.879 5.37365 23.5032 5.76673C22.9914 5.91295 22.1733 5.55124 21.6858 5.45585C20.4302 5.21019 19.2095 5.11501 17.9313 5.13302C16.9191 5.14728 16.6355 5.81821 15.791 6.00586C14.9199 6.19946 14.6876 6.2687 13.9617 5.56346C13.023 4.65164 12.9247 4.88966 12.3355 5.64716C12.148 5.88828 11.6207 6.42403 11.379 6.20913C11.1789 6.03125 10.2704 4.96552 10.5301 5.87434C10.6351 6.2419 11.0638 5.01619 11.1159 4.9178C11.3932 4.39399 12.1956 5.0113 11.9051 5.46781C11.2607 6.48044 9.61454 6.59519 8.58109 7.07002C7.74765 7.45295 7.17586 7.44318 7.30171 6.43631C7.40669 5.59651 7.90884 6.04047 8.36587 6.25696C8.8586 6.49036 10.5013 6.63958 9.95613 6.63958C7.67557 6.63958 5.89766 9.23958 3.53532 8.56462C3.41202 8.52939 3.26833 6.84298 3.20053 6.63958C3.16872 6.54414 2.70663 5.45273 2.86574 5.44389C3.45869 5.41095 4.40713 5.78098 5.01796 5.8863C5.46321 5.96306 7.34293 5.71229 7.67238 6.04174C7.86698 6.23634 6.12407 5.9212 5.99842 5.8863C5.16059 5.65357 4.75924 6.44554 4.10925 6.8548C3.49192 7.24348 2.16593 7.20783 1.47875 6.96241C0.295949 6.53998 0.449342 4.9178 1.80158 4.9178C2.80555 4.9178 3.69132 4.70257 4.70709 4.70257" stroke="#C48D60" stroke-width="3" stroke-linecap="round"/>
</svg>
