<svg width="84" height="63" viewBox="0 0 84 63" fill="none" xmlns="http://www.w3.org/2000/svg">
<g filter="url(#filter0_d_197_406)">
<path d="M39.4951 53.1395C41.1915 53.1573 42.9282 52.468 44.37 51.3303C45.2989 53.146 47.1294 54.3487 49.5137 54.3766C50.7825 54.3973 52.0464 54.0892 53.2648 53.5387C54.1567 54.1331 55.2769 54.4688 56.509 54.5112C60.5761 54.5858 64.8106 51.3096 66.2984 47.0793C69.7263 46.0796 72.8348 42.9887 73.8423 39.2686C74.7311 35.9705 73.6974 33.0773 71.4137 31.706C72.5927 30.3917 73.5122 28.8359 73.9652 27.1404C75.211 22.576 72.7329 18.7917 68.4523 18.7183C66.7325 18.6935 64.9797 19.2475 63.415 20.25C64.4262 15.8441 61.9836 12.2669 57.8099 12.1929C55.5925 12.1497 53.2934 13.1283 51.4353 14.6967C51.2874 11.6766 49.2183 9.45418 46.0762 9.39515C44.8308 9.3815 43.5902 9.69627 42.4185 10.2608C42.1797 7.37687 40.1267 5.28988 37.0915 5.23018C34.5538 5.18901 31.9586 6.56932 30.118 8.66624C29.4896 6.15631 27.4515 4.43361 24.5932 4.39435C20.396 4.3133 15.9895 7.89765 14.7841 12.3764C13.9434 15.4598 14.8443 18.1825 16.864 19.6055C16.3556 20.4015 15.9639 21.2324 15.6988 22.134C14.6911 25.8541 16.6889 28.9058 20.175 28.9696C20.7792 28.9874 21.4143 28.8834 22.0161 28.7367C21.6454 29.4103 21.3542 30.1409 21.1568 30.8991C19.9956 35.2273 22.3314 38.8051 26.3985 38.8798C27.0863 38.8896 27.7913 38.8067 28.4901 38.6238C28.3281 38.9676 28.2126 39.3254 28.1206 39.6905C27.1129 43.4107 29.1108 46.4622 32.5969 46.526C33.4383 46.5493 34.2908 46.3796 35.1039 46.0672C35.0632 46.1534 35.0461 46.2463 35.0289 46.3391C34.0212 50.0596 36.019 53.111 39.5049 53.1751L39.4951 53.1395Z" fill="#638A55"/>
<path d="M37.1781 51.161C38.8061 51.1781 40.4726 50.5167 41.8563 49.4249C42.7477 51.1672 44.5042 52.3214 46.7923 52.3482C48.0099 52.368 49.2228 52.0724 50.392 51.5441C51.2479 52.1145 52.3229 52.4367 53.5053 52.4774C57.4081 52.549 61.4717 49.405 62.8995 45.3455C66.189 44.3862 69.172 41.42 70.1388 37.8501C70.9917 34.6851 69.9997 31.9087 67.8083 30.5927C68.9396 29.3315 69.822 27.8385 70.2567 26.2115C71.4523 21.8314 69.0742 18.1998 64.9663 18.1294C63.316 18.1056 61.634 18.6372 60.1324 19.5993C61.1028 15.3712 58.7588 11.9384 54.7536 11.8674C52.6257 11.826 50.4194 12.7651 48.6363 14.2701C48.4944 11.372 46.5089 9.23925 43.4936 9.18261C42.2984 9.16951 41.1079 9.47157 39.9836 10.0133C39.7544 7.24581 37.7843 5.24307 34.8716 5.18578C32.4364 5.14626 29.9459 6.47085 28.1796 8.48312C27.5766 6.07452 25.6208 4.42136 22.8778 4.38368C18.8501 4.30591 14.6215 7.74556 13.4648 12.0435C12.6579 15.0025 13.5225 17.6152 15.4606 18.9807C14.9728 19.7447 14.5969 20.542 14.3425 21.4072C13.3755 24.9772 15.2927 27.9056 18.638 27.9668C19.2178 27.9839 19.8273 27.8841 20.4048 27.7433C20.049 28.3898 19.7696 29.0909 19.5802 29.8185C18.4659 33.972 20.7074 37.4053 24.6102 37.4769C25.2703 37.4864 25.9468 37.4068 26.6175 37.2313C26.4619 37.5612 26.3512 37.9046 26.2629 38.2549C25.2958 41.8249 27.2131 44.7533 30.5584 44.8145C31.3659 44.8368 32.184 44.674 32.9642 44.3743C32.9252 44.4569 32.9088 44.5461 32.8922 44.6352C31.9253 48.2055 33.8424 51.1336 37.1876 51.1952L37.1781 51.161Z" fill="#9BBA74"/>
</g>
<defs>
<filter id="filter0_d_197_406" x="9.16357" y="4.38239" width="69.124" height="58.1301" filterUnits="userSpaceOnUse" color-interpolation-filters="sRGB">
<feFlood flood-opacity="0" result="BackgroundImageFix"/>
<feColorMatrix in="SourceAlpha" type="matrix" values="0 0 0 0 0 0 0 0 0 0 0 0 0 0 0 0 0 0 127 0" result="hardAlpha"/>
<feOffset dy="4"/>
<feGaussianBlur stdDeviation="2"/>
<feComposite in2="hardAlpha" operator="out"/>
<feColorMatrix type="matrix" values="0 0 0 0 0 0 0 0 0 0 0 0 0 0 0 0 0 0 0.25 0"/>
<feBlend mode="normal" in2="BackgroundImageFix" result="effect1_dropShadow_197_406"/>
<feBlend mode="normal" in="SourceGraphic" in2="effect1_dropShadow_197_406" result="shape"/>
</filter>
</defs>
</svg>
