<svg width="253" height="188" viewBox="0 0 253 188" fill="none" xmlns="http://www.w3.org/2000/svg">
<g filter="url(#filter0_d_197_405)">
<path d="M163.654 149.955C145.63 158.326 124.292 156.962 111.329 147.552C108.974 149.042 106.818 150.439 104.046 151.727C83.8456 161.108 58.9114 157.458 48.3205 143.388C39.3851 131.517 43.6564 115.884 57.9106 105.704C53.5028 103.4 49.5564 100.286 46.6885 96.4764C35.5466 81.6743 43.9283 61.5614 65.3163 51.6284C74.2305 47.4885 84.0918 45.6789 93.3857 46.3076C97.6674 37.7915 105.761 30.0768 117.049 24.8343C141.607 13.429 171.981 17.9165 184.777 34.9166C189.301 40.926 190.918 47.6904 190.29 54.3118C202.908 54.3863 214.872 58.9176 221.16 67.2717C231.309 80.7544 223.74 99.1053 204.133 108.211C198.587 110.787 192.578 112.392 186.611 112.986C190.551 126.387 181.677 141.585 164.05 149.771L163.654 149.955Z" fill="#638A55"/>
</g>
<g filter="url(#filter1_d_197_405)">
<path d="M146.876 102.485C172.577 119.956 198.299 137.531 224 155C224 146.5 224.5 131.004 223.5 130.5C201.972 119.659 170.177 107.627 148.628 96.6802C145.567 95.1457 142.432 99.2075 146.854 102.38L146.876 102.485Z" fill="#C48D60"/>
</g>
<g filter="url(#filter2_d_197_405)">
<path d="M131.452 145.958C161.841 140.607 192.245 135.284 222.634 129.933C219.168 128.509 215.609 127.153 212.142 125.73C186.247 131.534 160.245 137.378 134.335 143.155C130.653 143.982 126.228 146.794 131.437 145.931L131.452 145.958Z" fill="#C48D60"/>
</g>
<g filter="url(#filter3_d_197_405)">
<path d="M59.794 62.5745C71.1657 60.4067 82.2475 65.1387 84.5247 73.1344C86.8019 81.1302 79.4179 89.3822 68.0462 91.5499C56.6745 93.7176 45.5927 88.9857 43.3155 80.9899C41.0383 72.9942 48.4223 64.7422 59.794 62.5745ZM105.186 18.5568C124.446 14.8854 143.216 22.8998 147.072 36.4422C150.929 49.9846 138.423 63.9609 119.163 67.6323C99.9029 71.3038 81.1337 63.2894 77.2768 49.747C73.4199 36.2046 85.9262 22.2283 105.186 18.5568ZM73.6321 31.4522C94.3264 27.5073 114.493 36.1185 118.637 50.6694C122.782 65.2202 109.344 80.2373 88.6496 84.1822C67.9552 88.1271 47.7883 79.5158 43.6442 64.965C39.5001 50.4141 52.9377 35.397 73.6321 31.4522ZM139.978 26.6485C161.389 22.567 182.255 31.4766 186.543 46.5317C190.83 61.5868 176.927 77.1243 155.516 81.2059C134.104 85.2874 113.238 76.3778 108.951 61.3227C104.663 46.2676 118.566 30.7301 139.978 26.6485ZM62.8783 70.6557C83.9825 66.6327 104.549 75.4145 108.775 90.2534C113.001 105.092 99.2974 120.407 78.1933 124.43C57.0891 128.453 36.5228 119.671 32.2967 104.832C28.0705 89.9931 41.7742 74.6787 62.8783 70.6557ZM167.353 62.2991C185.794 58.7838 203.764 66.4572 207.457 79.4233C211.15 92.3894 199.176 105.771 180.735 109.286C162.294 112.801 144.324 105.128 140.631 92.162C136.938 79.1959 148.912 65.8143 167.353 62.2991ZM149.355 89.8109C165.44 86.7448 181.114 93.4377 184.335 104.747C187.556 116.056 177.112 127.728 161.027 130.794C144.943 133.86 129.269 127.167 126.048 115.858C122.827 104.549 133.271 92.877 149.355 89.8109ZM89.8777 92.6173C110.06 88.7701 129.728 97.1681 133.769 111.359C137.811 125.55 124.706 140.195 104.524 144.042C84.3414 147.889 64.6736 139.491 60.6321 125.301C56.5906 111.11 69.6955 96.4645 89.8777 92.6173ZM107.271 35.4977C145.382 28.2329 182.521 44.0913 190.152 70.8879C197.784 97.6845 173.038 125.34 134.927 132.605C96.8168 139.869 59.6778 124.011 52.0461 97.2144C44.4144 70.4178 69.1608 42.7626 107.271 35.4977Z" fill="#9BBA74"/>
</g>
<g filter="url(#filter4_d_197_405)">
<path d="M73.5896 51.487C73.6299 52.2486 73.331 52.8446 72.6928 53.2749C73.0586 53.3878 73.3709 53.5989 73.6296 53.9083C73.8883 54.2177 74.0334 54.669 74.0648 55.2622C74.0958 55.848 73.9007 56.3247 73.4795 56.6921C73.0657 57.0592 72.4524 57.2642 71.6395 57.3073L69.0471 57.4445C68.9226 57.4511 68.818 57.4162 68.7332 57.3399C68.6479 57.2563 68.6017 57.1449 68.5943 57.0058L68.2222 49.9756C68.2179 49.8951 68.2262 49.8432 68.247 49.8201C68.2747 49.7893 68.3289 49.7717 68.4094 49.7675L70.9139 49.6349C72.6275 49.5442 73.5194 50.1616 73.5896 51.487ZM70.4149 51.4458L70.4911 52.8848L70.546 52.8819C71.249 52.8447 71.5882 52.5917 71.5633 52.123C71.5498 51.8667 71.4703 51.6837 71.325 51.5739C71.187 51.4637 70.9605 51.4169 70.6456 51.4336L70.4149 51.4458ZM70.5597 54.181L70.6353 55.609L70.833 55.5985C71.1479 55.5818 71.3755 55.511 71.5158 55.3861C71.656 55.2612 71.7194 55.0706 71.7058 54.8143C71.6922 54.558 71.6132 54.3822 71.4686 54.2871C71.3314 54.1915 71.1053 54.1521 70.7904 54.1687L70.5597 54.181ZM78.4548 49.5992C78.5364 49.3379 78.9983 49.1849 79.8405 49.1403C80.0529 49.1291 80.3026 49.1305 80.5898 49.1447C80.8842 49.1585 81.0217 49.188 81.002 49.2331L78.9603 53.9456L79.1022 56.6258C79.1087 56.7503 78.912 56.8488 78.512 56.9214C78.3085 56.9616 78.1078 56.9869 77.9101 56.9973C77.7124 57.0078 77.5141 57.0073 77.3152 56.9958C76.9097 56.9659 76.7035 56.885 76.6965 56.7532L76.5581 54.1388L73.9511 49.6283C73.9194 49.5859 74.0674 49.5377 74.395 49.4837C74.7222 49.4223 74.9994 49.3856 75.2264 49.3736C76.1271 49.3259 76.6284 49.4315 76.7302 49.6905L77.6507 51.8889L78.4548 49.5992ZM83.8217 56.1557L83.4728 49.5649C83.4631 49.3818 83.4995 49.2367 83.582 49.1295C83.6714 49.0146 83.7893 48.9533 83.9357 48.9456L85.7702 48.8485C86.9345 48.7868 87.8325 49.033 88.464 49.5871C89.1028 50.1408 89.4556 51.0474 89.5222 52.307C89.6649 55.0019 88.5865 56.4102 86.2871 56.5319L84.4087 56.6313C84.0352 56.6511 83.8396 56.4925 83.8217 56.1557ZM85.661 50.9472L85.8348 54.2316C85.843 54.3854 85.8592 54.4836 85.8835 54.5264C85.9074 54.5619 85.9743 54.5767 86.0841 54.5709C86.4869 54.5496 86.7828 54.3833 86.972 54.0722C87.1685 53.7608 87.2483 53.2572 87.2115 52.5615C87.1743 51.8585 87.0402 51.4066 86.8092 51.2058C86.5856 51.0047 86.2395 50.9165 85.7708 50.9414L85.661 50.9472ZM93.8856 56.2398C92.8603 56.2941 92.004 56.0016 91.3166 55.3624C90.6365 54.7228 90.2623 53.7585 90.1941 52.4697C90.1255 51.1735 90.3994 50.1749 91.0159 49.474C91.6397 48.7728 92.4679 48.3948 93.5004 48.3401C94.5403 48.2851 95.3962 48.5702 96.0682 49.1956C96.7399 49.8136 97.1109 50.789 97.1815 52.1218C97.2517 53.4473 96.9781 54.4532 96.3609 55.1394C95.7432 55.8184 94.9181 56.1852 93.8856 56.2398ZM93.5901 50.4503C93.2386 50.4689 92.9505 50.6458 92.7259 50.9808C92.5087 51.3154 92.4155 51.7756 92.4465 52.3615C92.4772 52.94 92.6143 53.3807 92.858 53.6836C93.1013 53.9791 93.406 54.1172 93.7722 54.0978C94.1456 54.078 94.4376 53.9047 94.6479 53.5778C94.8656 53.2505 94.9589 52.7939 94.9279 52.2081C94.8969 51.6222 94.7522 51.1783 94.4939 50.8762C94.2429 50.5737 93.9416 50.4317 93.5901 50.4503ZM98.8908 53.9701L98.6838 50.0595L97.9038 50.1008C97.7794 50.1074 97.6831 49.9546 97.6152 49.6424C97.5851 49.4898 97.5658 49.3329 97.5573 49.1718C97.5487 49.0107 97.5514 48.8527 97.5652 48.6978C97.5998 48.3802 97.6793 48.2181 97.8038 48.2115L101.495 48.0161C101.619 48.0095 101.712 48.1625 101.772 48.4751C101.81 48.6273 101.833 48.784 101.841 48.9451C101.85 49.1062 101.843 49.2644 101.822 49.4197C101.795 49.737 101.719 49.8989 101.595 49.9054L100.859 49.9444L101.066 53.8549L101.835 53.8142C101.959 53.8076 102.055 53.9604 102.123 54.2726C102.161 54.4248 102.184 54.5815 102.192 54.7426C102.201 54.9037 102.194 55.062 102.173 55.2173C102.139 55.5349 102.059 55.697 101.935 55.7036L98.2328 55.8995C98.1083 55.9061 98.0158 55.7531 97.9552 55.4406C97.9177 55.2883 97.8948 55.1317 97.8862 54.9706C97.8777 54.8095 97.884 54.6512 97.9052 54.4959C97.9324 54.1787 98.0083 54.0168 98.1328 54.0102L98.8908 53.9701ZM108.982 55.0882C108.99 55.242 108.65 55.3371 107.961 55.3735C107.273 55.41 106.897 55.3748 106.832 55.2681L104.816 51.938L104.997 55.3542C105.004 55.486 104.667 55.5699 103.986 55.606C103.312 55.6417 102.972 55.5936 102.965 55.4618L102.576 48.1131C102.57 48.0032 102.857 47.933 103.435 47.9024C103.662 47.8903 103.927 47.8984 104.23 47.9264C104.539 47.9467 104.73 48.0101 104.801 48.1164L106.738 51.4067L106.555 47.9575C106.548 47.8184 106.885 47.7308 107.566 47.6947C108.247 47.6587 108.591 47.7102 108.599 47.8493L108.982 55.0882ZM114.041 52.7605L113.984 51.2655C113.978 51.1629 114.081 51.0914 114.292 51.0509C114.502 51.003 114.677 50.9754 114.816 50.968L115.246 50.9783C115.527 51.0075 115.67 51.0771 115.676 51.1869L115.814 54.6274C115.673 54.7377 115.382 54.8559 114.94 54.9821C114.506 55.1005 114.003 55.1749 113.432 55.2051C112.37 55.2613 111.495 54.9625 110.807 54.3086C110.119 53.6548 109.739 52.6614 109.669 51.3286C109.609 50.1936 109.878 49.254 110.478 48.5099C111.077 47.7659 111.941 47.364 113.069 47.3043C113.581 47.2771 114.046 47.304 114.461 47.3848C114.884 47.4579 115.176 47.5746 115.339 47.7349C115.349 47.7931 115.359 47.9027 115.367 48.0638C115.376 48.2249 115.333 48.4585 115.239 48.7646C115.145 49.0633 115.032 49.2896 114.9 49.4434C114.769 49.5973 114.67 49.6759 114.605 49.6794C114.546 49.6825 114.479 49.6604 114.403 49.613C114.334 49.5579 114.195 49.5065 113.987 49.4588C113.778 49.4037 113.579 49.3812 113.389 49.3913C112.935 49.4153 112.573 49.5814 112.302 49.8894C112.04 50.1971 111.925 50.6585 111.957 51.2736C111.99 51.8887 112.157 52.3498 112.46 52.6569C112.77 52.9563 113.111 53.0961 113.485 53.0764C113.865 53.0562 114.051 52.9509 114.041 52.7605ZM122.288 54.4499C122.295 54.5964 121.937 54.6888 121.212 54.7272C120.487 54.7656 120.121 54.7115 120.113 54.5651L119.821 49.0508L118.503 49.1206C118.378 49.1272 118.281 48.9634 118.212 48.6292C118.182 48.4693 118.162 48.3051 118.153 48.1367C118.144 47.9682 118.147 47.8029 118.16 47.6406C118.193 47.301 118.272 47.128 118.397 47.1214L123.175 46.8684C123.3 46.8618 123.397 47.0256 123.466 47.3598C123.496 47.5197 123.516 47.6839 123.525 47.8523C123.534 48.0208 123.531 48.1861 123.518 48.3484C123.484 48.688 123.406 48.861 123.281 48.8676L121.996 48.9357L122.288 54.4499ZM130.47 54.0058C130.477 54.1303 130.11 54.2121 129.371 54.2513C128.631 54.2904 128.258 54.2477 128.251 54.1232L128.118 51.5968L126.58 51.6782L126.713 54.2047C126.72 54.3291 126.354 54.411 125.614 54.4501C124.874 54.4893 124.501 54.4466 124.495 54.3221L124.109 47.0393C124.101 46.8855 124.467 46.7891 125.206 46.7499C125.946 46.7108 126.32 46.7681 126.328 46.9219L126.465 49.5032L128.002 49.4218L127.867 46.8624C127.862 46.7599 128.041 46.677 128.405 46.6136C128.594 46.5889 128.781 46.5717 128.964 46.562L129.525 46.5543C129.893 46.5789 130.08 46.6424 130.086 46.745L130.47 54.0058ZM132.199 52.2069L131.992 48.2964L131.212 48.3377C131.087 48.3443 130.991 48.1915 130.923 47.8793C130.893 47.7267 130.874 47.5698 130.865 47.4087C130.857 47.2476 130.859 47.0896 130.873 46.9346C130.908 46.617 130.987 46.4549 131.112 46.4483L134.803 46.2529C134.927 46.2464 135.02 46.3993 135.08 46.7119C135.118 46.8641 135.141 47.0208 135.149 47.1819C135.158 47.343 135.151 47.5012 135.13 47.6566C135.103 47.9738 135.027 48.1357 134.903 48.1423L134.167 48.1813L134.374 52.0918L135.142 52.0511C135.267 52.0445 135.363 52.1973 135.431 52.5095C135.469 52.6617 135.492 52.8184 135.5 52.9795C135.509 53.1406 135.502 53.2988 135.481 53.4541C135.447 53.7717 135.367 53.9338 135.243 53.9404L131.541 54.1364C131.416 54.143 131.324 53.99 131.263 53.6774C131.226 53.5252 131.203 53.3685 131.194 53.2074C131.186 53.0463 131.192 52.8881 131.213 52.7327C131.24 52.4155 131.316 52.2536 131.441 52.247L132.199 52.2069ZM136.427 51.19C136.572 51.2925 136.817 51.43 137.164 51.6026C137.519 51.7747 137.85 51.8527 138.157 51.8364C138.472 51.8197 138.623 51.6906 138.61 51.4489C138.605 51.3391 138.556 51.2462 138.463 51.1703C138.371 51.0871 138.205 50.9967 137.964 50.8993C137.724 50.8019 137.544 50.7269 137.424 50.6746C137.303 50.6149 137.14 50.5207 136.935 50.392C136.737 50.2556 136.583 50.1132 136.472 49.9649C136.157 49.563 135.982 49.0398 135.948 48.3954C135.914 47.7509 136.123 47.1964 136.576 46.7319C137.036 46.2596 137.654 46.0029 138.43 45.9618C138.957 45.9339 139.447 45.9667 139.9 46.0602C140.353 46.1464 140.591 46.2807 140.616 46.463C140.617 46.4849 140.618 46.5069 140.619 46.5289C140.633 46.7852 140.569 47.1153 140.429 47.5193C140.289 47.9159 140.187 48.138 140.123 48.1854C139.641 47.9685 139.214 47.87 138.841 47.8898C138.474 47.9092 138.298 48.0507 138.312 48.3143C138.321 48.4754 138.464 48.611 138.741 48.7212C138.801 48.7474 138.888 48.7832 139 48.8286C139.113 48.8741 139.241 48.9297 139.384 48.9956C139.534 49.0538 139.692 49.1335 139.859 49.2348C140.033 49.3284 140.22 49.4581 140.419 49.6237C140.827 49.9694 141.047 50.4424 141.078 51.0429C141.12 51.8265 140.938 52.4787 140.532 52.9995C140.126 53.5204 139.473 53.8119 138.573 53.8743C138.134 53.8975 137.733 53.882 137.37 53.8278C137.015 53.7732 136.7 53.6467 136.425 53.4482C136.15 53.2498 136.005 53.0005 135.989 52.7002C135.973 52.4 136.012 52.1005 136.106 51.8018C136.2 51.4957 136.307 51.2918 136.427 51.19ZM147.486 53.1161C147.494 53.2625 147.135 53.355 146.41 53.3933C145.685 53.4317 145.319 53.3777 145.311 53.2312L145.019 47.7169L143.701 47.7867C143.576 47.7933 143.48 47.6295 143.41 47.2954C143.38 47.1354 143.36 46.9712 143.351 46.8028C143.342 46.6344 143.345 46.469 143.358 46.3068C143.392 45.9672 143.471 45.7941 143.595 45.7875L148.373 45.5346C148.498 45.528 148.595 45.6918 148.664 46.0259C148.694 46.1859 148.714 46.35 148.723 46.5185C148.732 46.6869 148.729 46.8523 148.716 47.0145C148.683 47.3541 148.604 47.5272 148.479 47.5338L147.194 47.6018L147.486 53.1161ZM154.588 52.9384C153.95 52.9722 153.601 52.8879 153.539 52.6855L153.101 51.2877L151.355 51.3801L151.108 52.7591C151.076 52.9884 150.731 53.1206 150.072 53.1554C149.72 53.1741 149.459 53.1695 149.289 53.1418C149.118 53.1068 149.032 53.0783 149.031 53.0563L150.582 45.5168C150.579 45.4582 151.079 45.4024 152.082 45.3493C153.085 45.2962 153.588 45.2989 153.591 45.3575L155.886 52.7045C155.889 52.7557 155.722 52.8049 155.387 52.852C155.052 52.8992 154.785 52.928 154.588 52.9384ZM151.555 49.9706L152.709 49.9095L152.094 47.6619L152.028 47.6653L151.555 49.9706ZM156.765 50.1134C156.91 50.2158 157.156 50.3534 157.503 50.5259C157.857 50.6981 158.188 50.7761 158.496 50.7598C158.811 50.7431 158.962 50.614 158.949 50.3723C158.943 50.2624 158.894 50.1696 158.802 50.0937C158.71 50.0104 158.543 49.9201 158.303 49.8227C158.063 49.7252 157.883 49.6503 157.762 49.5979C157.642 49.5382 157.479 49.444 157.274 49.3154C157.076 49.179 156.921 49.0366 156.811 48.8883C156.496 48.4863 156.321 47.9632 156.287 47.3187C156.253 46.6743 156.462 46.1198 156.915 45.6552C157.375 45.1829 157.992 44.9262 158.769 44.8852C159.296 44.8572 159.786 44.89 160.239 44.9836C160.692 45.0698 160.93 45.204 160.954 45.3863C160.955 45.4083 160.957 45.4303 160.958 45.4522C160.971 45.7085 160.908 46.0387 160.768 46.4427C160.627 46.8393 160.525 47.0613 160.462 47.1088C159.98 46.8919 159.553 46.7934 159.179 46.8132C158.813 46.8325 158.637 46.974 158.651 47.2377C158.659 47.3988 158.802 47.5344 159.08 47.6446C159.14 47.6707 159.227 47.7066 159.339 47.752C159.452 47.7975 159.579 47.8531 159.722 47.919C159.872 47.9771 160.031 48.0569 160.198 48.1582C160.372 48.2518 160.558 48.3814 160.758 48.5471C161.166 48.8927 161.385 49.3658 161.417 49.9663C161.459 50.7498 161.276 51.402 160.871 51.9229C160.465 52.4437 159.812 52.7353 158.912 52.7976C158.473 52.8209 158.072 52.8054 157.709 52.7512C157.354 52.6965 157.039 52.57 156.764 52.3716C156.489 52.1732 156.343 51.9239 156.328 51.6236C156.312 51.3234 156.351 51.0239 156.445 50.7251C156.539 50.4191 156.646 50.2152 156.765 50.1134ZM164.646 52.2297C164.652 52.3396 164.31 52.4127 163.622 52.4492L163.005 52.4488C162.638 52.4389 162.452 52.3973 162.448 52.3241L162.058 44.9534C162.051 44.8289 162.414 44.7473 163.146 44.7085C163.879 44.6697 164.248 44.7126 164.255 44.8371L164.403 47.6492L165.595 44.7662C165.641 44.6609 165.931 44.5942 166.465 44.5659C167.439 44.5143 167.956 44.5714 168.017 44.7371C168.017 44.7517 168.014 44.7666 168.008 44.7816L166.279 48.332L168.66 51.2792C168.661 51.2939 168.595 51.3598 168.461 51.477C168.14 51.7878 167.757 52.0394 167.312 52.2318C167.175 52.2905 167.038 52.3235 166.898 52.3308L166.634 52.3228C166.396 52.2766 166.205 52.1362 166.061 51.9015L164.682 49.5732L164.506 49.5825L164.646 52.2297ZM72.7256 64.9235C72.8072 64.6621 73.2691 64.5092 74.1113 64.4646C74.3237 64.4534 74.5734 64.4548 74.8606 64.469C75.155 64.4828 75.2925 64.5122 75.2728 64.5573L73.2311 69.2698L73.3729 71.9501C73.3795 72.0746 73.1828 72.1731 72.7827 72.2457C72.5793 72.2859 72.3786 72.3112 72.1809 72.3216C71.9832 72.3321 71.7849 72.3316 71.586 72.3201C71.1805 72.2901 70.9743 72.2093 70.9673 72.0774L70.8289 69.4631L68.2219 64.9526C68.1902 64.9102 68.3382 64.862 68.6658 64.8079C68.993 64.7465 69.2702 64.7098 69.4972 64.6978C70.3979 64.6502 70.8992 64.7558 71.001 65.0148L71.9215 67.2132L72.7256 64.9235ZM79.3172 72.032C78.2919 72.0863 77.4356 71.7938 76.7482 71.1546C76.0681 70.515 75.6939 69.5507 75.6257 68.2619C75.5571 66.9657 75.831 65.9671 76.4475 65.2662C77.0713 64.5649 77.8995 64.187 78.932 64.1323C79.9719 64.0773 80.8279 64.3624 81.4999 64.9878C82.1715 65.6058 82.5425 66.5812 82.6131 67.914C82.6833 69.2395 82.4097 70.2454 81.7925 70.9316C81.1748 71.6105 80.3497 71.9773 79.3172 72.032ZM79.0217 66.2425C78.6702 66.2611 78.3822 66.4379 78.1575 66.7729C77.9403 67.1076 77.8471 67.5678 77.8781 68.1536C77.9088 68.7322 78.0459 69.1729 78.2896 69.4757C78.5329 69.7713 78.8376 69.9094 79.2038 69.89C79.5773 69.8702 79.8692 69.6969 80.0795 69.37C80.2972 69.0427 80.3905 68.5861 80.3595 68.0003C80.3285 67.4144 80.1838 66.9704 79.9255 66.6683C79.6745 66.3658 79.3732 66.2239 79.0217 66.2425ZM86.894 64.0303C86.8862 63.8838 87.2778 63.7897 88.0687 63.7478C88.8669 63.7055 89.2699 63.7576 89.2776 63.9041L89.5445 68.946C89.5841 69.693 89.3491 70.3186 88.8397 70.8229C88.33 71.3199 87.6027 71.5934 86.6581 71.6434C85.7207 71.693 84.9427 71.4919 84.3239 71.0399C83.7121 70.5803 83.3843 69.9367 83.3405 69.1092L83.0829 64.243C83.0751 64.0966 83.4667 64.0024 84.2576 63.9605C85.0558 63.9183 85.4588 63.9704 85.4665 64.1169L85.7288 69.0709C85.7365 69.2174 85.8196 69.3305 85.9781 69.4102C86.1438 69.4896 86.3146 69.5246 86.4903 69.5153C86.6661 69.506 86.8214 69.4574 86.9563 69.3695C87.0985 69.2812 87.1653 69.1564 87.1568 68.9953L86.894 64.0303ZM97.8292 70.9639C97.1921 70.9977 96.8425 70.9134 96.7804 70.711L96.3429 69.3132L94.5963 69.4056L94.3499 70.7846C94.318 71.0139 93.9725 71.1461 93.3134 71.1809C92.9619 71.1996 92.7009 71.195 92.5306 71.1673C92.3598 71.1323 92.2739 71.1038 92.2727 71.0818L93.8233 63.5423C93.8202 63.4837 94.3203 63.4279 95.3236 63.3748C96.3268 63.3217 96.83 63.3244 96.8331 63.383L99.1277 70.73C99.1304 70.7812 98.9641 70.8304 98.6288 70.8775C98.2935 70.9247 98.027 70.9535 97.8292 70.9639ZM94.7971 67.9961L95.9505 67.935L95.3358 65.6874L95.2699 65.6908L94.7971 67.9961ZM101.953 70.5694C101.959 70.6866 101.615 70.7636 100.919 70.8004C100.216 70.8376 99.8615 70.8013 99.8557 70.6914L99.4766 63.5295C99.463 63.2732 99.5917 63.1378 99.8626 63.1235L101.961 63.0124C103.887 62.9105 104.889 63.6101 104.969 65.1113C104.993 65.5654 104.927 65.9838 104.771 66.3666C104.615 66.742 104.381 67.0481 104.07 67.2849L105.577 69.5184C105.527 69.6972 105.348 69.9087 105.037 70.1528C104.615 70.4909 104.261 70.6676 103.975 70.6827C103.689 70.6978 103.472 70.6065 103.322 70.4088L102.162 68.0579L101.821 68.0759L101.953 70.5694ZM101.657 64.9782L101.744 66.6259L101.799 66.623C102.495 66.5862 102.828 66.2785 102.797 65.7C102.783 65.4363 102.703 65.246 102.557 65.1288C102.419 65.004 102.195 64.9497 101.888 64.966L101.657 64.9782ZM109.667 65.6668C109.806 65.6594 109.889 65.912 109.916 66.4246C109.925 66.5784 109.916 66.7625 109.891 66.9768C109.872 67.1834 109.819 67.289 109.731 67.2937L108.336 67.3675L108.394 68.466L110.415 68.359C110.54 68.3524 110.633 68.509 110.694 68.8289C110.723 68.9669 110.742 69.1164 110.75 69.2775C110.759 69.4313 110.747 69.6339 110.717 69.8852C110.686 70.1365 110.619 70.2649 110.517 70.2703L106.76 70.4692C106.482 70.4839 106.336 70.3777 106.324 70.1507L105.951 63.0876C105.94 62.8972 106.02 62.7976 106.188 62.7886L110.121 62.5805C110.274 62.5723 110.368 62.8941 110.403 63.5459C110.437 64.1903 110.377 64.5166 110.223 64.5248L108.191 64.6323L108.25 65.7418L109.667 65.6668ZM119.796 69.5918C119.802 69.7163 119.436 69.7982 118.696 69.8373C117.957 69.8765 117.583 69.8338 117.577 69.7093L117.443 67.1828L115.905 67.2642L116.039 69.7907C116.046 69.9152 115.679 69.997 114.939 70.0362C114.2 70.0753 113.827 70.0327 113.82 69.9082L113.435 62.6254C113.426 62.4716 113.792 62.3751 114.532 62.336C115.271 62.2968 115.645 62.3541 115.654 62.5079L115.79 65.0893L117.328 65.0079L117.193 62.4485C117.187 62.3459 117.366 62.263 117.73 62.1997C117.92 62.175 118.106 62.1578 118.289 62.1481L118.851 62.1404C119.219 62.1649 119.406 62.2285 119.411 62.331L119.796 69.5918ZM124.224 64.8962C124.363 64.8888 124.446 65.1415 124.473 65.6541C124.481 65.8079 124.473 65.9919 124.447 66.2062C124.429 66.4128 124.376 66.5184 124.288 66.5231L122.893 66.5969L122.951 67.6954L124.972 67.5884C125.097 67.5818 125.189 67.7385 125.25 68.0584C125.28 68.1963 125.299 68.3459 125.307 68.507C125.315 68.6608 125.304 68.8633 125.273 69.1146C125.243 69.3659 125.176 69.4943 125.073 69.4997L121.317 69.6986C121.038 69.7133 120.893 69.6072 120.881 69.3802L120.507 62.3171C120.497 62.1267 120.576 62.027 120.745 62.0181L124.677 61.8099C124.831 61.8018 124.925 62.1236 124.96 62.7753C124.994 63.4198 124.934 63.7461 124.78 63.7542L122.748 63.8618L122.807 64.9712L124.224 64.8962ZM126.172 68.7917L125.811 61.9592C125.802 61.8054 126.168 61.709 126.908 61.6698C127.655 61.6303 128.032 61.6874 128.04 61.8412L128.325 67.2236L130.017 67.1341C130.149 67.1271 130.249 67.2944 130.319 67.6358C130.35 67.8031 130.37 67.9746 130.379 68.1504C130.389 68.3261 130.387 68.5061 130.375 68.6904C130.335 69.045 130.249 69.2258 130.117 69.2327L126.734 69.4118C126.573 69.4204 126.441 69.3612 126.339 69.2345C126.237 69.1077 126.181 68.9601 126.172 68.7917ZM132.047 69.1526C131.38 69.1879 131.043 69.1323 131.036 68.9858L130.659 61.8678C130.646 61.6188 130.753 61.4883 130.98 61.4763L132.913 61.374C133.997 61.3166 134.788 61.4987 135.288 61.9202C135.795 62.3413 136.071 62.9766 136.116 63.8261C136.153 64.5291 135.96 65.1855 135.537 65.7954C135.326 66.1004 135.005 66.3523 134.575 66.5514C134.145 66.7504 133.637 66.8654 133.051 66.8964L133.155 68.8626C133.16 68.9505 133.024 69.0201 132.748 69.0715C132.478 69.1151 132.245 69.1422 132.047 69.1526ZM132.86 63.2934L132.952 65.029L133.095 65.0214C133.351 65.0079 133.563 64.9159 133.73 64.7455C133.897 64.5751 133.973 64.3434 133.958 64.0505C133.942 63.7576 133.869 63.5521 133.738 63.4342C133.614 63.3159 133.399 63.2649 133.091 63.2812L132.86 63.2934ZM137.98 66.9219L137.773 63.0114L136.993 63.0527C136.868 63.0592 136.772 62.9064 136.704 62.5943C136.674 62.4416 136.655 62.2848 136.646 62.1237C136.638 61.9626 136.64 61.8045 136.654 61.6496C136.689 61.332 136.768 61.1699 136.893 61.1633L140.584 60.9679C140.708 60.9613 140.801 61.1143 140.861 61.4269C140.899 61.5791 140.922 61.7358 140.93 61.8969C140.939 62.058 140.932 62.2162 140.911 62.3716C140.884 62.6888 140.808 62.8507 140.684 62.8573L139.948 62.8962L140.155 66.8068L140.924 66.7661C141.048 66.7595 141.144 66.9123 141.212 67.2244C141.25 67.3767 141.273 67.5333 141.281 67.6945C141.29 67.8556 141.283 68.0138 141.262 68.1691C141.228 68.4867 141.148 68.6488 141.024 68.6554L137.322 68.8514C137.197 68.858 137.105 68.705 137.044 68.3924C137.007 68.2402 136.984 68.0835 136.975 67.9224C136.967 67.7613 136.973 67.6031 136.994 67.4477C137.021 67.1305 137.097 66.9686 137.222 66.962L137.98 66.9219ZM148.071 68.04C148.079 68.1938 147.739 68.2889 147.05 68.3254C146.362 68.3618 145.986 68.3267 145.921 68.2199L143.905 64.8898L144.086 68.306C144.093 68.4378 143.756 68.5218 143.075 68.5578C142.401 68.5935 142.061 68.5454 142.054 68.4136L141.665 61.0649C141.659 60.955 141.946 60.8848 142.524 60.8542C142.751 60.8422 143.016 60.8502 143.318 60.8782C143.628 60.8986 143.819 60.9619 143.89 61.0683L145.827 64.3585L145.644 60.9093C145.637 60.7702 145.974 60.6826 146.655 60.6465C147.336 60.6105 147.68 60.662 147.688 60.8012L148.071 68.04ZM153.13 65.7124L153.072 64.2173C153.067 64.1148 153.17 64.0432 153.381 64.0027C153.591 63.9549 153.766 63.9272 153.905 63.9199L154.335 63.9302C154.616 63.9594 154.759 64.0289 154.765 64.1387L154.903 67.5792C154.762 67.6895 154.471 67.8077 154.029 67.9339C153.595 68.0524 153.092 68.1267 152.521 68.157C151.459 68.2132 150.584 67.9143 149.896 67.2605C149.208 66.6066 148.828 65.6133 148.758 64.2805C148.698 63.1454 148.967 62.2058 149.567 61.4617C150.166 60.7177 151.03 60.3158 152.158 60.2561C152.67 60.229 153.134 60.2558 153.55 60.3366C153.972 60.4097 154.265 60.5264 154.428 60.6867C154.438 60.7449 154.448 60.8546 154.456 61.0157C154.465 61.1768 154.422 61.4104 154.328 61.7164C154.234 62.0152 154.121 62.2414 153.989 62.3953C153.858 62.5491 153.759 62.6278 153.693 62.6312C153.635 62.6343 153.568 62.6122 153.492 62.5648C153.423 62.5097 153.284 62.4583 153.076 62.4106C152.867 62.3555 152.668 62.333 152.478 62.3431C152.023 62.3672 151.661 62.5332 151.391 62.8412C151.129 63.1489 151.013 63.6103 151.046 64.2254C151.079 64.8406 151.246 65.3017 151.549 65.6088C151.858 65.9082 152.2 66.048 152.573 66.0282C152.954 66.008 153.14 65.9028 153.13 65.7124ZM73.3808 87.0808C73.3885 87.2273 73.0299 87.3197 72.3049 87.3581C71.58 87.3965 71.2136 87.3424 71.2058 87.196L70.9139 81.6817L69.5958 81.7515C69.4713 81.7581 69.3745 81.5943 69.3054 81.2601C69.2749 81.1002 69.2552 80.936 69.2463 80.7676C69.2374 80.5991 69.2396 80.4338 69.2531 80.2715C69.2865 79.9319 69.3655 79.7589 69.4899 79.7523L74.2683 79.4993C74.3928 79.4927 74.4895 79.6565 74.5586 79.9907C74.5891 80.1506 74.6088 80.3148 74.6178 80.4832C74.6267 80.6517 74.6244 80.817 74.611 80.9793C74.5775 81.3188 74.4986 81.4919 74.3741 81.4985L73.0889 81.5666L73.3808 87.0808ZM81.5632 86.6367C81.5698 86.7612 81.2033 86.843 80.4637 86.8821C79.724 86.9213 79.3509 86.8786 79.3443 86.7541L79.2106 84.2277L77.6728 84.3091L77.8065 86.8355C77.8131 86.96 77.4466 87.0419 76.7069 87.081C75.9673 87.1202 75.5942 87.0775 75.5876 86.953L75.2021 79.6702C75.1939 79.5164 75.5597 79.4199 76.2993 79.3808C77.0389 79.3416 77.4128 79.399 77.421 79.5527L77.5576 82.1341L79.0955 82.0527L78.96 79.4933C78.9546 79.3908 79.1338 79.3079 79.4976 79.2445C79.6872 79.2198 79.8736 79.2026 80.0566 79.1929L80.618 79.1852C80.9865 79.2098 81.1735 79.2733 81.1789 79.3758L81.5632 86.6367ZM85.9913 81.941C86.1304 81.9337 86.2136 82.1863 86.2407 82.6989C86.2489 82.8527 86.2402 83.0368 86.2149 83.2511C86.1964 83.4577 86.1433 83.5633 86.0554 83.5679L84.6603 83.6418L84.7185 84.7402L86.7397 84.6332C86.8642 84.6267 86.9569 84.7833 87.0179 85.1032C87.0472 85.2412 87.0662 85.3907 87.0747 85.5518C87.0828 85.7056 87.0715 85.9082 87.0408 86.1595C87.01 86.4108 86.9434 86.5391 86.8408 86.5446L83.0841 86.7434C82.8058 86.7582 82.6607 86.652 82.6487 86.425L82.2748 79.3619C82.2647 79.1715 82.3439 79.0718 82.5123 79.0629L86.4448 78.8548C86.5986 78.8466 86.6927 79.1684 86.7272 79.8202C86.7613 80.4646 86.7015 80.7909 86.5477 80.799L84.5156 80.9066L84.5743 82.0161L85.9913 81.941ZM89.4345 78.8067C89.4082 78.7273 89.7759 78.6674 90.5375 78.6271C91.3797 78.5825 91.8154 78.6292 91.8448 78.7672L92.6278 83.3632L93.5445 78.6221C93.5753 78.5104 93.858 78.4403 94.3926 78.412C94.9271 78.3837 95.2155 78.4199 95.2575 78.5204L96.6493 83.1724L97.0393 78.4702C97.0497 78.3889 97.2152 78.325 97.5359 78.2787C97.8566 78.2323 98.1158 78.2039 98.3135 78.1934C99.0824 78.1527 99.4586 78.1842 99.4421 78.2879L98.4984 85.6411C98.475 85.7525 98.2705 85.8441 97.8851 85.9159C97.4997 85.9877 97.1862 86.03 96.9445 86.0428C96.0364 86.0909 95.555 86.0135 95.5002 85.8108L94.5933 82.8296L93.9398 85.8824C93.9175 86.0158 93.6662 86.1245 93.186 86.2087C92.9382 86.2438 92.6898 86.268 92.4408 86.2812L91.736 86.2854C91.25 86.2598 90.9888 86.1818 90.9526 86.0515L89.4345 78.8067ZM103.678 85.7635C102.652 85.8177 101.796 85.5253 101.109 84.886C100.429 84.2464 100.054 83.2822 99.9862 81.9933C99.9176 80.6971 100.192 79.6986 100.808 78.9977C101.432 78.2964 102.26 77.9184 103.293 77.8638C104.332 77.8087 105.188 78.0939 105.86 78.7192C106.532 79.3373 106.903 80.3127 106.974 81.6455C107.044 82.971 106.77 83.9768 106.153 84.6631C105.535 85.342 104.71 85.7088 103.678 85.7635ZM103.382 79.974C103.031 79.9926 102.743 80.1694 102.518 80.5044C102.301 80.839 102.208 81.2993 102.239 81.8851C102.269 82.4636 102.406 82.9043 102.65 83.2072C102.893 83.5028 103.198 83.6409 103.564 83.6215C103.938 83.6017 104.23 83.4284 104.44 83.1015C104.658 82.7742 104.751 82.3176 104.72 81.7317C104.689 81.1459 104.544 80.7019 104.286 80.3998C104.035 80.0973 103.734 79.9554 103.382 79.974ZM110.148 85.1566C110.154 85.2738 109.809 85.3508 109.114 85.3876C108.411 85.4248 108.056 85.3885 108.05 85.2787L107.671 78.1167C107.658 77.8604 107.786 77.725 108.057 77.7107L110.155 77.5996C112.081 77.4977 113.084 78.1973 113.164 79.6986C113.188 80.1526 113.122 80.571 112.966 80.9538C112.809 81.3292 112.576 81.6353 112.265 81.8721L113.771 84.1056C113.722 84.2844 113.542 84.4959 113.232 84.74C112.809 85.0781 112.455 85.2548 112.17 85.2699C111.884 85.285 111.666 85.1937 111.516 84.996L110.356 82.6451L110.016 82.6631L110.148 85.1566ZM109.852 79.5654L109.939 81.2131L109.994 81.2102C110.69 81.1734 111.022 80.8657 110.992 80.2872C110.978 80.0236 110.898 79.8332 110.752 79.7161C110.613 79.5912 110.39 79.5369 110.083 79.5532L109.852 79.5654ZM114.393 84.4362L114.031 77.6038C114.023 77.45 114.389 77.3535 115.129 77.3144C115.875 77.2748 116.253 77.3319 116.261 77.4857L116.546 82.8682L118.238 82.7786C118.37 82.7717 118.47 82.9389 118.54 83.2804C118.571 83.4476 118.591 83.6192 118.6 83.7949C118.609 83.9707 118.608 84.1507 118.595 84.3349C118.555 84.6895 118.47 84.8703 118.338 84.8773L114.955 85.0564C114.793 85.0649 114.662 85.0058 114.56 84.879C114.457 84.7522 114.402 84.6046 114.393 84.4362ZM119.284 84.3205L118.935 77.7297C118.925 77.5466 118.962 77.4015 119.044 77.2943C119.134 77.1795 119.252 77.1181 119.398 77.1104L121.232 77.0133C122.397 76.9516 123.295 77.1979 123.926 77.7519C124.565 78.3056 124.918 79.2122 124.984 80.4718C125.127 83.1667 124.049 84.575 121.749 84.6967L119.871 84.7961C119.497 84.8159 119.302 84.6574 119.284 84.3205ZM121.123 79.112L121.297 82.3964C121.305 82.5502 121.321 82.6485 121.346 82.6912C121.37 82.7267 121.436 82.7415 121.546 82.7357C121.949 82.7144 122.245 82.5482 122.434 82.2371C122.631 81.9256 122.711 81.422 122.674 80.7263C122.636 80.0233 122.502 79.5714 122.271 79.3706C122.048 79.1695 121.702 79.0814 121.233 79.1062L121.123 79.112ZM133.242 78.3714C133.282 79.133 132.983 79.7289 132.345 80.1593C132.711 80.2721 133.023 80.4832 133.282 80.7926C133.54 81.1021 133.685 81.5534 133.717 82.1465C133.748 82.7324 133.553 83.209 133.132 83.5765C132.718 83.9435 132.104 84.1486 131.291 84.1916L128.699 84.3288C128.575 84.3354 128.47 84.3005 128.385 84.2243C128.3 84.1406 128.254 84.0293 128.246 83.8901L127.874 76.86C127.87 76.7794 127.878 76.7276 127.899 76.7044C127.927 76.6736 127.981 76.656 128.061 76.6518L130.566 76.5192C132.28 76.4285 133.171 77.0459 133.242 78.3714ZM130.067 78.3301L130.143 79.7691L130.198 79.7662C130.901 79.729 131.24 79.476 131.215 79.0074C131.202 78.7511 131.122 78.568 130.977 78.4582C130.839 78.348 130.612 78.3012 130.298 78.3179L130.067 78.3301ZM130.212 81.0653L130.287 82.4933L130.485 82.4828C130.8 82.4662 131.027 82.3954 131.168 82.2704C131.308 82.1455 131.371 81.9549 131.358 81.6986C131.344 81.4423 131.265 81.2666 131.121 81.1714C130.983 81.0758 130.757 81.0364 130.442 81.0531L130.212 81.0653ZM138.107 76.4835C138.188 76.2222 138.65 76.0692 139.492 76.0247C139.705 76.0134 139.955 76.0149 140.242 76.029C140.536 76.0428 140.674 76.0723 140.654 76.1174L138.612 80.8299L138.754 83.5101C138.761 83.6346 138.564 83.7332 138.164 83.8058C137.96 83.8459 137.76 83.8712 137.562 83.8817C137.364 83.8921 137.166 83.8916 136.967 83.8801C136.562 83.8502 136.355 83.7693 136.349 83.6375L136.21 81.0231L133.603 76.5127C133.571 76.4703 133.719 76.422 134.047 76.368C134.374 76.3066 134.651 76.2699 134.878 76.2579C135.779 76.2102 136.28 76.3159 136.382 76.5748L137.303 78.7732L138.107 76.4835ZM71.0204 99.7153C71.1653 99.8178 71.4113 99.9553 71.7582 100.128C72.1125 100.3 72.4434 100.378 72.7509 100.362C73.0658 100.345 73.2169 100.216 73.2041 99.9742C73.1983 99.8644 73.1493 99.7715 73.0572 99.6956C72.9646 99.6124 72.7983 99.522 72.5581 99.4246C72.318 99.3271 72.1378 99.2522 72.0175 99.1998C71.8968 99.1401 71.734 99.0459 71.5289 98.9173C71.3307 98.7809 71.1763 98.6385 71.0657 98.4902C70.7506 98.0883 70.5761 97.5651 70.542 96.9207C70.5078 96.2762 70.7172 95.7217 71.1699 95.2571C71.6296 94.7848 72.2475 94.5282 73.0238 94.4871C73.551 94.4591 74.0411 94.492 74.494 94.5855C74.9466 94.6717 75.185 94.8059 75.2093 94.9882C75.2105 95.0102 75.2117 95.0322 75.2128 95.0541C75.2264 95.3104 75.1631 95.6406 75.0229 96.0446C74.8823 96.4412 74.7803 96.6633 74.7167 96.7107C74.2352 96.4938 73.8078 96.3953 73.4343 96.4151C73.0681 96.4344 72.892 96.5759 72.906 96.8396C72.9145 97.0007 73.0575 97.1363 73.3351 97.2465C73.3952 97.2727 73.4816 97.3085 73.5941 97.3539C73.7067 97.3994 73.8345 97.455 73.9775 97.5209C74.1274 97.579 74.2859 97.6588 74.4528 97.7601C74.6267 97.8537 74.8134 97.9833 75.0131 98.149C75.4206 98.4946 75.6403 98.9677 75.6721 99.5682C75.7136 100.352 75.5314 101.004 75.1257 101.525C74.72 102.046 74.0672 102.337 73.1672 102.4C72.7279 102.423 72.3268 102.407 71.9641 102.353C71.6087 102.298 71.2936 102.172 71.0187 101.974C70.7438 101.775 70.5985 101.526 70.5826 101.226C70.5667 100.925 70.6059 100.626 70.7002 100.327C70.7942 100.021 70.9009 99.8171 71.0204 99.7153ZM79.9088 94.442C79.901 94.2956 80.2926 94.2014 81.0835 94.1596C81.8817 94.1173 82.2847 94.1694 82.2924 94.3159L82.5593 99.3578C82.5989 100.105 82.364 100.73 81.8546 101.235C81.3448 101.732 80.6176 102.005 79.6729 102.055C78.7355 102.105 77.9575 101.904 77.3387 101.452C76.7269 100.992 76.3991 100.348 76.3553 99.521L76.0977 94.6548C76.0899 94.5083 76.4815 94.4142 77.2724 94.3723C78.0706 94.3301 78.4736 94.3822 78.4814 94.5286L78.7436 99.4827C78.7514 99.6292 78.8345 99.7423 78.9929 99.822C79.1586 99.9013 79.3294 99.9364 79.5052 99.9271C79.6809 99.9178 79.8362 99.8691 79.9711 99.7812C80.1133 99.6929 80.1801 99.5682 80.1716 99.4071L79.9088 94.442ZM84.5666 101.708C83.9002 101.743 83.5631 101.688 83.5554 101.541L83.1786 94.4232C83.1654 94.1742 83.2723 94.0437 83.4993 94.0317L85.4326 93.9293C86.5164 93.872 87.3082 94.054 87.8078 94.4755C88.3148 94.8967 88.5908 95.532 88.6357 96.3814C88.6729 97.0845 88.48 97.7409 88.057 98.3508C87.8455 98.6557 87.5247 98.9077 87.0946 99.1067C86.6646 99.3057 86.1566 99.4207 85.5707 99.4518L85.6748 101.418C85.6795 101.506 85.5436 101.575 85.2673 101.627C84.9979 101.67 84.7643 101.698 84.5666 101.708ZM85.38 95.8488L85.4719 97.5844L85.6147 97.5768C85.871 97.5632 86.0828 97.4713 86.25 97.3008C86.4172 97.1304 86.4931 96.8988 86.4776 96.6058C86.4621 96.3129 86.3888 96.1075 86.2577 95.9896C86.1339 95.8713 85.9183 95.8203 85.6107 95.8366L85.38 95.8488ZM90.8313 101.376C90.1649 101.412 89.8278 101.356 89.82 101.21L89.4432 94.0916C89.4301 93.8426 89.537 93.7121 89.764 93.7001L91.6973 93.5977C92.7811 93.5403 93.5728 93.7224 94.0725 94.1439C94.5795 94.565 94.8554 95.2004 94.9004 96.0498C94.9376 96.7528 94.7447 97.4093 94.3217 98.0192C94.1102 98.3241 93.7894 98.5761 93.3593 98.7751C92.9292 98.9741 92.4213 99.0891 91.8354 99.1201L91.9395 101.086C91.9441 101.174 91.8083 101.244 91.532 101.295C91.2626 101.339 91.029 101.366 90.8313 101.376ZM91.6447 95.5172L91.7366 97.2528L91.8794 97.2452C92.1357 97.2316 92.3474 97.1396 92.5147 96.9692C92.6819 96.7988 92.7577 96.5671 92.7422 96.2742C92.7267 95.9813 92.6534 95.7759 92.5224 95.658C92.3986 95.5397 92.1829 95.4887 91.8754 95.505L91.6447 95.5172ZM99.4074 101.011C98.3821 101.065 97.5258 100.772 96.8384 100.133C96.1583 99.4935 95.7841 98.5292 95.7159 97.2404C95.6473 95.9442 95.9212 94.9457 96.5377 94.2448C97.1615 93.5435 97.9897 93.1655 99.0222 93.1108C100.062 93.0558 100.918 93.3409 101.59 93.9663C102.262 94.5843 102.633 95.5597 102.703 96.8925C102.773 98.218 102.5 99.2239 101.883 99.9101C101.265 100.589 100.44 100.956 99.4074 101.011ZM99.1119 95.221C98.7604 95.2397 98.4723 95.4165 98.2477 95.7515C98.0305 96.0861 97.9373 96.5463 97.9683 97.1322C97.999 97.7107 98.1361 98.1514 98.3798 98.4543C98.6231 98.7498 98.9278 98.8879 99.294 98.8685C99.6675 98.8488 99.9594 98.6754 100.17 98.3485C100.387 98.0212 100.481 97.5646 100.45 96.9788C100.419 96.3929 100.274 95.949 100.016 95.6469C99.7647 95.3444 99.4634 95.2024 99.1119 95.221ZM105.878 100.404C105.884 100.521 105.539 100.598 104.843 100.635C104.14 100.672 103.786 100.636 103.78 100.526L103.401 93.3637C103.387 93.1074 103.516 92.9721 103.787 92.9578L105.885 92.8467C107.811 92.7447 108.814 93.4444 108.893 94.9456C108.917 95.3996 108.851 95.818 108.695 96.2008C108.539 96.5763 108.305 96.8824 107.995 97.1191L109.501 99.3526C109.452 99.5315 109.272 99.743 108.962 99.987C108.539 100.325 108.185 100.502 107.899 100.517C107.614 100.532 107.396 100.441 107.246 100.243L106.086 97.8921L105.746 97.9101L105.878 100.404ZM105.582 94.8125L105.669 96.4602L105.724 96.4573C106.419 96.4204 106.752 96.1128 106.721 95.5342C106.707 95.2706 106.627 95.0802 106.482 94.9631C106.343 94.8383 106.12 94.784 105.812 94.8003L105.582 94.8125ZM113.564 99.9747C113.572 100.121 113.213 100.214 112.488 100.252C111.763 100.29 111.397 100.236 111.389 100.09L111.097 94.5756L109.779 94.6454C109.654 94.652 109.558 94.4882 109.488 94.154C109.458 93.9941 109.438 93.8299 109.429 93.6615C109.42 93.493 109.423 93.3277 109.436 93.1654C109.47 92.8258 109.549 92.6528 109.673 92.6462L114.451 92.3932C114.576 92.3866 114.673 92.5504 114.742 92.8846C114.772 93.0445 114.792 93.2087 114.801 93.3771C114.81 93.5456 114.807 93.7109 114.794 93.8732C114.761 94.2128 114.682 94.3858 114.557 94.3924L113.272 94.4605L113.564 99.9747ZM116.406 98.1059L116.199 94.1954L115.419 94.2367C115.294 94.2433 115.198 94.0905 115.13 93.7783C115.1 93.6257 115.081 93.4688 115.072 93.3077C115.064 93.1466 115.066 92.9886 115.08 92.8336C115.115 92.516 115.194 92.3539 115.319 92.3473L119.009 92.152C119.134 92.1454 119.226 92.2983 119.287 92.6109C119.325 92.7632 119.348 92.9198 119.356 93.0809C119.365 93.242 119.358 93.4003 119.337 93.5556C119.31 93.8728 119.234 94.0347 119.109 94.0413L118.373 94.0803L118.58 97.9908L119.349 97.9501C119.474 97.9435 119.57 98.0963 119.638 98.4085C119.675 98.5607 119.698 98.7174 119.707 98.8785C119.716 99.0396 119.709 99.1978 119.688 99.3531C119.653 99.6708 119.574 99.8329 119.449 99.8394L115.748 100.035C115.623 100.042 115.531 99.889 115.47 99.5764C115.433 99.4242 115.41 99.2675 115.401 99.1064C115.392 98.9453 115.399 98.7871 115.42 98.6318C115.447 98.3145 115.523 98.1526 115.648 98.146L116.406 98.1059ZM126.497 99.2241C126.505 99.3778 126.165 99.473 125.476 99.5094C124.788 99.5458 124.411 99.5107 124.347 99.4039L122.331 96.0738L122.512 99.4901C122.519 99.6219 122.182 99.7058 121.501 99.7419C120.827 99.7775 120.487 99.7294 120.48 99.5976L120.091 92.2489C120.085 92.1391 120.371 92.0688 120.95 92.0382C121.177 92.0262 121.442 92.0342 121.744 92.0623C122.054 92.0826 122.244 92.1459 122.316 92.2523L124.253 95.5425L124.07 92.0934C124.063 91.9542 124.4 91.8666 125.081 91.8306C125.762 91.7945 126.106 91.8461 126.113 91.9852L126.497 99.2241ZM131.555 96.8964L131.498 95.4013C131.493 95.2988 131.596 95.2273 131.806 95.1867C132.017 95.1389 132.192 95.1113 132.331 95.1039L132.761 95.1142C133.041 95.1434 133.185 95.2129 133.191 95.3228L133.329 98.7633C133.188 98.8735 132.896 98.9918 132.455 99.1179C132.021 99.2364 131.518 99.3107 130.947 99.341C129.885 99.3972 129.01 99.0984 128.322 98.4445C127.634 97.7906 127.254 96.7973 127.184 95.4645C127.124 94.3294 127.393 93.3898 127.993 92.6458C128.592 91.9017 129.456 91.4998 130.584 91.4401C131.096 91.413 131.56 91.4398 131.976 91.5207C132.398 91.5938 132.691 91.7105 132.854 91.8707C132.864 91.9289 132.873 92.0386 132.882 92.1997C132.891 92.3608 132.848 92.5944 132.754 92.9005C132.66 93.1992 132.547 93.4255 132.415 93.5793C132.284 93.7331 132.185 93.8118 132.119 93.8153C132.061 93.8184 131.993 93.7962 131.918 93.7489C131.849 93.6938 131.71 93.6423 131.502 93.5946C131.293 93.5396 131.094 93.5171 130.903 93.5271C130.449 93.5512 130.087 93.7172 129.817 94.0253C129.554 94.3329 129.439 94.7943 129.472 95.4095C129.504 96.0246 129.672 96.4857 129.975 96.7928C130.284 97.0922 130.626 97.232 130.999 97.2122C131.38 97.1921 131.565 97.0868 131.555 96.8964ZM139.803 98.5858C139.81 98.7323 139.452 98.8247 138.727 98.8631C138.002 98.9014 137.635 98.8474 137.628 98.7009L137.336 93.1867L136.018 93.2564C135.893 93.263 135.796 93.0992 135.727 92.7651C135.697 92.6052 135.677 92.441 135.668 92.2725C135.659 92.1041 135.661 91.9388 135.675 91.7765C135.708 91.4369 135.787 91.2638 135.912 91.2572L140.69 91.0043C140.814 90.9977 140.911 91.1615 140.98 91.4956C141.011 91.6556 141.031 91.8198 141.039 91.9882C141.048 92.1566 141.046 92.322 141.033 92.4842C140.999 92.8238 140.92 92.9969 140.796 93.0035L139.511 93.0715L139.803 98.5858ZM147.985 98.1417C147.992 98.2661 147.625 98.348 146.885 98.3871C146.146 98.4263 145.773 98.3836 145.766 98.2591L145.632 95.7326L144.094 95.8141L144.228 98.3405C144.235 98.465 143.868 98.5468 143.129 98.586C142.389 98.6251 142.016 98.5825 142.009 98.458L141.624 91.1752C141.616 91.0214 141.981 90.9249 142.721 90.8858C143.461 90.8466 143.835 90.9039 143.843 91.0577L143.979 93.6391L145.517 93.5577L145.382 90.9983C145.376 90.8958 145.555 90.8128 145.919 90.7495C146.109 90.7248 146.295 90.7076 146.478 90.6979L147.04 90.6902C147.408 90.7148 147.595 90.7783 147.601 90.8808L147.985 98.1417ZM152.413 93.446C152.552 93.4387 152.635 93.6913 152.662 94.2039C152.671 94.3577 152.662 94.5417 152.637 94.756C152.618 94.9626 152.565 95.0683 152.477 95.0729L151.082 95.1467L151.14 96.2452L153.161 96.1382C153.286 96.1316 153.379 96.2883 153.44 96.6082C153.469 96.7461 153.488 96.8957 153.496 97.0568C153.505 97.2106 153.493 97.4131 153.462 97.6644C153.432 97.9157 153.365 98.0441 153.263 98.0495L149.506 98.2484C149.228 98.2631 149.082 98.157 149.07 97.93L148.697 90.8669C148.686 90.6765 148.766 90.5768 148.934 90.5679L152.867 90.3597C153.02 90.3516 153.114 90.6734 153.149 91.3251C153.183 91.9696 153.123 92.2959 152.969 92.304L150.937 92.4116L150.996 93.521L152.413 93.446ZM154.649 95.2884C154.794 95.3909 155.04 95.5284 155.387 95.701C155.741 95.8731 156.072 95.9511 156.38 95.9348C156.695 95.9181 156.846 95.789 156.833 95.5473C156.827 95.4375 156.778 95.3446 156.686 95.2687C156.594 95.1855 156.427 95.0951 156.187 94.9977C155.947 94.9002 155.767 94.8253 155.647 94.7729C155.526 94.7132 155.363 94.6191 155.158 94.4904C154.96 94.354 154.805 94.2116 154.695 94.0633C154.38 93.6614 154.205 93.1382 154.171 92.4938C154.137 91.8493 154.346 91.2948 154.799 90.8302C155.259 90.3579 155.877 90.1013 156.653 90.0602C157.18 90.0323 157.67 90.0651 158.123 90.1586C158.576 90.2448 158.814 90.379 158.838 90.5613C158.84 90.5833 158.841 90.6053 158.842 90.6272C158.855 90.8836 158.792 91.2137 158.652 91.6177C158.511 92.0143 158.409 92.2364 158.346 92.2838C157.864 92.0669 157.437 91.9684 157.063 91.9882C156.697 92.0075 156.521 92.1491 156.535 92.4127C156.544 92.5738 156.687 92.7094 156.964 92.8196C157.024 92.8458 157.111 92.8816 157.223 92.927C157.336 92.9725 157.463 93.0281 157.606 93.094C157.756 93.1521 157.915 93.2319 158.082 93.3332C158.256 93.4268 158.442 93.5565 158.642 93.7221C159.05 94.0677 159.269 94.5408 159.301 95.1413C159.343 95.9248 159.16 96.5771 158.755 97.0979C158.349 97.6187 157.696 97.9103 156.796 97.9726C156.357 97.9959 155.956 97.9804 155.593 97.9262C155.238 97.8716 154.923 97.745 154.648 97.5466C154.373 97.3482 154.227 97.0989 154.212 96.7986C154.196 96.4984 154.235 96.1989 154.329 95.9002C154.423 95.5941 154.53 95.3902 154.649 95.2884ZM163.666 92.8504C163.805 92.843 163.888 93.0956 163.915 93.6082C163.923 93.762 163.915 93.9461 163.889 94.1604C163.871 94.367 163.818 94.4726 163.73 94.4772L162.335 94.5511L162.393 95.6495L164.414 95.5426C164.539 95.536 164.631 95.6926 164.692 96.0125C164.722 96.1505 164.741 96.3 164.749 96.4611C164.757 96.6149 164.746 96.8175 164.715 97.0688C164.685 97.3201 164.618 97.4485 164.515 97.4539L160.759 97.6527C160.48 97.6675 160.335 97.5613 160.323 97.3343L159.949 90.2712C159.939 90.0808 160.018 89.9811 160.187 89.9722L164.119 89.7641C164.273 89.7559 164.367 90.0777 164.402 90.7295C164.436 91.3739 164.376 91.7002 164.222 91.7083L162.19 91.8159L162.249 92.9254L163.666 92.8504ZM74.8661 109.73C74.8584 109.584 75.2499 109.489 76.0408 109.447C76.839 109.405 77.242 109.457 77.2498 109.604L77.5167 114.646C77.5562 115.393 77.3213 116.018 76.8119 116.523C76.3021 117.02 75.5749 117.293 74.6302 117.343C73.6929 117.393 72.9148 117.192 72.2961 116.74C71.6842 116.28 71.3564 115.636 71.3126 114.809L71.055 109.943C71.0473 109.796 71.4388 109.702 72.2297 109.66C73.028 109.618 73.4309 109.67 73.4387 109.817L73.7009 114.771C73.7087 114.917 73.7918 115.03 73.9502 115.11C74.116 115.189 74.2867 115.224 74.4625 115.215C74.6382 115.206 74.7936 115.157 74.9284 115.069C75.0706 114.981 75.1375 114.856 75.1289 114.695L74.8661 109.73ZM84.5739 116.464C84.582 116.618 84.2419 116.713 83.5535 116.75C82.8652 116.786 82.4888 116.751 82.4244 116.644L80.4085 113.314L80.5894 116.73C80.5964 116.862 80.2593 116.946 79.5783 116.982C78.9046 117.018 78.5642 116.97 78.5572 116.838L78.1682 109.489C78.1624 109.379 78.4488 109.309 79.0273 109.278C79.2543 109.266 79.5191 109.274 79.8217 109.302C80.1312 109.323 80.3218 109.386 80.3935 109.492L82.3301 112.783L82.1476 109.334C82.1402 109.194 82.477 109.107 83.1581 109.071C83.8391 109.035 84.1833 109.086 84.1907 109.225L84.5739 116.464ZM87.0405 108.975C87.0143 108.896 87.382 108.836 88.1436 108.796C88.9857 108.751 89.4215 108.798 89.4508 108.936L90.2339 113.532L91.1505 108.791C91.1813 108.679 91.464 108.609 91.9986 108.581C92.5332 108.552 92.8215 108.589 92.8635 108.689L94.2554 113.341L94.6454 108.639C94.6558 108.558 94.8213 108.494 95.1419 108.447C95.4626 108.401 95.7218 108.373 95.9195 108.362C96.6885 108.321 97.0646 108.353 97.0481 108.457L96.1045 115.81C96.081 115.921 95.8766 116.013 95.4911 116.085C95.1057 116.156 94.7922 116.199 94.5505 116.212C93.6425 116.26 93.161 116.182 93.1063 115.98L92.1994 112.998L91.5459 116.051C91.5235 116.184 91.2723 116.293 90.7921 116.377C90.5442 116.413 90.2958 116.437 90.0468 116.45L89.3421 116.454C88.856 116.428 88.5949 116.351 88.5586 116.22L87.0405 108.975ZM101.284 115.932C100.258 115.986 99.4022 115.694 98.7147 115.055C98.0346 114.415 97.6605 113.451 97.5923 112.162C97.5236 110.866 97.7976 109.867 98.4141 109.166C99.0379 108.465 99.866 108.087 100.899 108.033C101.938 107.977 102.794 108.263 103.466 108.888C104.138 109.506 104.509 110.481 104.58 111.814C104.65 113.14 104.376 114.146 103.759 114.832C103.141 115.511 102.316 115.878 101.284 115.932ZM100.988 110.143C100.637 110.161 100.349 110.338 100.124 110.673C99.9068 111.008 99.8137 111.468 99.8447 112.054C99.8753 112.632 100.012 113.073 100.256 113.376C100.499 113.671 100.804 113.81 101.17 113.79C101.544 113.77 101.836 113.597 102.046 113.27C102.264 112.943 102.357 112.486 102.326 111.9C102.295 111.315 102.15 110.871 101.892 110.569C101.641 110.266 101.34 110.124 100.988 110.143ZM105.52 114.948L105.158 108.115C105.15 107.962 105.516 107.865 106.255 107.826C107.002 107.787 107.38 107.844 107.388 107.997L107.673 113.38L109.365 113.29C109.496 113.283 109.597 113.451 109.666 113.792C109.697 113.959 109.717 114.131 109.727 114.307C109.736 114.482 109.735 114.662 109.722 114.847C109.682 115.201 109.596 115.382 109.465 115.389L106.081 115.568C105.92 115.577 105.789 115.517 105.686 115.391C105.584 115.264 105.529 115.116 105.52 114.948ZM112.527 115.073C112.534 115.19 112.189 115.267 111.493 115.304C110.79 115.341 110.436 115.305 110.43 115.195L110.051 108.033C110.037 107.776 110.166 107.641 110.437 107.627L112.535 107.516C114.461 107.414 115.464 108.113 115.543 109.615C115.567 110.069 115.501 110.487 115.345 110.87C115.189 111.245 114.955 111.551 114.645 111.788L116.151 114.022C116.102 114.2 115.922 114.412 115.612 114.656C115.189 114.994 114.835 115.171 114.549 115.186C114.264 115.201 114.046 115.11 113.896 114.912L112.736 112.561L112.395 112.579L112.527 115.073ZM112.231 109.481L112.319 111.129L112.374 111.126C113.069 111.089 113.402 110.782 113.371 110.203C113.357 109.94 113.277 109.749 113.132 109.632C112.993 109.507 112.77 109.453 112.462 109.469L112.231 109.481ZM116.89 114.489L116.541 107.898C116.531 107.715 116.568 107.57 116.65 107.463C116.74 107.348 116.858 107.287 117.004 107.279L118.838 107.182C120.003 107.12 120.901 107.367 121.532 107.921C122.171 108.474 122.524 109.381 122.591 110.641C122.733 113.335 121.655 114.744 119.355 114.865L117.477 114.965C117.103 114.985 116.908 114.826 116.89 114.489ZM118.729 109.281L118.903 112.565C118.911 112.719 118.927 112.817 118.952 112.86C118.976 112.895 119.043 112.91 119.152 112.904C119.555 112.883 119.851 112.717 120.04 112.406C120.237 112.094 120.317 111.591 120.28 110.895C120.243 110.192 120.108 109.74 119.878 109.539C119.654 109.338 119.308 109.25 118.839 109.275L118.729 109.281ZM129.699 112.016L129.642 110.521C129.636 110.418 129.739 110.347 129.95 110.306C130.16 110.258 130.335 110.231 130.474 110.223L130.904 110.233C131.185 110.263 131.328 110.332 131.334 110.442L131.472 113.883C131.331 113.993 131.04 114.111 130.598 114.237C130.164 114.356 129.661 114.43 129.09 114.46C128.028 114.516 127.153 114.218 126.465 113.564C125.777 112.91 125.397 111.917 125.327 110.584C125.267 109.449 125.537 108.509 126.136 107.765C126.736 107.021 127.599 106.619 128.727 106.559C129.24 106.532 129.704 106.559 130.119 106.64C130.542 106.713 130.834 106.83 130.997 106.99C131.007 107.048 131.017 107.158 131.025 107.319C131.034 107.48 130.991 107.714 130.897 108.02C130.803 108.318 130.69 108.545 130.559 108.699C130.427 108.852 130.329 108.931 130.263 108.935C130.204 108.938 130.137 108.916 130.061 108.868C129.992 108.813 129.853 108.762 129.645 108.714C129.437 108.659 129.237 108.636 129.047 108.646C128.593 108.67 128.231 108.837 127.961 109.145C127.698 109.452 127.583 109.914 127.615 110.529C127.648 111.144 127.815 111.605 128.118 111.912C128.428 112.211 128.769 112.351 129.143 112.332C129.523 112.311 129.709 112.206 129.699 112.016ZM135.847 114.103C134.821 114.157 133.965 113.864 133.278 113.225C132.598 112.586 132.223 111.621 132.155 110.332C132.087 109.036 132.361 108.038 132.977 107.337C133.601 106.636 134.429 106.258 135.462 106.203C136.501 106.148 137.357 106.433 138.029 107.058C138.701 107.676 139.072 108.652 139.143 109.985C139.213 111.31 138.939 112.316 138.322 113.002C137.704 113.681 136.879 114.048 135.847 114.103ZM135.551 108.313C135.2 108.332 134.912 108.509 134.687 108.844C134.47 109.178 134.377 109.638 134.408 110.224C134.438 110.803 134.575 111.243 134.819 111.546C135.062 111.842 135.367 111.98 135.733 111.961C136.107 111.941 136.399 111.768 136.609 111.441C136.827 111.113 136.92 110.657 136.889 110.071C136.858 109.485 136.713 109.041 136.455 108.739C136.204 108.436 135.903 108.295 135.551 108.313ZM145.391 113.509C144.754 113.543 144.404 113.459 144.342 113.256L143.904 111.859L142.158 111.951L141.911 113.33C141.88 113.559 141.534 113.691 140.875 113.726C140.523 113.745 140.263 113.74 140.092 113.713C139.921 113.678 139.835 113.649 139.834 113.627L141.385 106.088C141.382 106.029 141.882 105.973 142.885 105.92C143.888 105.867 144.392 105.87 144.395 105.928L146.689 113.275C146.692 113.327 146.526 113.376 146.19 113.423C145.855 113.47 145.589 113.499 145.391 113.509ZM142.359 110.541L143.512 110.48L142.897 108.233L142.831 108.236L142.359 110.541ZM147.281 112.737L146.919 105.905C146.911 105.751 147.277 105.655 148.016 105.615C148.763 105.576 149.141 105.633 149.149 105.787L149.434 111.169L151.125 111.08C151.257 111.073 151.358 111.24 151.427 111.581C151.458 111.749 151.478 111.92 151.488 112.096C151.497 112.272 151.495 112.452 151.483 112.636C151.443 112.991 151.357 113.171 151.225 113.178L147.842 113.357C147.681 113.366 147.549 113.307 147.447 113.18C147.345 113.053 147.29 112.906 147.281 112.737ZM152.342 110.432C152.487 110.534 152.733 110.672 153.08 110.844C153.434 111.016 153.765 111.094 154.073 111.078C154.388 111.061 154.539 110.932 154.526 110.69C154.52 110.581 154.471 110.488 154.379 110.412C154.286 110.329 154.12 110.238 153.88 110.141C153.64 110.043 153.46 109.968 153.339 109.916C153.219 109.856 153.056 109.762 152.851 109.634C152.652 109.497 152.498 109.355 152.387 109.206C152.072 108.804 151.898 108.281 151.864 107.637C151.83 106.992 152.039 106.438 152.492 105.973C152.951 105.501 153.569 105.244 154.346 105.203C154.873 105.175 155.363 105.208 155.816 105.302C156.268 105.388 156.507 105.522 156.531 105.704C156.532 105.726 156.533 105.748 156.535 105.77C156.548 106.027 156.485 106.357 156.345 106.761C156.204 107.157 156.102 107.379 156.038 107.427C155.557 107.21 155.13 107.112 154.756 107.131C154.39 107.151 154.214 107.292 154.228 107.556C154.236 107.717 154.379 107.853 154.657 107.963C154.717 107.989 154.803 108.025 154.916 108.07C155.028 108.116 155.156 108.171 155.299 108.237C155.449 108.295 155.608 108.375 155.775 108.476C155.948 108.57 156.135 108.7 156.335 108.865C156.742 109.211 156.962 109.684 156.994 110.284C157.035 111.068 156.853 111.72 156.448 112.241C156.042 112.762 155.389 113.053 154.489 113.116C154.05 113.139 153.649 113.124 153.286 113.069C152.93 113.015 152.615 112.888 152.34 112.69C152.066 112.491 151.92 112.242 151.904 111.942C151.888 111.642 151.928 111.342 152.022 111.043C152.116 110.737 152.223 110.533 152.342 110.432ZM163.578 108.625C163.655 108.694 163.696 108.769 163.7 108.85C163.705 108.93 163.658 109.025 163.561 109.133L161.173 112.079C161.124 112.133 161.059 112.162 160.979 112.166C160.906 112.17 160.787 112.144 160.622 112.086C160.464 112.021 160.331 111.925 160.221 111.799C160.119 111.665 160.066 111.568 160.063 111.51C160.059 111.444 160.078 111.388 160.12 111.342L162.249 108.905L159.9 106.562C159.854 106.52 159.829 106.47 159.826 106.411C159.823 106.345 159.865 106.244 159.953 106.107C160.049 105.97 160.172 105.864 160.322 105.79C160.479 105.708 160.594 105.666 160.668 105.662C160.748 105.657 160.815 105.676 160.869 105.717L163.578 108.625Z" fill="#FFF284"/>
</g>
<g filter="url(#filter5_d_197_405)">
<path d="M130.349 123.365C125.956 123.362 122.285 126.112 121.22 129.878C120.592 129.781 120.012 129.684 119.337 129.684C114.412 129.68 110.402 133.396 110.398 138.032C110.396 141.944 113.29 145.279 117.249 146.151C116.765 147.213 116.474 148.421 116.474 149.676C116.47 154.554 120.716 158.518 125.93 158.522C128.103 158.523 130.131 157.848 131.725 156.642C133.655 158.237 136.165 159.205 138.917 159.207C144.904 159.211 149.783 154.675 149.787 149.073C149.789 147.093 149.163 145.257 148.15 143.711C150.42 142.264 151.967 139.801 151.969 137.049C151.972 132.606 148.112 128.98 143.333 128.977C141.981 128.976 140.677 129.264 139.518 129.795C138.41 126.075 134.743 123.368 130.446 123.365L130.349 123.365Z" fill="#CDDB86"/>
</g>
<g filter="url(#filter6_d_197_405)">
<path d="M160.547 17.8117C163.335 17.013 166.139 17.8606 167.669 19.772C168.265 19.2834 168.993 18.8846 169.804 18.6525C172.624 17.8446 175.465 19.1896 176.163 21.6251C176.499 22.7986 176.291 24.0331 175.643 25.0758C177.25 25.79 178.466 27.0929 178.953 28.7946C179.911 32.1397 177.605 35.721 173.779 36.8169C171.282 37.532 168.782 37.0101 167.095 35.6517C166.178 36.6129 164.958 37.375 163.531 37.7837C159.706 38.8795 155.852 37.0624 154.894 33.7176C154.247 31.4584 155.111 29.0839 156.924 27.4531C156.365 26.8511 155.953 26.144 155.717 25.3224C154.826 22.2123 156.981 18.8332 160.579 17.8024L160.547 17.8117Z" fill="#CDDB86"/>
</g>
<defs>
<filter id="filter0_d_197_405" x="37.7563" y="18.5298" width="191.907" height="146.391" filterUnits="userSpaceOnUse" color-interpolation-filters="sRGB">
<feFlood flood-opacity="0" result="BackgroundImageFix"/>
<feColorMatrix in="SourceAlpha" type="matrix" values="0 0 0 0 0 0 0 0 0 0 0 0 0 0 0 0 0 0 127 0" result="hardAlpha"/>
<feOffset dy="4"/>
<feGaussianBlur stdDeviation="2"/>
<feComposite in2="hardAlpha" operator="out"/>
<feColorMatrix type="matrix" values="0 0 0 0 0 0 0 0 0 0 0 0 0 0 0 0 0 0 0.25 0"/>
<feBlend mode="normal" in2="BackgroundImageFix" result="effect1_dropShadow_197_405"/>
<feBlend mode="normal" in="SourceGraphic" in2="effect1_dropShadow_197_405" result="shape"/>
</filter>
<filter id="filter1_d_197_405" x="140.661" y="96.3455" width="87.4644" height="66.6545" filterUnits="userSpaceOnUse" color-interpolation-filters="sRGB">
<feFlood flood-opacity="0" result="BackgroundImageFix"/>
<feColorMatrix in="SourceAlpha" type="matrix" values="0 0 0 0 0 0 0 0 0 0 0 0 0 0 0 0 0 0 127 0" result="hardAlpha"/>
<feOffset dy="4"/>
<feGaussianBlur stdDeviation="2"/>
<feComposite in2="hardAlpha" operator="out"/>
<feColorMatrix type="matrix" values="0 0 0 0 0 0 0 0 0 0 0 0 0 0 0 0 0 0 0.25 0"/>
<feBlend mode="normal" in2="BackgroundImageFix" result="effect1_dropShadow_197_405"/>
<feBlend mode="normal" in="SourceGraphic" in2="effect1_dropShadow_197_405" result="shape"/>
</filter>
<filter id="filter2_d_197_405" x="125.055" y="125.73" width="101.58" height="28.3633" filterUnits="userSpaceOnUse" color-interpolation-filters="sRGB">
<feFlood flood-opacity="0" result="BackgroundImageFix"/>
<feColorMatrix in="SourceAlpha" type="matrix" values="0 0 0 0 0 0 0 0 0 0 0 0 0 0 0 0 0 0 127 0" result="hardAlpha"/>
<feOffset dy="4"/>
<feGaussianBlur stdDeviation="2"/>
<feComposite in2="hardAlpha" operator="out"/>
<feColorMatrix type="matrix" values="0 0 0 0 0 0 0 0 0 0 0 0 0 0 0 0 0 0 0.25 0"/>
<feBlend mode="normal" in2="BackgroundImageFix" result="effect1_dropShadow_197_405"/>
<feBlend mode="normal" in="SourceGraphic" in2="effect1_dropShadow_197_405" result="shape"/>
</filter>
<filter id="filter3_d_197_405" x="27.5312" y="17.6662" width="184.594" height="135.309" filterUnits="userSpaceOnUse" color-interpolation-filters="sRGB">
<feFlood flood-opacity="0" result="BackgroundImageFix"/>
<feColorMatrix in="SourceAlpha" type="matrix" values="0 0 0 0 0 0 0 0 0 0 0 0 0 0 0 0 0 0 127 0" result="hardAlpha"/>
<feOffset dy="4"/>
<feGaussianBlur stdDeviation="2"/>
<feComposite in2="hardAlpha" operator="out"/>
<feColorMatrix type="matrix" values="0 0 0 0 0 0 0 0 0 0 0 0 0 0 0 0 0 0 0.25 0"/>
<feBlend mode="normal" in2="BackgroundImageFix" result="effect1_dropShadow_197_405"/>
<feBlend mode="normal" in="SourceGraphic" in2="effect1_dropShadow_197_405" result="shape"/>
</filter>
<filter id="filter4_d_197_405" x="63.3716" y="44.3809" width="112.513" height="81.1565" filterUnits="userSpaceOnUse" color-interpolation-filters="sRGB">
<feFlood flood-opacity="0" result="BackgroundImageFix"/>
<feColorMatrix in="SourceAlpha" type="matrix" values="0 0 0 0 0 0 0 0 0 0 0 0 0 0 0 0 0 0 127 0" result="hardAlpha"/>
<feOffset dy="4"/>
<feGaussianBlur stdDeviation="2"/>
<feComposite in2="hardAlpha" operator="out"/>
<feColorMatrix type="matrix" values="0 0 0 0 0 0 0 0 0 0 0 0 0 0 0 0 0 0 0.25 0"/>
<feBlend mode="normal" in2="BackgroundImageFix" result="effect1_dropShadow_197_405"/>
<feBlend mode="normal" in="SourceGraphic" in2="effect1_dropShadow_197_405" result="shape"/>
</filter>
<filter id="filter5_d_197_405" x="106.398" y="123.365" width="49.5703" height="43.8423" filterUnits="userSpaceOnUse" color-interpolation-filters="sRGB">
<feFlood flood-opacity="0" result="BackgroundImageFix"/>
<feColorMatrix in="SourceAlpha" type="matrix" values="0 0 0 0 0 0 0 0 0 0 0 0 0 0 0 0 0 0 127 0" result="hardAlpha"/>
<feOffset dy="4"/>
<feGaussianBlur stdDeviation="2"/>
<feComposite in2="hardAlpha" operator="out"/>
<feColorMatrix type="matrix" values="0 0 0 0 0 0 0 0 0 0 0 0 0 0 0 0 0 0 0.25 0"/>
<feBlend mode="normal" in2="BackgroundImageFix" result="effect1_dropShadow_197_405"/>
<feBlend mode="normal" in="SourceGraphic" in2="effect1_dropShadow_197_405" result="shape"/>
</filter>
<filter id="filter6_d_197_405" x="150.681" y="17.5121" width="32.4893" height="28.5906" filterUnits="userSpaceOnUse" color-interpolation-filters="sRGB">
<feFlood flood-opacity="0" result="BackgroundImageFix"/>
<feColorMatrix in="SourceAlpha" type="matrix" values="0 0 0 0 0 0 0 0 0 0 0 0 0 0 0 0 0 0 127 0" result="hardAlpha"/>
<feOffset dy="4"/>
<feGaussianBlur stdDeviation="2"/>
<feComposite in2="hardAlpha" operator="out"/>
<feColorMatrix type="matrix" values="0 0 0 0 0 0 0 0 0 0 0 0 0 0 0 0 0 0 0.25 0"/>
<feBlend mode="normal" in2="BackgroundImageFix" result="effect1_dropShadow_197_405"/>
<feBlend mode="normal" in="SourceGraphic" in2="effect1_dropShadow_197_405" result="shape"/>
</filter>
</defs>
</svg>
