<svg width="193" height="147" viewBox="0 0 193 147" fill="none" xmlns="http://www.w3.org/2000/svg">
<g filter="url(#filter0_d_187_478)">
<path d="M126.654 131.955C108.63 140.326 87.2921 138.962 74.3292 129.552C71.974 131.042 69.8183 132.439 67.0462 133.727C46.8456 143.108 21.9114 139.458 11.3205 125.388C2.38508 113.517 6.65644 97.8835 20.9106 87.7043C16.5028 85.4003 12.5564 82.2864 9.6885 78.4764C-1.45344 63.6743 6.92831 43.5614 28.3163 33.6284C37.2306 29.4885 47.0918 27.6789 56.3857 28.3075C60.6674 19.7915 68.7607 12.0768 80.0489 6.83434C104.607 -4.57096 134.981 -0.0834907 147.777 16.9166C152.301 22.926 153.918 29.6904 153.29 36.3118C165.908 36.3863 177.872 40.9176 184.16 49.2717C194.309 62.7544 186.74 81.1053 167.133 90.2112C161.587 92.7868 155.578 94.3916 149.611 94.9864C153.551 108.387 144.677 123.585 127.05 131.771L126.654 131.955Z" fill="#638A55"/>
</g>
<defs>
<filter id="filter0_d_187_478" x="0.756348" y="0.529816" width="191.907" height="146.391" filterUnits="userSpaceOnUse" color-interpolation-filters="sRGB">
<feFlood flood-opacity="0" result="BackgroundImageFix"/>
<feColorMatrix in="SourceAlpha" type="matrix" values="0 0 0 0 0 0 0 0 0 0 0 0 0 0 0 0 0 0 127 0" result="hardAlpha"/>
<feOffset dy="4"/>
<feGaussianBlur stdDeviation="2"/>
<feComposite in2="hardAlpha" operator="out"/>
<feColorMatrix type="matrix" values="0 0 0 0 0 0 0 0 0 0 0 0 0 0 0 0 0 0 0.25 0"/>
<feBlend mode="normal" in2="BackgroundImageFix" result="effect1_dropShadow_187_478"/>
<feBlend mode="normal" in="SourceGraphic" in2="effect1_dropShadow_187_478" result="shape"/>
</filter>
</defs>
</svg>
