<svg width="45" height="61" viewBox="0 0 45 61" fill="none" xmlns="http://www.w3.org/2000/svg">
<g filter="url(#filter0_d_153_305)">
<path d="M27.4157 29.826C26.935 30.9272 26.0116 31.885 24.7506 32.4598C22.1965 33.6242 19.2145 32.7725 18.0987 30.5461C17.228 28.8088 17.7593 26.7518 19.24 25.3739C18.341 24.9274 17.6114 24.2376 17.1578 23.3325C15.9585 20.9397 17.2196 17.9877 19.9678 16.7348C20.2372 16.612 20.5062 16.5149 20.7805 16.4282C20.4211 16.0809 20.1214 15.6679 19.8868 15.1998C18.6511 12.7342 19.9508 9.70066 22.7852 8.40853C24.4448 7.65191 26.2545 7.67032 27.7239 8.30405C28.2281 7.46078 29.0304 6.73714 30.0543 6.27037C32.5546 5.13054 35.4777 5.97058 36.5674 8.14491C37.4225 9.85108 36.9024 11.8774 35.4276 13.2143C35.5117 13.3294 35.5903 13.4597 35.6528 13.5845C36.3619 14.9994 35.685 16.7394 34.1418 17.5963C34.8098 19.2726 34.2215 21.1896 32.7639 22.4547C33.0277 22.7434 33.2644 23.0573 33.4416 23.411C34.5313 25.5853 33.3917 28.2776 30.8806 29.4223C29.749 29.9382 28.532 30.0457 27.4373 29.8162L27.4157 29.826Z" fill="#638A55"/>
<path d="M9.46657 9.81198C11.6879 9.28021 9.58026 6.12815 15.577 4.58807C17.2743 4.14693 17.0369 4.30826 17.8015 4.43856C20.4206 0.793398 26.3283 1.87502 27.3054 5.58791C27.406 5.9701 27.4321 6.34688 27.3867 6.72923L27.4554 6.71278C30.0889 6.08235 32.6582 7.24335 33.1985 9.29635C33.7388 11.3494 32.1462 13.3906 29.6674 14.1001C29.7277 14.2365 29.7764 14.3758 29.8137 14.5178C30.3541 16.5708 28.6642 18.7514 26.0307 19.3818C24.9544 19.6395 23.8835 19.5939 22.9584 19.3163C22.1207 20.6196 20.6445 21.6696 18.7781 22.1164C15.4463 22.914 12.2008 21.4505 11.5168 18.8515C11.4335 18.5349 11.396 18.2071 11.3842 17.885C9.1082 18.0699 7.0945 17.0778 6.58868 15.1558C6.08286 13.2339 7.251 10.3656 9.47232 9.83384L9.46657 9.81198Z" fill="#638A55"/>
<path d="M26.5796 7.88529C26.334 8.1854 26.2471 8.60588 26.3065 9.0455C25.7522 8.92074 25.212 9.0551 24.8662 9.47644C24.6809 9.69972 24.5726 9.97476 24.5272 10.2805C24.2621 10.3446 24.0247 10.4909 23.8395 10.7042C23.2434 11.4185 23.4025 12.6992 24.1743 13.6421C23.9189 14.4143 24.1952 15.4643 24.9167 16.2397C25.557 16.9264 26.3768 17.2049 27.0206 17.0166C27.1584 17.4375 27.3893 17.8508 27.719 18.2031C28.6029 19.1563 29.8355 19.3195 30.4617 18.5668C30.7122 18.2636 30.8328 17.8619 30.8224 17.422C31.7029 18.3079 32.8822 18.4443 33.4933 17.7108C33.8189 17.3217 33.9185 16.7545 33.8183 16.1716C34.5415 16.6286 35.3527 16.6149 35.8136 16.0632C35.994 15.8429 36.0973 15.571 36.1328 15.2714C36.8373 15.6904 37.6147 15.6579 38.0605 15.1254C38.4312 14.6788 38.4796 13.9943 38.254 13.3299C38.927 13.6195 39.6175 13.5313 40.0334 13.0271C40.6495 12.2905 40.4433 10.9298 39.5735 9.9976C38.9762 9.35385 38.215 9.0789 37.5968 9.2118C37.484 8.99357 37.3466 8.79062 37.1747 8.59895C36.4532 7.82346 35.4594 7.69175 34.9484 8.3041C34.8583 8.40916 34.7921 8.53923 34.7406 8.67018C34.6367 8.49613 34.5083 8.32719 34.3601 8.17055C33.519 7.27032 32.3548 7.11473 31.7587 7.82911C31.6585 7.95037 31.5775 8.08955 31.5206 8.24363C31.4637 8.15965 31.3969 8.08175 31.3251 8.00687C30.6036 7.23138 29.6098 7.0997 29.0989 7.71205C28.9737 7.85859 28.8919 8.03801 28.8488 8.2332C28.8345 8.21216 28.8154 8.19423 28.7962 8.17628C28.0746 7.40076 27.0809 7.26908 26.5699 7.88133L26.5796 7.88529Z" fill="#638A55"/>
<path d="M25.641 27.0369C23.4009 26.5822 23.8392 30.2972 17.7437 29.1634C16.016 28.8472 16.3036 28.802 15.6772 28.3641C11.6435 30.5382 6.83755 27.0876 7.67313 23.3434C7.75914 22.958 7.90951 22.6087 8.12671 22.2844L8.05743 22.2703C5.40178 21.7312 3.63024 19.6104 4.09227 17.5401C4.55429 15.4697 6.92618 14.3051 9.47945 14.7084C9.4883 14.5605 9.5088 14.415 9.54075 14.2718C10.0028 12.2015 12.5263 10.9526 15.182 11.4917C16.2674 11.712 17.2079 12.2024 17.9106 12.84C19.2641 12.0212 21.0742 11.6979 22.9563 12.0799C26.3162 12.762 28.5554 15.4382 27.9705 18.0592C27.8992 18.3785 27.7817 18.6885 27.6437 18.9827C29.7728 19.7718 31.1233 21.5079 30.6908 23.446C30.2582 25.3842 27.8859 27.4696 25.6459 27.0149L25.641 27.0369Z" fill="#638A55"/>
<path d="M23.3549 23.796H24.6074H24.7632H26.0158L26.9502 53H24.7632H24.6074H22.4138L23.3549 23.796Z" fill="#E1B083"/>
<path d="M17.556 40.8477C20.0532 43.1509 22.5478 45.4626 25.045 47.7656C25.01 46.9912 24.9612 46.2227 24.9262 45.4484C22.6454 43.799 20.3534 42.1467 18.0751 40.4886C17.7505 40.2546 17.1371 40.4305 17.5585 40.8391L17.556 40.8477Z" fill="#E1B083"/>
<path d="M31.4175 35.0187L26.2094 42.0704L25.8605 40.3471C27.5616 38.5021 29.2626 36.6572 30.9637 34.8122C31.2242 34.4864 31.6201 34.7495 31.4175 35.0187Z" fill="#E1B083"/>
<path d="M14.5098 39.6615C14.8552 39.091 15.4841 38.7916 16.0744 38.8689C16.0942 38.694 16.1519 38.5135 16.2522 38.3476C16.6017 37.7704 17.3219 37.5477 17.8579 37.8429C18.1162 37.9851 18.2909 38.2229 18.3567 38.498C18.7563 38.3642 19.1885 38.3899 19.563 38.5961C20.2992 39.0015 20.5117 39.9588 20.0378 40.7417C19.7285 41.2526 19.2076 41.5584 18.6845 41.5976C18.69 41.9015 18.6093 42.2197 18.4326 42.5116C17.9586 43.2945 16.983 43.5977 16.2469 43.1923C15.7497 42.9185 15.4937 42.3884 15.5287 41.8326C15.3296 41.8203 15.1377 41.7676 14.9568 41.668C14.2724 41.2911 14.068 40.3913 14.5138 39.6549L14.5098 39.6615Z" fill="#CDDB86"/>
<path d="M29.6688 32.449C30.6818 32.449 31.5277 32.8628 31.7725 33.4292C31.9173 33.4146 32.0509 33.4001 32.2067 33.4001C33.342 33.4001 34.2659 33.9591 34.2659 34.6561C34.2659 35.2442 33.598 35.7452 32.6853 35.8758C32.7966 36.0355 32.8634 36.2171 32.8634 36.4058C32.8634 37.1391 31.8839 37.7344 30.6818 37.7344C30.1808 37.7344 29.7134 37.6328 29.3461 37.4512C28.9008 37.6908 28.3219 37.836 27.6875 37.836C26.3073 37.836 25.183 37.1536 25.183 36.3114C25.183 36.0138 25.3277 35.7379 25.5615 35.5056C25.0383 35.2877 24.6821 34.9175 24.6821 34.5037C24.6821 33.8358 25.5726 33.2912 26.6746 33.2912C26.9862 33.2912 27.2868 33.3348 27.5539 33.4146C27.8099 32.8556 28.6559 32.449 29.6466 32.449L29.6688 32.449Z" fill="#CDDB86"/>
<path d="M18.5569 30.718C19.1063 30.7564 19.6788 30.5289 20.1621 30.1266C20.4373 30.8289 21.0133 31.3169 21.7855 31.372C22.1963 31.4035 22.6102 31.3109 23.0128 31.126C23.2934 31.3669 23.6516 31.5145 24.0502 31.5536C25.3669 31.6577 26.7854 30.501 27.3275 28.933C28.4524 28.62 29.5034 27.5122 29.8826 26.1277C30.2174 24.9001 29.9235 23.7894 29.203 23.2294C29.6036 22.7556 29.9237 22.1859 30.0945 21.5548C30.5629 19.8563 29.8136 18.3824 28.4277 18.2747C27.8708 18.2332 27.295 18.4094 26.7738 18.7583C27.1639 17.1151 26.4232 15.72 25.0719 15.6141C24.3541 15.5563 23.5953 15.8825 22.971 16.4394C22.9659 15.2974 22.327 14.4203 21.3097 14.3393C20.9064 14.3109 20.5 14.4064 20.1123 14.5974C20.0758 13.5051 19.4402 12.6794 18.4576 12.6001C17.636 12.5372 16.7755 13.0093 16.1494 13.7659C15.9814 12.8074 15.3454 12.1194 14.4198 12.0511C13.0611 11.9421 11.5824 13.2118 11.1284 14.8788C10.8122 16.0263 11.0655 17.0702 11.6997 17.6447C11.5237 17.9355 11.385 18.2416 11.2863 18.5768C10.907 19.9613 11.5111 21.1498 12.6397 21.2391C12.8352 21.2571 13.0425 21.2297 13.2396 21.1856C13.1099 21.4328 13.0052 21.703 12.9305 21.9853C12.4928 23.5963 13.1989 24.9897 14.5156 25.0939C14.7384 25.1104 14.968 25.0923 15.197 25.0364C15.1396 25.1631 15.0971 25.2959 15.0621 25.4319C14.6829 26.8164 15.2869 28.0049 16.4156 28.0942C16.6879 28.1187 16.9665 28.0706 17.2344 27.968C17.22 27.9997 17.2131 28.0344 17.2062 28.0692C16.827 29.4538 17.431 30.6422 18.5596 30.7316L18.5569 30.718Z" fill="#9BBA74"/>
<path d="M26.7139 16.7107C27.4449 16.8057 28.0522 17.0785 28.4693 17.4476C28.9224 16.1925 30.7546 15.3832 32.6343 15.6276C34.5139 15.872 35.8325 17.1516 35.4511 18.4705C35.4123 18.6047 35.3578 18.7308 35.2945 18.8559C35.5065 18.841 35.7221 18.8448 35.9397 18.8731C37.1145 19.0259 37.8757 19.797 37.6446 20.5965C37.5619 20.8825 37.3641 21.1293 37.0895 21.3298C37.9313 21.5724 38.4374 22.1953 38.2535 22.8314C38.0409 23.5668 36.9899 24.0477 35.9108 23.9074C35.641 23.8724 35.3901 23.8034 35.1754 23.7028C35.1636 23.7437 35.1588 23.7915 35.1469 23.8323C34.9344 24.5677 33.8833 25.0487 32.8042 24.9083C32.726 24.8981 32.6476 24.8879 32.5727 24.8661C32.2602 25.5097 31.2954 25.9111 30.286 25.7798C29.4418 25.67 28.8329 25.2155 28.6995 24.6774C28.6928 24.7007 28.6843 24.7298 28.6776 24.7532C28.4447 25.5586 27.2985 26.0877 26.115 25.9339C25.471 25.8501 24.9523 25.5828 24.6485 25.2284C24.2257 25.3793 23.7307 25.4361 23.226 25.3705C22.0773 25.2211 21.3233 24.4872 21.4834 23.7148C21.4573 23.7114 21.4312 23.708 21.4051 23.7046C20.561 23.5949 20.0085 23.0386 20.1755 22.4609C20.2869 22.0757 20.6981 21.7779 21.2116 21.657C20.828 21.3286 20.6469 20.8932 20.7768 20.4438C21.0096 19.6385 22.1558 19.1093 23.3394 19.2632C23.3654 19.2666 23.3828 19.2689 23.4089 19.2723C23.255 18.9616 23.2189 18.6178 23.3201 18.2677C23.6289 17.1997 25.1596 16.4965 26.7259 16.7001L26.7139 16.7107Z" fill="#CDDB86"/>
</g>
<defs>
<filter id="filter0_d_153_305" x="0.019043" y="2.19141" width="44.3694" height="58.8087" filterUnits="userSpaceOnUse" color-interpolation-filters="sRGB">
<feFlood flood-opacity="0" result="BackgroundImageFix"/>
<feColorMatrix in="SourceAlpha" type="matrix" values="0 0 0 0 0 0 0 0 0 0 0 0 0 0 0 0 0 0 127 0" result="hardAlpha"/>
<feOffset dy="4"/>
<feGaussianBlur stdDeviation="2"/>
<feComposite in2="hardAlpha" operator="out"/>
<feColorMatrix type="matrix" values="0 0 0 0 0 0 0 0 0 0 0 0 0 0 0 0 0 0 0.25 0"/>
<feBlend mode="normal" in2="BackgroundImageFix" result="effect1_dropShadow_153_305"/>
<feBlend mode="normal" in="SourceGraphic" in2="effect1_dropShadow_153_305" result="shape"/>
</filter>
</defs>
</svg>
