<svg width="58" height="59" viewBox="0 0 58 59" fill="none" xmlns="http://www.w3.org/2000/svg">
<g filter="url(#filter0_d_153_294)">
<path d="M17.8145 21.1949C16.9231 21.9836 15.7115 22.4637 14.3742 22.4637C11.6654 22.4637 9.45947 20.4863 9.45947 18.0403C9.45947 16.1316 10.8082 14.5086 12.6826 13.88C12.0997 13.1142 11.7683 12.1999 11.7683 11.2055C11.7683 8.57667 14.1342 6.45078 17.0488 6.45078C17.3345 6.45078 17.6088 6.47366 17.8831 6.50792C17.7231 6.05077 17.643 5.55925 17.643 5.04496C17.643 2.33616 20.0776 0.153137 23.0835 0.153137C24.8437 0.153137 26.3981 0.907415 27.3925 2.07325C28.1925 1.52464 29.1983 1.20459 30.2842 1.20459C32.9358 1.20459 35.096 3.14763 35.096 5.53643C35.096 7.41089 33.7702 9.01099 31.9186 9.60535C31.9414 9.7425 31.9528 9.89109 31.9528 10.0282C31.9528 11.5827 30.6157 12.8628 28.9126 12.9999C28.764 14.7715 27.4267 16.2459 25.6209 16.7831C25.7238 17.1488 25.7923 17.526 25.7923 17.9146C25.7923 20.3034 23.6436 22.2465 20.9805 22.2465C19.7803 22.2465 18.6832 21.8465 17.8374 21.1949H17.8145Z" fill="#638A55"/>
<path d="M30.7102 19.9536C32.9315 19.9536 31.7292 16.3468 37.752 16.2437C39.458 16.2094 39.1947 16.3125 39.8817 16.6215C43.2481 13.6445 48.5381 16.1064 48.5381 19.9995C48.5381 20.4002 48.4694 20.778 48.332 21.1444H48.4007C51.0342 21.1444 53.1639 22.8963 53.1639 25.049C53.1639 27.2016 51.1602 28.839 48.6526 28.9534C48.6755 29.1023 48.6869 29.2512 48.6869 29.4001C48.6869 31.5527 46.5572 33.3045 43.9237 33.3045C42.8473 33.3045 41.8512 33.0067 41.0496 32.5144C39.9389 33.6021 38.2901 34.2892 36.4237 34.2892C33.0918 34.2892 30.4009 32.0794 30.4009 29.3542C30.4009 29.0222 30.4468 28.69 30.5154 28.3695C28.3285 28.0145 26.6797 26.5604 26.6797 24.5451C26.6797 22.5299 28.4888 19.9765 30.7102 19.9765V19.9536Z" fill="#638A55"/>
<path d="M23.1123 15.7671C23.8459 15.9391 24.4534 16.3632 24.8431 16.9135C25.6111 16.3747 26.6427 16.1454 27.6744 16.3861C28.2246 16.5122 28.706 16.753 29.1186 17.074C29.6229 16.9594 30.1731 16.9594 30.7119 17.074C32.4771 17.4751 33.6348 19.0684 33.417 20.7075C34.6893 21.4181 35.4 22.8281 35.079 24.2379C34.7925 25.4873 33.7608 26.3928 32.5 26.6335C32.7407 27.218 32.8209 27.86 32.6719 28.5019C32.2822 30.2326 30.4483 31.2987 28.5914 30.8747C27.8463 30.7027 27.2044 30.3243 26.7344 29.8085C26.2759 31.4591 24.4993 32.4563 22.6882 32.0437C21.7253 31.8259 20.9345 31.2413 20.453 30.4964C19.7768 31.5394 18.4357 32.101 17.0716 31.7915C16.5329 31.6655 16.0629 31.4248 15.6733 31.1038C14.9855 32.0896 13.6788 32.6054 12.3606 32.3074C11.2603 32.0552 10.4235 31.2987 10.0568 30.3703C9.27727 31.1841 8.05085 31.5738 6.8129 31.2872C4.99037 30.8746 3.8212 29.1553 4.21094 27.4588C4.47455 26.2896 5.41447 25.43 6.57217 25.1434C6.51487 24.811 6.51487 24.4786 6.58364 24.1347C6.90456 22.7249 8.38323 21.8651 9.89627 22.2091C10.1599 22.2663 10.4121 22.3695 10.6413 22.4841C10.6184 22.2091 10.6413 21.9224 10.7101 21.6359C11.0883 19.9968 12.8191 18.9881 14.5844 19.3893C14.8824 19.4581 15.1689 19.5613 15.4325 19.6988C15.4325 19.5613 15.4554 19.4237 15.4899 19.2861C15.8108 17.8762 17.2895 17.0165 18.8025 17.3605C19.1693 17.4407 19.5017 17.5898 19.7883 17.7847C19.7883 17.7502 19.7997 17.7158 19.8111 17.6815C20.1322 16.2715 21.6107 15.4119 23.1238 15.7557L23.1123 15.7671Z" fill="#638A55"/>
<path d="M21.4245 15.3293C22.9837 15.3293 24.2496 16.5952 24.2496 18.1544C24.2496 19.7135 22.9837 20.9794 21.4245 20.9794C19.8654 20.9794 18.5995 19.7135 18.5995 18.1544C18.5995 16.5952 19.8654 15.3293 21.4245 15.3293ZM28.958 8.78839C31.5988 8.78839 33.7428 10.9325 33.7428 13.5732C33.7428 16.2139 31.5988 18.358 28.958 18.358C26.3173 18.358 24.1733 16.2139 24.1733 13.5732C24.1733 10.9325 26.3173 8.78839 28.958 8.78839ZM24.3769 10.0609C27.2142 10.0609 29.518 12.3647 29.518 15.202C29.518 18.0394 27.2142 20.3431 24.3769 20.3431C21.5395 20.3431 19.2358 18.0394 19.2358 15.202C19.2358 12.3647 21.5395 10.0609 24.3769 10.0609ZM33.1829 11.5116C36.1186 11.5116 38.5022 13.8952 38.5022 16.8309C38.5022 19.7666 36.1186 22.1502 33.1829 22.1502C30.2472 22.1502 27.8636 19.7666 27.8636 16.8309C27.8636 13.8952 30.2472 11.5116 33.1829 11.5116ZM21.5264 16.9327C24.4199 16.9327 26.7693 19.2821 26.7693 22.1756C26.7693 25.0692 24.4199 27.4185 21.5264 27.4185C18.6328 27.4185 16.2834 25.0692 16.2834 22.1756C16.2834 19.2821 18.6328 16.9327 21.5264 16.9327ZM35.4226 19.0706C37.9509 19.0706 40.0038 21.1234 40.0038 23.6518C40.0038 26.1801 37.9509 28.2329 35.4226 28.2329C32.8942 28.2329 30.8414 26.1801 30.8414 23.6518C30.8414 21.1234 32.8942 19.0706 35.4226 19.0706ZM32.0631 23.5245C34.2683 23.5245 36.0589 25.315 36.0589 27.5203C36.0589 29.7256 34.2683 31.5161 32.0631 31.5161C29.8578 31.5161 28.0673 29.7256 28.0673 27.5203C28.0673 25.315 29.8578 23.5245 32.0631 23.5245ZM24.2242 21.9466C26.9913 21.9466 29.238 24.1933 29.238 26.9604C29.238 29.7275 26.9913 31.9742 24.2242 31.9742C21.457 31.9742 19.2103 29.7275 19.2103 26.9604C19.2103 24.1933 21.457 21.9466 24.2242 21.9466ZM28.6017 11.9952C33.827 11.9952 38.0695 16.2377 38.0695 21.463C38.0695 26.6882 33.827 30.9307 28.6017 30.9307C23.3765 30.9307 19.134 26.6882 19.134 21.463C19.134 16.2377 23.3765 11.9952 28.6017 11.9952Z" fill="#9BBA74"/>
<path d="M26.2447 23H27.9014H28.1074H29.7641L31 51H28.1074H27.9014H25L26.2447 23Z" fill="#E1B083"/>
<path d="M18.058 32.0455C21.0122 34.0723 23.9663 36.1104 26.9205 38.1371C26.6801 37.1981 26.4281 36.2707 26.1877 35.3318C23.6113 34.0379 21.0237 32.7441 18.4473 31.4388C18.0809 31.2555 17.5542 31.6677 18.058 32.0341V32.0455Z" fill="#E1B083"/>
<path d="M37.8739 28.1198L29 37.4517L29.1259 34.5548C31.874 32.2419 34.6221 29.929 37.3701 27.616C37.8052 27.1924 38.2175 27.7649 37.8739 28.1198Z" fill="#E1B083"/>
<path d="M28.2994 6.93437C29.2445 7.11762 30.0298 7.64346 30.569 8.35504C31.1548 5.93536 33.5237 4.37503 35.954 4.84622C38.3842 5.31747 40.089 7.78435 39.5959 10.3271C39.5458 10.5859 39.4753 10.8291 39.3935 11.0701C39.6676 11.0415 39.9463 11.0488 40.2277 11.1033C41.7465 11.3979 42.7307 12.8845 42.4319 14.426C42.325 14.9773 42.0693 15.453 41.7142 15.8395C42.8026 16.3074 43.457 17.5083 43.2192 18.7346C42.9444 20.1523 41.5854 21.0795 40.1903 20.8091C39.8415 20.7414 39.5171 20.6085 39.2394 20.4146C39.2242 20.4933 39.2179 20.5855 39.2027 20.6642C38.9279 22.082 37.5689 23.0093 36.1737 22.7387C36.0726 22.719 35.9712 22.6994 35.8744 22.6573C35.4704 23.8981 34.223 24.6719 32.9178 24.4189C31.8264 24.2072 31.0391 23.3309 30.8667 22.2934C30.8579 22.3385 30.847 22.3946 30.8383 22.4396C30.5372 23.9923 29.0553 25.0125 27.5251 24.7158C26.6925 24.5544 26.0219 24.0391 25.6291 23.3558C25.0824 23.6468 24.4425 23.7562 23.7898 23.6297C22.3047 23.3417 21.3299 21.9269 21.5369 20.4377C21.5031 20.4312 21.4694 20.4246 21.4356 20.4181C20.3442 20.2065 19.63 19.1341 19.8459 18.0202C19.9898 17.2776 20.5215 16.7036 21.1854 16.4704C20.6894 15.8372 20.4553 14.9979 20.6232 14.1316C20.9242 12.579 22.4062 11.5588 23.9364 11.8555C23.9701 11.862 23.9926 11.8664 24.0264 11.8729C23.8274 11.2739 23.7807 10.6111 23.9116 9.93611C24.3108 7.87712 26.2899 6.52139 28.315 6.91404L28.2994 6.93437Z" fill="#CDDB86"/>
<path d="M37.9172 23C38.9054 23 39.7442 23.5974 40.0659 24.4477C40.3072 24.3328 40.583 24.2639 40.8702 24.2639C41.8699 24.2639 42.6743 25.0452 42.6743 25.999C42.6743 26.4585 42.4904 26.8838 42.1802 27.1939C42.6397 27.6191 42.9154 28.2166 42.9154 28.883C42.9154 30.1929 41.824 31.25 40.4681 31.25C39.5833 31.25 38.8135 30.8019 38.3884 30.1354C37.9976 30.3882 37.5266 30.5376 37.021 30.5376C35.6651 30.5376 34.5735 29.4805 34.5735 28.1706C34.5735 27.2859 35.0791 26.516 35.826 26.1138C35.6996 25.838 35.6307 25.5393 35.6307 25.2176C35.6307 23.9997 36.6533 23 37.9287 23H37.9172Z" fill="#CDDB86"/>
<path d="M17.0383 25.5758C18.0783 25.5758 18.9466 26.2271 19.198 27.1185C19.3466 27.0956 19.4837 27.0727 19.6437 27.0727C20.8091 27.0727 21.7576 27.9526 21.7576 29.0496C21.7576 29.9751 21.0719 30.7636 20.135 30.9692C20.2493 31.2206 20.3178 31.5064 20.3178 31.8034C20.3178 32.9575 19.3123 33.8945 18.0783 33.8945C17.5639 33.8945 17.0841 33.7345 16.707 33.4488C16.2499 33.8259 15.6557 34.0545 15.0044 34.0545C13.5875 34.0545 12.4334 32.9803 12.4334 31.6549C12.4334 31.1864 12.582 30.7522 12.8219 30.3865C12.2849 30.0437 11.9192 29.4609 11.9192 28.8096C11.9192 27.7584 12.8333 26.9013 13.9646 26.9013C14.2845 26.9013 14.5931 26.9698 14.8673 27.0956C15.1301 26.2157 15.9985 25.5758 17.0155 25.5758H17.0383Z" fill="#CDDB86"/>
</g>
<defs>
<filter id="filter0_d_153_294" x="0.135986" y="0.153137" width="57.0278" height="58.8469" filterUnits="userSpaceOnUse" color-interpolation-filters="sRGB">
<feFlood flood-opacity="0" result="BackgroundImageFix"/>
<feColorMatrix in="SourceAlpha" type="matrix" values="0 0 0 0 0 0 0 0 0 0 0 0 0 0 0 0 0 0 127 0" result="hardAlpha"/>
<feOffset dy="4"/>
<feGaussianBlur stdDeviation="2"/>
<feComposite in2="hardAlpha" operator="out"/>
<feColorMatrix type="matrix" values="0 0 0 0 0 0 0 0 0 0 0 0 0 0 0 0 0 0 0.25 0"/>
<feBlend mode="normal" in2="BackgroundImageFix" result="effect1_dropShadow_153_294"/>
<feBlend mode="normal" in="SourceGraphic" in2="effect1_dropShadow_153_294" result="shape"/>
</filter>
</defs>
</svg>
