<svg width="50" height="62" viewBox="0 0 50 62" fill="none" xmlns="http://www.w3.org/2000/svg">
<g filter="url(#filter0_d_153_317)">
<path d="M28.0732 31.1289C27.1585 31.846 25.9152 32.2824 24.543 32.2824C21.7635 32.2824 19.5 30.4848 19.5 28.2611C19.5 26.5259 20.8839 25.0505 22.8073 24.479C22.2092 23.7829 21.8691 22.9516 21.8691 22.0477C21.8691 19.6578 24.2968 17.7252 27.2875 17.7252C27.5806 17.7252 27.8621 17.746 28.1435 17.7771C27.9794 17.3615 27.8972 16.9147 27.8972 16.4472C27.8972 13.9846 30.3953 12.0001 33.4798 12.0001C35.286 12.0001 36.8809 12.6858 37.9012 13.7456C38.7222 13.2469 39.7542 12.9559 40.8685 12.9559C43.5894 12.9559 45.8059 14.7223 45.8059 16.894C45.8059 18.598 44.4455 20.0527 42.5455 20.593C42.569 20.7177 42.5807 20.8527 42.5807 20.9774C42.5807 22.3906 41.2086 23.5543 39.4611 23.6789C39.3086 25.2895 37.9364 26.6299 36.0835 27.1182C36.189 27.4507 36.2593 27.7936 36.2593 28.1468C36.2593 30.3185 34.0545 32.0849 31.3218 32.0849C30.0904 32.0849 28.9646 31.7213 28.0966 31.1289H28.0732Z" fill="#638A55"/>
<path d="M13.0834 9.07143C15.0421 8.57979 13.1837 5.66563 18.4714 4.24177C19.9681 3.83393 19.7587 3.98309 20.4329 4.10355C22.7423 0.733496 27.9515 1.73349 28.8131 5.16616C28.9018 5.51951 28.9249 5.86785 28.8848 6.22134L28.9454 6.20613C31.2675 5.62328 33.533 6.69666 34.0094 8.59472C34.4859 10.4928 33.0816 12.38 30.8958 13.0359C30.949 13.1621 30.9919 13.2909 31.0249 13.4221C31.5013 15.3202 30.0112 17.3362 27.6891 17.919C26.7401 18.1573 25.7958 18.1151 24.98 17.8584C24.2415 19.0634 22.9397 20.0341 21.294 20.4472C18.3561 21.1846 15.4944 19.8316 14.8913 17.4287C14.8178 17.136 14.7847 16.833 14.7743 16.5352C12.7674 16.7062 10.9918 15.7889 10.5458 14.012C10.0998 12.2351 11.1298 9.58328 13.0885 9.09164L13.0834 9.07143Z" fill="#638A55"/>
<path d="M23.6876 31.389C21.7124 30.9686 22.185 33.9988 16.8126 32.939C15.29 32.6428 15.5411 32.6126 14.9814 32.2424C11.4957 33.9186 7.19919 31.0044 7.84307 27.9793C7.90935 27.6679 8.03292 27.3873 8.21569 27.1286L8.15461 27.1156C5.81295 26.6172 4.20905 24.8529 4.56508 23.1802C4.9211 21.5075 6.97348 20.6143 9.22213 21C9.22638 20.88 9.24091 20.7621 9.26552 20.6464C9.62155 18.9737 11.8049 18.0155 14.1466 18.5139C15.1037 18.7176 15.9401 19.1376 16.5715 19.6719C17.739 19.0368 19.3187 18.8149 20.9782 19.1682C23.9409 19.7988 25.9681 22.0252 25.5173 24.1428C25.4624 24.4008 25.3667 24.6502 25.2526 24.8863C27.1385 25.576 28.3641 27.018 28.0308 28.5839C27.6975 30.1499 25.6666 31.7916 23.6914 31.3712L23.6876 31.389Z" fill="#638A55"/>
<path d="M11.9806 25.3877C12.0067 24.2748 13.0719 23.3957 14.3578 23.4259C15.6437 23.456 16.6665 24.384 16.6404 25.4969C16.6144 26.6098 15.5491 27.4888 14.2632 27.4587C12.9773 27.4286 11.9545 26.5005 11.9806 25.3877ZM6.71207 19.8841C6.75626 17.9992 8.56043 16.5103 10.7383 16.5614C12.9162 16.6124 14.6487 18.1842 14.6045 20.0691C14.5603 21.9539 12.7561 23.4428 10.5782 23.3918C8.40031 23.3407 6.66789 21.7689 6.71207 19.8841ZM7.68494 23.1785C7.73242 21.1533 9.67094 19.5536 12.011 19.6084C14.3511 19.6633 16.2126 21.3521 16.1651 23.3773C16.1176 25.4026 14.1791 27.0023 11.839 26.9475C9.4989 26.8926 7.63747 25.2038 7.68494 23.1785ZM9.02874 16.9212C9.07786 14.8258 11.0836 13.1706 13.5047 13.2273C15.9259 13.2841 17.8519 15.0314 17.8028 17.1268C17.7536 19.2222 15.7479 20.8775 13.3267 20.8207C10.9056 20.7639 8.97962 19.0166 9.02874 16.9212ZM13.3047 25.346C13.3531 23.2807 15.33 21.6492 17.7164 21.7052C20.1029 21.7611 22.0012 23.4834 21.9527 25.5487C21.9043 27.614 19.9274 29.2455 17.541 29.1895C15.1545 29.1336 13.2563 27.4113 13.3047 25.346ZM15.3004 15.4687C15.3427 13.6641 17.0701 12.2385 19.1553 12.2874C21.2405 12.3363 22.8992 13.8412 22.8569 15.6458C22.8146 17.4505 21.0872 18.876 19.002 18.8271C16.9168 18.7783 15.2581 17.2733 15.3004 15.4687ZM18.9175 17.9527C18.9544 16.3787 20.4611 15.1353 22.2799 15.1779C24.0986 15.2205 25.5454 16.5332 25.5085 18.1072C25.4716 19.6813 23.9649 20.9247 22.1461 20.882C20.3274 20.8394 18.8806 19.5268 18.9175 17.9527ZM17.4849 23.5173C17.5312 21.5422 19.4218 19.9821 21.7039 20.0356C23.9861 20.0891 25.8015 21.7361 25.7552 23.7112C25.7089 25.6863 23.8183 27.2465 21.5362 27.193C19.254 27.1395 17.4386 25.4924 17.4849 23.5173ZM9.35091 20.2004C9.43834 16.4708 13.0083 13.5247 17.3178 13.6257C21.6273 13.7267 25.0552 16.8369 24.9678 20.5665C24.8804 24.2961 21.3104 27.2422 17.0009 27.1412C12.6915 27.0402 9.26348 23.93 9.35091 20.2004Z" fill="#9BBA74"/>
<path d="M30.4579 43.7481L26.1356 51.3544L25.7441 49.4237C27.1772 47.4487 28.6102 45.4736 30.0432 43.4984C30.2607 43.1479 30.6263 43.4578 30.4579 43.7481Z" fill="#E1B083"/>
<path d="M31.0552 38.8766C31.8778 39.1357 32.4305 39.8171 32.4914 40.5585C32.7202 40.533 32.9665 40.552 33.2056 40.6273C34.0377 40.8894 34.5171 41.704 34.285 42.4409C34.1732 42.796 33.9166 43.0764 33.5829 43.2347C33.862 43.6837 33.9461 44.2176 33.7839 44.7325C33.4652 45.7447 32.2994 46.2753 31.1708 45.9199C30.4344 45.688 29.9026 45.14 29.711 44.5135C29.3242 44.6064 28.8958 44.5983 28.475 44.4658C27.3464 44.1104 26.695 43.0074 27.0137 41.9953C27.229 41.3117 27.8372 40.8494 28.5567 40.7344C28.5187 40.4881 28.534 40.2393 28.6123 39.9907C28.9087 39.0496 30.0032 38.5453 31.0648 38.8796L31.0552 38.8766Z" fill="#CDDB86"/>
<path d="M21.9839 23.0001H23.5572H23.7528H25.3263L26.5 53.2947H23.7528H23.5572H20.8018L21.9839 23.0001Z" fill="#E1B083"/>
<path d="M23.0125 27.7733C23.0336 26.876 23.717 26.1631 24.5378 26.1823C25.3585 26.2015 26.0078 26.9457 25.9868 27.843C25.9658 28.7403 25.2823 29.4532 24.4616 29.434C23.6408 29.4147 22.9915 28.6706 23.0125 27.7733ZM19.671 23.357C19.7066 21.8372 20.8642 20.6298 22.2543 20.6624C23.6444 20.695 24.7441 21.9553 24.7085 23.4751C24.6729 24.9948 23.5153 26.2023 22.1252 26.1697C20.7351 26.1371 19.6354 24.8768 19.671 23.357ZM20.2791 26.0092C20.3173 24.3763 21.5611 23.0789 23.0547 23.1139C24.5484 23.1489 25.73 24.5032 25.6917 26.1361C25.6534 27.769 24.4096 29.0664 22.916 29.0314C21.4224 28.9964 20.2408 27.6421 20.2791 26.0092ZM21.1615 20.9592C21.2011 19.2697 22.488 17.9273 24.0334 17.9635C25.5788 17.9998 26.8013 19.4009 26.7617 21.0904C26.7221 22.78 25.4352 24.1223 23.8899 24.0861C22.3445 24.0498 21.1219 22.6487 21.1615 20.9592ZM23.858 27.7345C23.897 26.0692 25.1654 24.7462 26.6886 24.7819C28.2118 24.8176 29.4168 26.1986 29.3778 27.8639C29.3387 29.5291 28.0703 30.8522 26.5471 30.8165C25.0239 30.7808 23.8189 29.3997 23.858 27.7345ZM25.1708 19.7635C25.2049 18.3084 26.3133 17.1523 27.6442 17.1835C28.9751 17.2147 30.0281 18.4215 29.994 19.8766C29.9598 21.3316 28.8515 22.4877 27.5206 22.4565C26.1896 22.4253 25.1367 21.2186 25.1708 19.7635ZM27.4701 21.7519C27.4998 20.4827 28.4665 19.4744 29.6274 19.5016C30.7883 19.5288 31.7067 20.5813 31.6769 21.8505C31.6472 23.1197 30.6805 24.128 29.5196 24.1008C28.3587 24.0736 27.4403 23.021 27.4701 21.7519ZM26.5337 26.2438C26.571 24.6512 27.784 23.386 29.2406 23.4201C30.6973 23.4543 31.8497 24.775 31.8123 26.3675C31.775 27.96 30.562 29.2253 29.1054 29.1911C27.6487 29.157 26.4963 27.8363 26.5337 26.2438ZM21.3543 23.6016C21.4248 20.5945 23.7153 18.2052 26.4659 18.2697C29.2165 18.3342 31.3926 20.8281 31.3221 23.8353C31.2516 26.8425 28.9611 29.2317 26.2104 29.1672C23.4598 29.1027 21.2838 26.6088 21.3543 23.6016Z" fill="#9BBA74"/>
<path d="M15.5036 22.4516C15.5279 21.4154 16.4037 20.5941 17.4582 20.6188C18.5126 20.6435 19.349 21.5049 19.3247 22.5412C19.3004 23.5774 18.4246 24.3987 17.3701 24.3739C16.3157 24.3492 15.4793 23.4878 15.5036 22.4516ZM11.1975 17.3411C11.2386 15.586 12.722 14.1951 14.5079 14.2369C16.2938 14.2788 17.7104 15.7377 17.6692 17.4928C17.6281 19.2478 16.1447 20.6388 14.3588 20.5969C12.5729 20.5551 11.1563 19.0961 11.1975 17.3411ZM11.9867 20.4059C12.0309 18.5202 13.6248 17.0256 15.5436 17.0706C17.4625 17.1156 18.9846 18.6832 18.9404 20.569C18.8962 22.4547 17.3023 23.9492 15.3834 23.9043C13.4646 23.8593 11.9425 22.2917 11.9867 20.4059ZM13.105 14.5764C13.1507 12.6253 14.7998 11.0789 16.7852 11.1255C18.7705 11.172 20.3454 12.7939 20.2996 14.745C20.2539 16.6961 18.6048 18.2425 16.6194 18.1959C14.6341 18.1494 13.0592 16.5275 13.105 14.5764ZM16.5896 22.4094C16.6346 20.4863 18.2601 18.9621 20.2169 19.008C22.1738 19.0539 23.726 20.6525 23.6809 22.5756C23.6358 24.4987 22.0104 26.0228 20.0536 25.9769C18.0967 25.9311 16.5445 24.3324 16.5896 22.4094ZM18.2519 13.2077C18.2913 11.5273 19.7115 10.1956 21.4214 10.2356C23.1313 10.2757 24.4876 11.6726 24.4482 13.353C24.4088 15.0333 22.9885 16.3651 21.2787 16.325C19.5688 16.2849 18.2125 14.8881 18.2519 13.2077ZM21.2116 15.5111C21.246 14.0454 22.4848 12.8838 23.9762 12.9188C25.4676 12.9537 26.6506 14.1721 26.6162 15.6378C26.5819 17.1034 25.3431 18.265 23.8517 18.2301C22.3603 18.1951 21.1773 16.9767 21.2116 15.5111ZM20.0224 20.6959C20.0655 18.8568 21.6199 17.3992 23.4913 17.4431C25.3626 17.487 26.847 19.0158 26.8039 20.8548C26.7608 22.6939 25.2064 24.1515 23.335 24.1076C21.4637 24.0637 19.9793 22.5349 20.0224 20.6959ZM13.3606 17.6287C13.442 14.156 16.3773 11.4036 19.911 11.4865C23.4448 11.5693 26.2478 14.4562 26.1664 17.9289C26.085 21.4017 23.1498 24.154 19.616 24.0712C16.0823 23.9883 13.2792 21.1015 13.3606 17.6287Z" fill="#CDDB86"/>
</g>
<defs>
<filter id="filter0_d_153_317" x="0.515625" y="2.026" width="49.2903" height="59.2687" filterUnits="userSpaceOnUse" color-interpolation-filters="sRGB">
<feFlood flood-opacity="0" result="BackgroundImageFix"/>
<feColorMatrix in="SourceAlpha" type="matrix" values="0 0 0 0 0 0 0 0 0 0 0 0 0 0 0 0 0 0 127 0" result="hardAlpha"/>
<feOffset dy="4"/>
<feGaussianBlur stdDeviation="2"/>
<feComposite in2="hardAlpha" operator="out"/>
<feColorMatrix type="matrix" values="0 0 0 0 0 0 0 0 0 0 0 0 0 0 0 0 0 0 0.25 0"/>
<feBlend mode="normal" in2="BackgroundImageFix" result="effect1_dropShadow_153_317"/>
<feBlend mode="normal" in="SourceGraphic" in2="effect1_dropShadow_153_317" result="shape"/>
</filter>
</defs>
</svg>
